<?xml version="1.0" standalone="no"?>
<!DOCTYPE svg PUBLIC "-//W3C//DTD SVG 1.1//EN" "http://www.w3.org/Graphics/SVG/1.1/DTD/svg11.dtd" >
<svg xmlns="http://www.w3.org/2000/svg" xmlns:xlink="http://www.w3.org/1999/xlink" version="1.1">
<metadata>
Created by FontForge 20170731 at Mon Nov 13 18:17:23 2023
 By Aleksey,,,
Copyright (C) 2002, 2007 Hoefler &#38; Frere-Jones. http://www.typography.com
</metadata>
<defs>
<font id="ChronicleDisplay-Bold" horiz-adv-x="1445" >
  <font-face 
    font-family="Chronicle Display Bold"
    font-weight="400"
    font-stretch="normal"
    units-per-em="2048"
    panose-1="0 0 0 0 0 0 0 0 0 0"
    ascent="1638"
    descent="-410"
    x-height="946"
    cap-height="1427"
    bbox="-215 -655 2517 2372"
    underline-thickness="102"
    underline-position="-307"
    unicode-range="U+0020-FB04"
  />
<missing-glyph horiz-adv-x="1024" 
d="M0 -410v2048h1024v-2048h-1024zM145 1536l367 -799l367 799h-734zM102 -156l353 770l-353 770v-1540zM922 1384l-353 -770l353 -770v1540zM512 492l-367 -799h734z" />
    <glyph glyph-name="f_f" unicode="ff" horiz-adv-x="1370" 
d="M659 1475q213 0 293 -101l2 2q102 105 312 105q148 0 224.5 -50t76.5 -131q0 -65 -35.5 -103t-101.5 -38q-63 0 -103.5 35.5t-40.5 105.5q0 29 13.5 65t29.5 56q-31 21 -72 21q-53 0 -86 -33q-55 -55 -55 -268v-205h256v-66h-256v-770q0 -43 38.5 -57.5t154.5 -17.5v-25
h-594v25q73 2 101 17.5t28 57.5v770h-369v-770q0 -41 30.5 -57t96.5 -18v-25h-541v25q88 1 115 16t27 59v768h-176v33l176 39v76q0 231 112 346q113 113 344 113zM844 1022q0 56 6 108q-59 2 -98 39.5t-39 102.5q0 70 51 125q-35 39 -109 39q-72 0 -112 -43
q-34 -34 -51 -88.5t-17 -159.5v-209h369v86z" />
    <glyph glyph-name="fi" unicode="fi" horiz-adv-x="1280" 
d="M61 0v25q88 1 115 16t27 59v768h-176v33l176 39v64q0 246 108 354q123 123 365 123q207 0 308 -66t101 -168q0 -66 -39 -108.5t-104 -42.5t-109.5 37t-44.5 104q0 38 19 72.5t53 54.5q-56 78 -166 78q-107 0 -153 -49q-35 -35 -50.5 -93t-15.5 -172v-192h297l336 14v-850
q0 -44 26.5 -59t116.5 -16v-25h-540v25q65 2 95 18t30 57v770h-361v-770q0 -41 30.5 -57t96.5 -18v-25h-541z" />
    <glyph glyph-name="fl" unicode="fl" horiz-adv-x="1288" 
d="M846 870h-371v-770q0 -41 30.5 -57t96.5 -18v-25h-541v25q88 1 115 16t27 59v768h-176v33l176 39v74q0 242 108 350q117 117 346 117q164 0 244 -47l217 43v-1377q0 -43 27.5 -58.5t114.5 -16.5v-25h-537v25q64 2 93.5 18t29.5 57v770zM846 1128q-57 5 -93 40.5t-36 97.5
q0 36 16.5 71t42.5 54q-44 51 -110 51q-82 0 -127 -45q-64 -64 -64 -258v-203h371v192z" />
    <glyph glyph-name="f_f_i" unicode="ffi" horiz-adv-x="1921" 
d="M659 1475q224 0 302 -109q124 115 356 115q207 0 308 -66t101 -168q0 -66 -39.5 -108.5t-105.5 -42.5q-64 0 -107.5 36.5t-43.5 102.5q0 87 71 131q-57 76 -166 76q-107 0 -153 -49q-35 -35 -50.5 -93t-15.5 -172v-192h297l336 16v-852q0 -43 27 -58.5t116 -16.5v-25
h-540v25q64 2 94.5 18.5t30.5 56.5v770h-361v-770q0 -40 30.5 -56.5t96.5 -18.5v-25h-528v25q72 2 100.5 18t28.5 57v770h-369v-770q0 -40 30.5 -56.5t96.5 -18.5v-25h-541v25q87 1 114.5 16.5t27.5 58.5v768h-176v33l176 39v76q0 231 112 346q113 113 344 113zM844 936v68
q0 74 8 126q-64 0 -103.5 38t-39.5 104q0 70 55 125q-35 39 -107 39q-74 0 -114 -43q-34 -34 -51 -88.5t-17 -159.5v-209h369z" />
    <glyph glyph-name="f_f_l" unicode="ffl" horiz-adv-x="1929" 
d="M715 0v25q72 2 100.5 18t28.5 57v770h-369v-770q0 -40 30.5 -56.5t96.5 -18.5v-25h-541v25q87 1 114.5 16.5t27.5 58.5v768h-176v33l176 39v76q0 231 112 346q113 113 344 113q222 0 299 -105q117 111 340 111q164 0 244 -47l217 43v-1377q0 -42 28 -58t114 -17v-25h-537
v25q63 2 93 18.5t30 56.5v770h-371v-770q0 -40 30.5 -56.5t96.5 -18.5v-25h-528zM1487 936v192q-57 5 -93 40.5t-36 97.5q0 35 16.5 71t42.5 56q-45 49 -110 49q-82 0 -127 -45q-32 -32 -48 -91t-16 -167v-203h371zM844 1014q0 60 6 116q-59 0 -98 37.5t-39 104.5
q0 74 51 125q-35 39 -107 39q-74 0 -114 -43q-34 -34 -51 -88.5t-17 -159.5v-209h369v78z" />
    <glyph glyph-name="f_b" unicode="fb" horiz-adv-x="1863" 
d="M846 1128q-57 5 -93 40.5t-36 97.5q0 36 16.5 71t42.5 54q-44 51 -110 51q-82 0 -127 -45q-64 -64 -64 -258v-203h371v192zM475 870v-770q0 -41 39 -56.5t154 -18.5v-25h-607v25q87 1 114.5 16.5t27.5 58.5v768h-176v33l176 39v74q0 242 108 350q117 117 346 117
q164 0 244 -47l217 43v-641q134 127 307 127q119 0 205.5 -62.5t128 -165t41.5 -231.5q0 -227 -122.5 -373.5t-327.5 -146.5q-202 0 -336 90l-135 -113h-37l4 195v714h-371zM1307 23q69 0 115.5 61.5t66.5 164.5t20 245q0 171 -58 277t-163 106q-45 0 -82.5 -18t-87.5 -58
v-635q32 -70 81 -106.5t108 -36.5z" />
    <glyph glyph-name="f_h" unicode="fh" horiz-adv-x="1880" 
d="M846 1128q-57 5 -93 40.5t-36 97.5q0 36 16.5 71t42.5 54q-44 51 -110 51q-82 0 -127 -45q-64 -64 -64 -258v-203h371v192zM1260 0h-537v25q64 2 93.5 18t29.5 57v770h-371v-770q0 -41 30.5 -57t96.5 -18v-25h-541v25q88 1 115 16t27 59v768h-176v33l176 39v74
q0 242 108 350q117 117 346 117q164 0 244 -47l217 43v-732q68 99 162 155t193 56q258 0 258 -294v-562q0 -44 26.5 -59t114.5 -16v-25h-524v25q61 2 85.5 17.5t24.5 57.5v541q0 195 -151 195q-101 0 -189 -136v-600q0 -43 27.5 -58.5t114.5 -16.5v-25z" />
    <glyph glyph-name="f_j" unicode="fj" horiz-adv-x="1267" 
d="M475 870v-770q0 -41 39 -56.5t154 -18.5v-25h-607v25q87 1 114.5 16.5t27.5 58.5v768h-176v33l176 39v64q0 246 108 354q123 123 365 123q207 0 308 -66t101 -168q0 -66 -39 -108.5t-104 -42.5t-109.5 37t-44.5 104q0 38 19 72.5t53 54.5q-56 78 -166 78q-107 0 -153 -49
q-35 -35 -50.5 -93t-15.5 -172v-192h293l336 14v-911q0 -139 -24 -216.5t-85 -139.5q-44 -42 -123 -67.5t-165 -25.5q-135 0 -210 49t-75 123q0 64 38.5 103t100.5 39q61 0 100 -39t39 -98q0 -43 -12 -69.5t-43 -51.5q34 -17 60 -17q131 0 131 226v1015h-361z" />
    <glyph glyph-name="f_k" unicode="fk" horiz-adv-x="1822" 
d="M846 1128q-57 5 -93 40.5t-36 97.5q0 36 16.5 71t42.5 54q-44 51 -110 51q-82 0 -127 -45q-64 -64 -64 -258v-203h371v192zM1260 0h-537v25q64 2 93.5 18t29.5 57v770h-371v-770q0 -41 30.5 -57t96.5 -18v-25h-541v25q88 1 115 16t27 59v768h-176v33l176 39v74
q0 242 108 350q117 117 346 117q164 0 244 -47l217 43v-1045l279 295q69 77 51.5 123.5t-117.5 71.5v24h455v-24q-97 -21 -175 -71t-179 -151l-70 -65l321 -475q58 -84 89.5 -105.5t103.5 -29.5v-25h-535v25q71 4 83.5 28.5t-25.5 81.5l-207 322l-74 -74v-283
q0 -43 27.5 -58.5t114.5 -16.5v-25z" />
    <glyph glyph-name="f_f_b" unicode="ffb" horiz-adv-x="2504" 
d="M1309 0h-594v25q72 2 100.5 18t28.5 57v770h-369v-770q0 -40 30.5 -56.5t96.5 -18.5v-25h-541v25q87 1 114.5 16.5t27.5 58.5v768h-176v33l176 39v76q0 231 112 346q113 113 344 113q222 0 299 -105q117 111 340 111q164 0 244 -47l217 43v-641q136 129 307 129
q119 0 205.5 -63t128 -165.5t41.5 -230.5q0 -150 -53.5 -267.5t-156.5 -186t-240 -68.5q-202 0 -336 90l-135 -113h-37l4 195v714h-371v-770q0 -41 39 -56.5t154 -18.5v-25zM1948 23q103 0 152.5 126.5t49.5 346.5q0 169 -58.5 275t-162.5 106q-45 0 -83.5 -18t-86.5 -58
v-635q32 -70 81 -106.5t108 -36.5zM1487 936v192q-57 5 -93 40.5t-36 97.5q0 35 16.5 71t42.5 56q-45 49 -110 49q-82 0 -127 -45q-32 -32 -48 -91t-16 -167v-203h371zM844 1014q0 60 6 116q-59 0 -98 37.5t-39 104.5q0 74 51 125q-35 39 -107 39q-74 0 -114 -43
q-34 -34 -51 -88.5t-17 -159.5v-209h369v78z" />
    <glyph glyph-name="f_f_h" unicode="ffh" horiz-adv-x="2521" 
d="M715 0v25q72 2 100.5 18t28.5 57v770h-369v-770q0 -40 30.5 -56.5t96.5 -18.5v-25h-541v25q87 1 114.5 16.5t27.5 58.5v768h-176v33l176 39v76q0 231 112 346q113 113 344 113q222 0 299 -105q117 111 340 111q164 0 244 -47l217 43v-732q68 99 162 156t193 57
q128 0 193 -75t65 -221v-562q0 -43 27 -58.5t114 -16.5v-25h-524v25q61 2 85.5 18t24.5 57v541q0 195 -151 195q-101 0 -189 -136v-600q0 -42 28 -58t114 -17v-25h-537v25q63 2 93 18.5t30 56.5v770h-371v-770q0 -40 30.5 -56.5t96.5 -18.5v-25h-528zM1487 936v192
q-57 5 -93 40.5t-36 97.5q0 35 16.5 71t42.5 56q-45 49 -110 49q-82 0 -127 -45q-32 -32 -48 -91t-16 -167v-203h371zM844 1014q0 60 6 116q-59 0 -98 37.5t-39 104.5q0 74 51 125q-35 39 -107 39q-74 0 -114 -43q-34 -34 -51 -88.5t-17 -159.5v-209h369v78z" />
    <glyph glyph-name="f_f_j" unicode="ffj" horiz-adv-x="1908" 
d="M1309 0h-594v25q72 2 100.5 18t28.5 57v770h-369v-770q0 -40 30.5 -56.5t96.5 -18.5v-25h-541v25q87 1 114.5 16.5t27.5 58.5v768h-176v33l176 39v76q0 231 112 346q113 113 344 113q224 0 302 -109q124 115 356 115q207 0 308 -66t101 -168q0 -66 -39.5 -108.5
t-105.5 -42.5q-64 0 -107.5 36.5t-43.5 102.5q0 87 71 131q-57 76 -166 76q-107 0 -153 -49q-35 -35 -50.5 -93t-15.5 -172v-192h293l336 16v-913q0 -139 -24 -216.5t-85 -139.5q-44 -42 -123 -67.5t-165 -25.5q-135 0 -210 49t-75 123q0 64 38.5 103t100.5 39q61 0 100 -39
t39 -98q0 -43 -12 -69.5t-43 -51.5q34 -17 60 -17q131 0 131 226v1015h-361v-770q0 -41 39 -56.5t154 -18.5v-25zM844 1004q0 74 8 126q-64 0 -103.5 38t-39.5 104q0 70 55 125q-35 39 -107 39q-74 0 -114 -43q-34 -34 -51 -88.5t-17 -159.5v-209h369v68z" />
    <glyph glyph-name="f_f_k" unicode="ffk" horiz-adv-x="2463" 
d="M1759 432l279 295q69 77 51.5 123.5t-117.5 71.5v24h455v-24q-98 -21 -176.5 -71t-179.5 -151l-68 -65l321 -475q58 -84 89.5 -105.5t103.5 -29.5v-25h-535v25q71 4 83.5 28.5t-25.5 81.5l-207 322l-74 -74v-283q0 -42 28 -58t114 -17v-25h-537v25q63 2 93 18.5t30 56.5
v770h-371v-770q0 -40 30.5 -56.5t96.5 -18.5v-25h-528v25q72 2 100.5 18t28.5 57v770h-369v-770q0 -40 30.5 -56.5t96.5 -18.5v-25h-541v25q87 1 114.5 16.5t27.5 58.5v768h-176v33l176 39v76q0 231 112 346q113 113 344 113q222 0 299 -105q117 111 340 111q164 0 244 -47
l217 43v-1045zM1487 936v192q-57 5 -93 40.5t-36 97.5q0 35 16.5 71t42.5 56q-45 49 -110 49q-82 0 -127 -45q-32 -32 -48 -91t-16 -167v-203h371zM844 1014q0 60 6 116q-59 0 -98 37.5t-39 104.5q0 74 51 125q-35 39 -107 39q-74 0 -114 -43q-34 -34 -51 -88.5t-17 -159.5
v-209h369v78z" />
    <glyph glyph-name=".notdef" horiz-adv-x="1024" 
d="M0 -410v2048h1024v-2048h-1024zM145 1536l367 -799l367 799h-734zM102 -156l353 770l-353 770v-1540zM922 1384l-353 -770l353 -770v1540zM512 492l-367 -799h734z" />
    <glyph glyph-name=".null" horiz-adv-x="0" 
 />
    <glyph glyph-name="nonmarkingreturn" horiz-adv-x="682" 
 />
    <glyph glyph-name="space" unicode=" " horiz-adv-x="391" 
 />
    <glyph glyph-name="exclam" unicode="!" horiz-adv-x="585" 
d="M279 416q-18 169 -79 482.5t-61 393.5q0 91 40.5 142t115.5 51q73 0 113.5 -51t40.5 -142q0 -80 -61 -393.5t-79 -482.5h-30zM291 -35q-70 0 -117 46.5t-47 113.5q0 66 48.5 114t119.5 48q70 0 116 -46.5t46 -113.5q0 -65 -48.5 -113.5t-117.5 -48.5z" />
    <glyph glyph-name="quotedbl" unicode="&#x22;" horiz-adv-x="935" 
d="M563 848l-28 12l43 291q28 181 45 219q15 37 44.5 57.5t65.5 20.5q55 0 95 -38t40 -89q0 -20 -10 -47q-18 -45 -121 -189zM170 848l-31 12l43 291q27 171 45 219q35 78 113 78q55 0 94 -38t39 -89q0 -20 -10 -47q-16 -44 -119 -189z" />
    <glyph glyph-name="numbersign" unicode="#" 
d="M657 1450l-92 -461h434l93 461h53l-92 -461h323v-43h-332l-102 -516h346v-43h-354l-92 -473h-54l93 473h-435l-92 -473h-53l92 473h-315v43h323l103 516h-336v43h344l92 461h53zM557 946l-102 -516h434l102 516h-434z" />
    <glyph glyph-name="dollar" unicode="$" horiz-adv-x="1159" 
d="M555 -133v172q-212 5 -343.5 85t-131.5 206q0 61 42 109t118 48q68 0 108.5 -42.5t40.5 -104.5q0 -46 -27 -86t-79 -64q29 -42 102.5 -73t169.5 -37v479l-70 25q-49 18 -81 30.5t-76 33t-72 39.5t-59.5 47.5t-49 59t-29.5 71t-12 87.5q0 109 63.5 193t167.5 128t232 48
v149h54v-151q186 -6 307 -79.5t121 -182.5q0 -60 -38.5 -103t-101.5 -43q-73 0 -112 40.5t-39 101.5q0 38 23.5 76t58.5 57q-73 84 -219 92v-444l71 -25q48 -17 80.5 -29.5t76.5 -33.5t73.5 -41.5t61 -50t50.5 -62t31 -75.5t12 -93q0 -76 -27.5 -142t-82.5 -120
t-147.5 -86.5t-213.5 -36.5v-172h-53zM850 289q0 93 -53 145t-189 105v-459q117 4 179.5 59.5t62.5 149.5zM352 1077q0 -79 50.5 -127.5t166.5 -95.5v426q-97 -6 -157 -58t-60 -145z" />
    <glyph glyph-name="percent" unicode="%" horiz-adv-x="1669" 
d="M1227 27q83 0 154 78.5t108 184.5t37 202q0 99 -35.5 150.5t-97.5 51.5q-82 0 -152 -82.5t-106.5 -195.5t-36.5 -219q0 -90 36.5 -130t92.5 -40zM1186 -29q-135 0 -213 83.5t-78 224.5q0 120 60.5 233t164.5 184.5t219 71.5q111 0 175.5 -72.5t64.5 -201.5
q0 -45 -10.5 -99.5t-31 -113.5t-54 -114t-75.5 -99t-99.5 -70.5t-122.5 -26.5zM729 1114q0 30 -4 70q-112 29 -215 106q-91 -53 -150 -194.5t-59 -276.5q0 -90 36.5 -130t92.5 -40q83 0 154 79t108 185t37 201zM541 1391q73 0 127 -31t82 -90q88 -43 202 -43q93 0 181 46
t184 148h59l-997 -1474h-96l954 1339l-6 6q-147 -129 -354 -129q-55 0 -99 8q4 -32 4 -55q0 -54 -14.5 -120.5t-47 -137.5t-77 -129.5t-111 -96.5t-143.5 -38q-136 0 -213.5 82.5t-77.5 224.5q0 120 60.5 233t164 185t218.5 72z" />
    <glyph glyph-name="ampersand" unicode="&#x26;" horiz-adv-x="1572" 
d="M696 803q75 66 105 138t30 177q0 106 -43 163.5t-122 57.5q-72 0 -117 -53.5t-45 -146.5q0 -80 41.5 -153.5t150.5 -182.5zM473 678q-133 -121 -133 -295q0 -130 79 -206.5t206 -76.5q140 0 243 129q-60 97 -172.5 224t-222.5 225zM1034 442q64 160 150 236t168 76
q81 0 128.5 -45.5t47.5 -118.5q0 -62 -42.5 -106t-103.5 -44q-59 0 -99 42.5t-40 101.5q0 12 6 30l-8 7q-101 -56 -180 -211q101 -167 175 -228t150 -61q32 0 60 11t74 42l16 -18q-172 -191 -336 -191q-102 0 -169.5 49.5t-143.5 182.5q-155 -232 -424 -232
q-175 0 -281 96.5t-106 249.5q0 274 366 394q-87 85 -125 159t-38 160q0 152 107.5 250t291.5 98q172 0 269 -83t97 -199q0 -204 -307 -326q207 -170 297 -322z" />
    <glyph glyph-name="quotesingle" unicode="'" horiz-adv-x="540" 
d="M170 848l-31 12l43 291q27 171 45 219q35 78 113 78q55 0 94 -38t39 -89q0 -20 -10 -47q-16 -44 -119 -189z" />
    <glyph glyph-name="parenleft" unicode="(" horiz-adv-x="784" 
d="M838 -340q-100 37 -195.5 95t-188 145t-161.5 190.5t-111.5 239t-42.5 282.5t42.5 282.5t111.5 239t161.5 191t188 145.5t195.5 95l12 -25q-108 -68 -186.5 -149t-138 -191.5t-89.5 -257t-30 -330.5t30 -330.5t89.5 -256.5t138 -191t186.5 -149z" />
    <glyph glyph-name="parenright" unicode=")" horiz-adv-x="784" 
d="M-53 -340l-13 25q107 68 185.5 149t138 191t89.5 256.5t30 330.5t-30 330.5t-89.5 257t-138 191.5t-185.5 149l13 25q100 -37 195.5 -95t187.5 -145.5t161.5 -191t111.5 -239t42 -282.5t-42 -282.5t-111.5 -239t-161.5 -190.5t-187.5 -145t-195.5 -95z" />
    <glyph glyph-name="asterisk" unicode="*" horiz-adv-x="866" 
d="M547 776q-36 -12 -67 4t-44 58q-4 12 -5.5 38t-1 60t1.5 62t3 62t2 42l-20 6q-4 -6 -23 -35t-34 -50.5t-34.5 -49.5t-36 -47t-26.5 -27q-38 -27 -69.5 -22.5t-55.5 36.5q-23 30 -17 64t42 61q12 9 48 22t69 22.5t78 21.5t53 14v19q-7 2 -52.5 14t-78 21.5t-68.5 22.5
t-49 22q-36 27 -42.5 61.5t17.5 64.5q24 31 56.5 36t68.5 -21q45 -38 154 -211l20 6q0 7 -3 54.5t-4 80.5t0 72t7 55q13 42 43 57.5t68 4.5q37 -11 52 -42.5t3 -74.5q-4 -12 -18 -33t-35 -49t-38 -49t-40 -49t-27 -33l13 -14q211 81 250 81q43 0 67.5 -24t24.5 -62
q0 -39 -24.5 -63.5t-67.5 -24.5q-16 0 -53.5 11t-70 22.5t-74.5 27.5t-50 19l-13 -16q2 -3 34 -42t52 -64.5t42.5 -58t27.5 -46.5q12 -43 -3 -74.5t-52 -42.5z" />
    <glyph glyph-name="plus" unicode="+" horiz-adv-x="1138" 
d="M111 647v45h434v432h53v-432h430v-45h-430v-438h-53v438h-434z" />
    <glyph glyph-name="comma" unicode="," horiz-adv-x="520" 
d="M68 -326l-13 25q112 57 175.5 140t70.5 151l-8 4q-25 -14 -60 -14q-57 0 -98 40.5t-41 106.5q0 65 43.5 112.5t110.5 47.5q83 0 132.5 -57t49.5 -148q0 -134 -96 -244.5t-266 -163.5z" />
    <glyph glyph-name="hyphen" unicode="-" horiz-adv-x="749" 
d="M113 489v84h524v-84h-524z" />
    <glyph glyph-name="period" unicode="." horiz-adv-x="520" 
d="M258 -35q-70 0 -116 46.5t-46 113.5q0 65 48 113.5t118 48.5t117 -46.5t47 -113.5q0 -65 -49 -113.5t-119 -48.5z" />
    <glyph glyph-name="slash" unicode="/" horiz-adv-x="935" 
d="M16 -440l435 983l426 985h61l-434 -985l-426 -983h-62z" />
    <glyph glyph-name="zero" unicode="0" horiz-adv-x="1300" 
d="M647 -29q-171 0 -301 92.5t-198 251t-68 359.5q0 150 41.5 282t115.5 228t182 151.5t234 55.5q171 0 301.5 -93.5t198.5 -253.5t68 -362q0 -199 -71 -360.5t-203 -256t-300 -94.5zM659 8q139 0 190.5 156t51.5 514q0 354 -58 514t-202 160q-139 0 -190.5 -157.5
t-51.5 -516.5q0 -351 58 -510.5t202 -159.5z" />
    <glyph glyph-name="one" unicode="1" horiz-adv-x="890" 
d="M74 0v27q137 1 189 29t52 91v996q0 66 -15.5 98t-68 50.5t-161.5 23.5v22l534 43v-1233q0 -64 50 -91.5t190 -28.5v-27h-770z" />
    <glyph glyph-name="two" unicode="2" horiz-adv-x="1173" 
d="M90 0v176l289 219q154 115 236.5 205t119.5 188t37 230q0 179 -63 256.5t-177 77.5q-72 0 -139 -30.5t-98 -86.5q72 -29 105.5 -71t33.5 -105q0 -72 -46 -124t-124 -52q-77 0 -124.5 52t-47.5 130q0 98 66.5 173.5t174.5 114t238 38.5q246 0 373 -103.5t127 -267.5
q0 -143 -119.5 -269.5t-429.5 -326.5l-258 -176v-8h553q99 0 140 38t96 175l26 -2l-6 -451h-983z" />
    <glyph glyph-name="three" unicode="3" horiz-adv-x="1159" 
d="M532 -29q-208 0 -338.5 78t-130.5 209q0 77 48.5 128.5t124.5 51.5q73 0 116 -47t43 -112q0 -55 -31 -98.5t-83 -71.5q26 -41 97 -71t154 -30q265 0 265 350q0 160 -80 238t-271 78h-65v45h57q183 0 253.5 81.5t70.5 256.5q0 152 -59 223.5t-189 71.5q-59 0 -119 -26.5
t-90 -65.5q51 -20 86 -62t35 -106q0 -66 -42.5 -113t-117.5 -47q-70 0 -116 45.5t-46 118.5q0 131 131 213t328 82q239 0 368.5 -88.5t129.5 -239.5q0 -278 -459 -358v-9q240 -9 367 -98t127 -240q0 -181 -145.5 -284t-418.5 -103z" />
    <glyph glyph-name="four" unicode="4" horiz-adv-x="1226" 
d="M1184 399h-262v-260q0 -59 39 -85t133 -27v-27h-645v27q96 2 140 28t44 84v260h-596v95l690 868h195v-793h262v-170zM625 1145l-451 -576h459v576h-8z" />
    <glyph glyph-name="five" unicode="5" horiz-adv-x="1134" 
d="M537 -29q-118 0 -218.5 30.5t-166.5 95t-66 151.5q0 75 49 127.5t125 52.5q72 0 112 -45.5t40 -108.5q0 -61 -35 -106t-86 -68q34 -39 95 -65.5t134 -26.5q74 0 124.5 28.5t78 86t38.5 129.5t11 172q0 186 -71 265t-199 79q-156 0 -295 -109l-39 19l20 684h848l-41 -252
h-764l-14 -399q70 52 166 82t190 30q256 0 379 -109.5t123 -293.5q0 -93 -35.5 -174t-102 -142.5t-170 -97t-230.5 -35.5z" />
    <glyph glyph-name="six" unicode="6" horiz-adv-x="1198" 
d="M618 -29q-241 0 -389.5 156.5t-148.5 421.5q0 339 219 561q130 130 300 197t454 90v-25q-316 -75 -468 -225t-208 -436l8 -4q41 91 132.5 142.5t207.5 51.5q188 0 299 -116t111 -300q0 -148 -58 -263t-176.5 -183t-282.5 -68zM625 6q112 0 162.5 108t50.5 328
q0 203 -50.5 301.5t-154.5 98.5q-110 0 -187 -110t-77 -302q0 -207 67 -315.5t189 -108.5z" />
    <glyph glyph-name="seven" unicode="7" horiz-adv-x="1097" 
d="M215 -20v16l721 1120h-590q-81 0 -118.5 -41.5t-90.5 -187.5l-26 2l16 473h952v-25l-336 -747l-262 -610h-266z" />
    <glyph glyph-name="eight" unicode="8" horiz-adv-x="1169" 
d="M74 315q0 105 79 191t220 141q-125 63 -194.5 146.5t-69.5 203.5q0 112 66 203.5t173.5 141t231.5 49.5q207 0 340 -89.5t133 -236.5q0 -97 -75 -172.5t-204 -128.5q156 -68 241 -158t85 -223q0 -116 -71.5 -212t-187 -148t-247.5 -52q-248 0 -384 92t-136 252zM510 590
l-82 31q-115 -103 -115 -293q0 -134 74.5 -227t208.5 -93q119 0 183.5 65.5t64.5 198.5q0 111 -87 185.5t-247 132.5zM690 797l31 -13q50 48 71 113.5t21 161.5q0 125 -62 208t-182 83q-101 0 -157 -62t-56 -180q0 -59 24.5 -106.5t73.5 -84.5t103 -64t133 -56z" />
    <glyph glyph-name="nine" unicode="9" horiz-adv-x="1198" 
d="M152 -41v25q212 49 347.5 133t213 212t116.5 322l-8 4q-43 -93 -126 -143.5t-195 -50.5q-191 0 -309.5 117.5t-118.5 306.5q0 143 60.5 256.5t181.5 181.5t284 68q250 0 389 -156.5t139 -435.5q0 -330 -219 -549q-131 -131 -301.5 -199t-453.5 -92zM582 520
q104 0 179 111.5t75 298.5q0 206 -60.5 316t-175.5 110q-114 0 -172.5 -110t-58.5 -324q0 -402 213 -402z" />
    <glyph glyph-name="colon" unicode=":" horiz-adv-x="548" 
d="M272 528q-69 0 -116 47t-47 113q0 65 48.5 113.5t118.5 48.5t117 -46.5t47 -113.5q0 -65 -49 -113.5t-119 -48.5zM272 -35q-70 0 -116.5 46.5t-46.5 113.5q0 65 48.5 113.5t118.5 48.5t117 -46.5t47 -113.5q0 -65 -49 -113.5t-119 -48.5z" />
    <glyph glyph-name="semicolon" unicode=";" horiz-adv-x="548" 
d="M272 528q-69 0 -116 47t-47 113q0 65 48.5 113.5t118.5 48.5t117 -46.5t47 -113.5q0 -65 -49 -113.5t-119 -48.5zM82 -326l-12 25q112 57 175 140t70 151l-8 4q-25 -14 -59 -14q-57 0 -99.5 40.5t-42.5 106.5q0 65 44.5 112.5t111.5 47.5q83 0 132.5 -57t49.5 -148
q0 -134 -96 -244.5t-266 -163.5z" />
    <glyph glyph-name="less" unicode="&#x3c;" horiz-adv-x="1136" 
d="M172 643v49l795 436v-61l-731 -399l731 -396v-63z" />
    <glyph glyph-name="equal" unicode="=" horiz-adv-x="1138" 
d="M121 442v45h897v-45h-897zM121 848v45h897v-45h-897z" />
    <glyph glyph-name="greater" unicode="&#x3e;" horiz-adv-x="1136" 
d="M965 645l-795 -436v61l733 400l-733 395v63l795 -434v-49z" />
    <glyph glyph-name="question" unicode="?" horiz-adv-x="1042" 
d="M426 416v307q162 54 221.5 147t59.5 250q0 326 -258 326q-75 0 -138.5 -30.5t-91.5 -78.5q69 -20 105 -66t36 -106q0 -68 -44 -119t-119 -51t-124.5 52.5t-49.5 128.5q0 137 133 222t333 85q239 0 373.5 -103.5t134.5 -265.5q0 -316 -516 -422v-276h-55zM455 -35
q-70 0 -117 46.5t-47 113.5q0 65 48.5 113.5t117.5 48.5q70 0 117 -46.5t47 -113.5q0 -65 -48.5 -113.5t-117.5 -48.5z" />
    <glyph glyph-name="at" unicode="@" horiz-adv-x="1861" 
d="M961 -299q-240 0 -430 102.5t-298 293t-108 438.5q0 185 65 346t179.5 275t277.5 179.5t352 65.5q201 0 370 -88.5t268.5 -248t99.5 -355.5q0 -113 -29 -210.5t-77.5 -166t-112 -117.5t-131.5 -72.5t-136 -23.5q-91 0 -145 20t-76 51.5t-33 85.5l-8 5
q-62 -73 -121.5 -108.5t-134.5 -35.5q-116 0 -183 80t-67 215q0 133 68 261t180 209t232 81q77 0 119.5 -28t70.5 -81h6l27 91l231 16l-104 -291l-84 -293q-34 -107 -14.5 -167t90.5 -60q62 0 129 38t125 104.5t95.5 170.5t37.5 224q0 181 -91 331t-252.5 237t-359.5 87
q-178 0 -332 -64.5t-260 -174.5t-166.5 -260t-60.5 -318q0 -171 56 -318.5t158 -254.5t253.5 -168.5t333.5 -61.5q156 0 275.5 42.5t234.5 125.5l22 -29q-119 -89 -247 -134.5t-295 -45.5zM844 236q38 0 71 22.5t72 73.5l146 483q-37 109 -123 109q-74 0 -144 -84
t-110.5 -203t-40.5 -225q0 -86 34 -131t95 -45z" />
    <glyph glyph-name="A" unicode="A" 
d="M948 188l-127 355h-471l-69 -189q-63 -166 -33.5 -235.5t172.5 -89.5v-29h-483v29q100 26 165.5 100.5t128.5 232.5l424 1098h140l462 -1257q24 -64 46.5 -94.5t64 -49t119.5 -30.5v-29h-733v29q145 6 184.5 40.5t9.5 118.5zM367 584h440l-209 592h-10z" />
    <glyph glyph-name="B" unicode="B" horiz-adv-x="1452" 
d="M63 0v29q124 4 168.5 30t44.5 86v1137q0 61 -45 88t-168 31v26h687q129 0 229 -20t162 -52t101.5 -77.5t55 -92t15.5 -100.5q0 -125 -106 -215t-328 -112v-6q239 -9 363 -103.5t124 -247.5q0 -64 -18 -120.5t-61.5 -109t-110 -89.5t-171 -59.5t-237.5 -22.5h-705z
M575 770h148q160 0 222.5 77.5t62.5 231.5q0 72 -12 124t-42.5 97t-89.5 68t-147 23h-142v-621zM575 39h173q96 0 158.5 23.5t94.5 73.5t44 111.5t12 153.5q0 71 -16.5 128.5t-53.5 104.5t-103 73t-157 26h-152v-694z" />
    <glyph glyph-name="C" unicode="C" horiz-adv-x="1476" 
d="M791 -35q-328 0 -518.5 194.5t-190.5 530.5q0 172 61 318.5t165.5 245t243.5 153.5t294 55q212 0 379 -92l92 103h24v-531h-30q-53 120 -102 203.5t-108.5 149t-130 97t-155.5 31.5q-180 0 -290.5 -181.5t-110.5 -516.5q0 -168 38 -299.5t104 -213t150.5 -123.5
t182.5 -42q322 0 473 332l37 -19q-28 -64 -64 -118.5t-89.5 -107t-117 -89t-150.5 -58.5t-187 -22z" />
    <glyph glyph-name="D" unicode="D" horiz-adv-x="1597" 
d="M63 0v29q124 4 168.5 30t44.5 86v1137q0 61 -45 88t-168 31v26h670q191 0 340.5 -51t244.5 -143t144 -217t49 -277q0 -118 -26 -224t-84 -201t-143 -164t-211.5 -109.5t-280.5 -40.5h-703zM575 39h127q137 0 226.5 32t148.5 111.5t84 208.5t25 328q0 157 -20 272t-58 192
t-99 123t-135.5 65.5t-175.5 19.5h-123v-1352z" />
    <glyph glyph-name="E" unicode="E" horiz-adv-x="1464" 
d="M63 0v29q124 4 168.5 30t44.5 86v1137q0 61 -45 88t-168 31v26h1223l6 -487l-30 -2q-41 90 -68 144.5t-62 112.5t-66.5 89.5t-74 58.5t-91.5 37.5t-112 10.5h-213v-631h87q126 0 199.5 62.5t113.5 215.5h26v-598h-26q-40 155 -113.5 219t-199.5 64h-87v-684h203
q90 0 157 17t118 49t97 93.5t83 133t86 186.5l31 -4l-11 -514h-1276z" />
    <glyph glyph-name="F" unicode="F" horiz-adv-x="1372" 
d="M63 0v29q124 4 168.5 30t44.5 86v1137q0 61 -45 88t-168 31v26h1219l14 -493l-30 -4q-47 106 -82.5 174t-79 128t-90 92t-106 49.5t-136.5 17.5h-197v-652h87q126 0 197.5 61t111.5 214h26v-594h-26q-40 155 -111.5 217.5t-197.5 62.5h-87v-555q0 -43 15.5 -66t63 -37
t139.5 -17v-25h-730z" />
    <glyph glyph-name="G" unicode="G" horiz-adv-x="1554" 
d="M825 -35q-156 0 -290.5 50t-234.5 143.5t-157 235.5t-57 317q0 221 103.5 394t275.5 265t379 92q216 0 379 -92l100 103h23v-498h-29q-105 225 -221 336.5t-269 111.5q-84 0 -156.5 -42t-130 -125t-91 -222t-33.5 -319t34.5 -319.5t94.5 -223t136 -126t163 -42.5
q157 0 241 72v432q0 61 -48.5 92t-172.5 35v27h664v-27q-92 -6 -124 -31.5t-32 -93.5v-404q-105 -62 -248.5 -101.5t-298.5 -39.5z" />
    <glyph glyph-name="H" unicode="H" horiz-adv-x="1726" 
d="M63 0v29q125 4 169 29.5t44 86.5v1139q0 60 -44.5 86.5t-168.5 30.5v26h709v-26q-111 -5 -154 -30.5t-43 -86.5v-522h578v522q0 61 -44 86.5t-155 30.5v26h711v-26q-125 -4 -169 -30t-44 -87v-1139q0 -62 43.5 -87t169.5 -29v-29h-711v29q112 5 155.5 29.5t43.5 86.5v576
h-578v-576q0 -62 42.5 -86.5t154.5 -29.5v-29h-709z" />
    <glyph glyph-name="I" unicode="I" horiz-adv-x="890" 
d="M78 0v29q129 4 174 29.5t45 86.5v1137q0 61 -45 88t-174 31v26h735v-26q-129 -4 -174 -31t-45 -88v-1137q0 -61 45 -86.5t174 -29.5v-29h-735z" />
    <glyph glyph-name="J" unicode="J" horiz-adv-x="1196" 
d="M481 -35q-213 0 -324.5 83.5t-111.5 213.5q0 84 52 140.5t128 56.5q74 0 124 -48.5t50 -121.5q0 -79 -51.5 -134t-140.5 -59q35 -35 90.5 -58.5t116.5 -23.5q129 0 185 95t56 305v868q0 61 -48 88t-171 31v26h725v-26q-119 -4 -162 -31t-43 -88v-823q0 -246 -120 -370
t-355 -124z" />
    <glyph glyph-name="K" unicode="K" horiz-adv-x="1560" 
d="M561 641l459 489q48 51 72 95t23 81t-38 62t-110 33v26h561v-26q-130 -26 -242 -102t-272 -242l-144 -150l453 -647q35 -50 51.5 -72.5t42.5 -54t42 -44t41 -28t50.5 -22t59.5 -10.5v-29h-682v29q109 9 126.5 48t-44.5 128l-338 493l-111 -116v-437q0 -62 42 -86.5
t151 -29.5v-29h-705v29q125 4 169 29.5t44 86.5v1139q0 60 -44.5 86.5t-168.5 30.5v26h709v-24q-111 -6 -154 -32t-43 -87v-643z" />
    <glyph glyph-name="L" unicode="L" horiz-adv-x="1347" 
d="M49 0v29q124 4 168.5 30t44.5 86v1137q0 61 -45 88t-168 31v26h719v-26q-128 -4 -167.5 -29.5t-39.5 -89.5v-1243h121q91 0 157 15t121.5 46t103.5 90.5t91 137t96 196.5l31 -2l-18 -522h-1215z" />
    <glyph glyph-name="M" unicode="M" horiz-adv-x="2041" 
d="M61 0v29q143 18 197.5 89.5t54.5 229.5v832q0 98 -63 158t-189 63v26h578l422 -1052h10l387 1052h522v-26q-125 -4 -169 -31t-44 -88v-1137q0 -61 44 -86.5t169 -29.5v-29h-706v29q110 5 153 30t43 86v1143h-10l-477 -1290h-74l-532 1290h-12v-940q0 -158 57 -228.5
t209 -90.5v-29h-570z" />
    <glyph glyph-name="N" unicode="N" horiz-adv-x="1656" 
d="M1288 -23l-921 1192h-2v-821q0 -158 60 -230t214 -89v-29h-578v29q143 18 197.5 89.5t54.5 229.5v815q0 100 -63 166t-189 72v26h484l788 -1026h2v680q0 154 -64 227.5t-218 92.5v26h581v-26q-142 -21 -195 -92.5t-53 -227.5v-1104h-98z" />
    <glyph glyph-name="O" unicode="O" horiz-adv-x="1587" 
d="M793 -35q-151 0 -281.5 53t-224.5 148.5t-147.5 236t-53.5 308.5q0 166 55 307.5t150 238.5t225 151t277 54q152 0 283 -52.5t225.5 -147.5t148 -235t53.5 -308t-55 -310t-150.5 -239t-226 -151t-278.5 -54zM803 4q188 0 278 167.5t90 543.5q0 370 -98 539t-289 169
q-188 0 -278 -167t-90 -541q0 -372 98 -541.5t289 -169.5z" />
    <glyph glyph-name="P" unicode="P" horiz-adv-x="1388" 
d="M63 0v29q124 4 168.5 30t44.5 86v1137q0 61 -45 88t-168 31v26h639q173 0 295.5 -29t192 -84.5t100.5 -126t31 -161.5q0 -68 -20 -127t-66.5 -112t-117 -90t-178.5 -59t-245 -22h-119v-471q0 -44 16 -67t65 -36.5t145 -16.5v-25h-738zM575 653h109q96 0 160 23t99.5 72.5
t50 115.5t14.5 164q0 85 -15 148t-50.5 113t-98.5 76t-154 26h-115v-738z" />
    <glyph glyph-name="Q" unicode="Q" horiz-adv-x="1587" 
d="M803 10q125 0 205 70t121.5 227t41.5 410q0 250 -46.5 409t-130.5 228t-210 69q-125 0 -205 -70t-121.5 -227t-41.5 -409q0 -251 46.5 -409.5t130.5 -228t210 -69.5zM889 -23q57 -21 113.5 -64.5t99.5 -89.5t84 -89t84 -71t84 -28q59 0 59 54q0 16 -13 32.5t-31.5 32.5
t-36.5 33t-31 40.5t-13 49.5q0 55 37 94t96 39q62 0 103 -46.5t41 -113.5q0 -124 -111.5 -211.5t-273.5 -87.5q-66 0 -127 22.5t-103.5 56.5t-86.5 74t-79 74t-78 56.5t-85 22.5q-72 0 -137 -36t-148 -116l-25 23q171 202 355 256q-261 41 -420.5 235t-159.5 494
q0 167 55 308.5t150 237.5t225 149.5t277 53.5q152 0 283 -52t225.5 -146.5t148 -234.5t53.5 -308q0 -154 -46.5 -286.5t-129 -227t-195 -154.5t-243.5 -76z" />
    <glyph glyph-name="R" unicode="R" horiz-adv-x="1505" 
d="M575 739h140q96 0 156.5 17.5t95 59t47 99t12.5 148.5q0 163 -75.5 245.5t-258.5 82.5h-117v-652zM575 705v-560q0 -61 45 -86t158 -30v-29h-715v29q124 4 168.5 30t44.5 86v1137q0 61 -45 88t-168 31v26h699q155 0 269 -27t180 -76t97 -109.5t31 -133.5
q0 -140 -101.5 -230t-332.5 -122v-6q110 -4 186.5 -29t121 -71.5t67 -102t33.5 -133.5l12 -158q10 -66 21 -100.5t36.5 -57.5t61.5 -29.5t104 -8.5v-25q-114 -18 -217 -18q-64 0 -111 6.5t-81 21.5t-55.5 34.5t-35.5 50.5t-21 64.5t-11 82.5l-17 178q-8 82 -24 131.5t-51 84
t-90.5 48t-143.5 13.5h-115z" />
    <glyph glyph-name="S" unicode="S" horiz-adv-x="1204" 
d="M104 -35v518h33q223 -471 506 -471q133 0 208 74t75 178q0 119 -86.5 191t-282.5 137q-57 19 -92.5 32t-86.5 35.5t-82.5 43.5t-67.5 53t-56 67t-33.5 82.5t-13.5 102.5q0 201 136 323.5t353 122.5q176 0 314 -78l90 90h24v-462h-32q-102 212 -204.5 311.5t-221.5 99.5
q-103 0 -177.5 -63.5t-74.5 -173.5q0 -114 87 -182.5t279 -129.5q70 -22 119.5 -41t108.5 -54t95.5 -75.5t61.5 -103t25 -139.5q0 -93 -29 -176t-86.5 -152.5t-155.5 -110.5t-225 -41q-86 0 -187 26.5t-175 68.5l-121 -103h-25z" />
    <glyph glyph-name="T" unicode="T" horiz-adv-x="1486" 
d="M358 0v29q133 3 185.5 29.5t52.5 86.5v1246h-51q-113 0 -212.5 -106.5t-213.5 -330.5l-31 4l12 469h1289l10 -469l-31 -4q-114 223 -212.5 330t-211.5 107h-49v-1246q0 -60 52 -86.5t186 -29.5v-29h-775z" />
    <glyph glyph-name="U" unicode="U" horiz-adv-x="1654" 
d="M844 -35q-588 0 -588 484v833q0 61 -45 88t-168 31v26h709v-26q-109 -5 -153 -31.5t-44 -87.5v-844q0 -403 393 -403q76 0 143.5 23.5t112.5 68.5q117 117 117 340v614q0 153 -64.5 227t-218.5 93v26h584v-26q-142 -21 -195 -92.5t-53 -227.5v-620q0 -236 -129.5 -366
t-400.5 -130z" />
    <glyph glyph-name="V" unicode="V" horiz-adv-x="1466" 
d="M694 -27l-479 1225q-43 109 -87.5 149t-154.5 54v26h729v-26q-141 -6 -178 -43.5t-4 -126.5l354 -928h11l313 825q49 126 14.5 188t-172.5 85v26h486v-26q-109 -22 -168.5 -89t-128.5 -245l-426 -1094h-109z" />
    <glyph glyph-name="W" unicode="W" horiz-adv-x="2142" 
d="M1071 1042l-55 156q-37 113 -79.5 155t-137.5 48v26h676v-26q-123 -6 -157 -43t-3 -127l287 -877h12l239 770q42 132 9 193t-158 84v26h477v-26q-116 -22 -175 -90t-118 -244l-346 -1094h-104l-344 1004l-355 -1004h-108l-408 1225q-25 74 -49 111.5t-66.5 59.5
t-117.5 32v26h682v-26q-116 -6 -145.5 -44t-2.5 -126l281 -883h12z" />
    <glyph glyph-name="X" unicode="X" horiz-adv-x="1478" 
d="M825 842l217 299q81 107 58.5 177.5t-150.5 82.5v26h520v-26q-117 -17 -199.5 -83.5t-209.5 -236.5l-205 -274l397 -608q29 -45 48.5 -68t50 -46t72 -35t104.5 -21v-29h-729v29q130 6 158 44.5t-27 123.5l-266 428l-240 -338q-81 -112 -59 -179t147 -79v-29h-526v29
q127 15 208.5 77t211.5 240l229 316l-367 565q-32 48 -52.5 73t-51.5 47t-70 33t-102 21v26h723v-26q-124 -6 -153 -48t24 -124z" />
    <glyph glyph-name="Y" unicode="Y" horiz-adv-x="1415" 
d="M831 672l265 471q68 121 47.5 175t-148.5 83v26h473v-26q-72 -13 -123.5 -42t-106 -92.5t-118.5 -176.5l-260 -459v-486q0 -61 45 -86.5t174 -29.5v-29h-735v29q128 4 173.5 30t45.5 86v443l-360 645q-46 80 -94 114.5t-140 53.5v26h723v-26q-100 -6 -144.5 -27t-44 -58
t31.5 -91z" />
    <glyph glyph-name="Z" unicode="Z" horiz-adv-x="1366" 
d="M66 0l-3 27l883 1359h-346q-113 0 -215.5 -102.5t-234.5 -337.5l-33 4l30 477h1143l2 -26l-882 -1360h401q59 0 111.5 27.5t108 90.5t107 142t124.5 207l30 -4l-22 -504h-1204z" />
    <glyph glyph-name="bracketleft" unicode="[" horiz-adv-x="759" 
d="M195 -338v1903h612v-41h-369v-1821h369v-41h-612z" />
    <glyph glyph-name="backslash" unicode="\" horiz-adv-x="935" 
d="M856 -440l-426 983l-434 985h61l426 -985l435 -983h-62z" />
    <glyph glyph-name="bracketright" unicode="]" horiz-adv-x="759" 
d="M-47 -338v41h369v1821h-369v41h612v-1903h-612z" />
    <glyph glyph-name="asciicircum" unicode="^" horiz-adv-x="735" 
d="M39 1059l313 508h35l307 -508h-49l-276 266l-281 -266h-49z" />
    <glyph glyph-name="underscore" unicode="_" horiz-adv-x="901" 
d="M-4 0v63h909v-63h-909z" />
    <glyph glyph-name="grave" unicode="`" horiz-adv-x="487" 
d="M342 1077l-168 174q-75 78 -101 114.5t-26 68.5q0 46 34.5 77t84.5 31q54 0 82 -44.5t57 -164.5l72 -256h-35z" />
    <glyph glyph-name="a" unicode="a" horiz-adv-x="1046" 
d="M348 -10q-137 0 -209.5 71t-72.5 168q0 64 33.5 121.5t95.5 91.5q64 35 160 54t180.5 27.5t107.5 17.5v166q0 110 -35 160.5t-116 50.5q-94 0 -150 -46q55 -55 55 -118q0 -64 -36.5 -102t-104.5 -38q-59 0 -99 40t-40 98q0 95 106 149.5t312 54.5q191 0 285.5 -76.5
t94.5 -242.5v-457q0 -77 33.5 -97t116.5 13l12 -22q-65 -42 -113.5 -62t-105.5 -20q-95 0 -141 37.5t-58 117.5h-8q-142 -157 -303 -157zM496 102q41 0 82 26.5t65 64.5v307q-172 -27 -230.5 -76.5t-58.5 -161.5q0 -73 37 -116.5t105 -43.5z" />
    <glyph glyph-name="b" unicode="b" horiz-adv-x="1150" 
d="M129 -39l4 195v1167q0 54 -29 76.5t-124 23.5v25l426 20v-632q130 127 307 127q119 0 205 -62.5t127.5 -165t41.5 -231.5q0 -149 -54 -266.5t-157.5 -185.5t-240.5 -68q-200 0 -336 90l-133 -113h-37zM592 23q103 0 154 127t51 344q0 170 -59.5 276.5t-162.5 106.5
q-47 0 -84 -18t-85 -58v-635q32 -70 80 -106.5t106 -36.5z" />
    <glyph glyph-name="c" unicode="c" horiz-adv-x="987" 
d="M539 -16q-221 0 -350.5 128t-129.5 345q0 154 67 270t181.5 176t259.5 60q186 0 282.5 -70t96.5 -158q0 -67 -37.5 -108t-105.5 -41q-72 0 -112 40.5t-40 100.5q0 45 22 79.5t52 49.5q-47 70 -150 70t-164 -120t-61 -321q0 -84 17.5 -157.5t52 -132.5t92 -93t131.5 -34
q168 0 293 163l22 -14q-72 -113 -173 -173t-246 -60z" />
    <glyph glyph-name="d" unicode="d" horiz-adv-x="1157" 
d="M469 -16q-190 0 -300 131.5t-110 341.5q0 102 33 193.5t93 161t151 110.5t201 41q108 0 200 -39v399q0 54 -29.5 76.5t-123.5 23.5v25l426 20v-1355q0 -46 29.5 -70.5t111.5 -24.5v-18l-410 -8v119q-114 -127 -272 -127zM590 84q49 0 80.5 15t66.5 46v680q-67 99 -178 99
q-97 0 -154 -122.5t-57 -322.5q0 -170 63.5 -282.5t178.5 -112.5z" />
    <glyph glyph-name="e" unicode="e" horiz-adv-x="1019" 
d="M545 -16q-220 0 -353 127.5t-133 349.5q0 113 38.5 208.5t104.5 159t154 99t187 35.5q210 0 321.5 -126t100.5 -329h-617v-39v-2q0 -190 79 -293.5t230 -103.5q89 0 155 41.5t128 126.5l23 -15q-72 -115 -172.5 -177t-245.5 -62zM530 924q-167 0 -180 -379h336
q19 178 -21 278.5t-135 100.5z" />
    <glyph glyph-name="f" unicode="f" horiz-adv-x="731" 
d="M61 0v25q88 1 115 16t27 59v768h-176v33l176 39v82q0 241 110 354q102 105 312 105q148 0 224.5 -50t76.5 -131q0 -64 -35 -102.5t-100 -38.5q-64 0 -105 36.5t-41 109.5q0 25 13.5 60.5t29.5 55.5q-28 21 -72 21q-53 0 -86 -33q-55 -55 -55 -268v-205h258v-66h-258v-770
q0 -43 38.5 -57.5t154.5 -17.5v-25h-607z" />
    <glyph glyph-name="g" unicode="g" horiz-adv-x="980" 
d="M514 -375q133 0 217 57t84 152q0 61 -55 94t-185 33h-260q-106 -54 -106 -145q0 -191 305 -191zM504 360q78 0 108.5 65.5t30.5 215.5q0 281 -158 281q-80 0 -109.5 -64t-29.5 -217q0 -147 37.5 -214t120.5 -67zM496 956q111 0 190 -32q37 84 94.5 136t130.5 52
q60 0 92.5 -32t32.5 -83q0 -42 -26.5 -71t-71.5 -29q-41 0 -72.5 32.5t-31.5 84.5q-31 -10 -61.5 -39t-51.5 -66q87 -38 136.5 -105t49.5 -159q0 -146 -118 -233.5t-293 -87.5q-74 0 -134 14q-62 -20 -88 -42t-26 -54q0 -33 41 -49.5t141 -16.5h205q354 0 354 -248
q0 -139 -145 -238.5t-383 -99.5q-191 0 -311.5 55t-120.5 144q0 141 231 174v6q-89 28 -130.5 79t-41.5 114q0 54 57.5 108t159.5 82q-104 35 -163.5 107t-59.5 178q0 144 118 231.5t296 87.5z" />
    <glyph glyph-name="h" unicode="h" horiz-adv-x="1198" 
d="M25 0v25q85 1 113 16.5t28 58.5v1223q0 54 -30 76.5t-124 23.5v25l426 20v-723q66 99 160 155t193 56q258 0 258 -294v-562q0 -44 26.5 -59t114.5 -16v-25h-524v25q61 2 85.5 17.5t24.5 57.5v541q0 195 -149 195q-104 0 -189 -136v-600q0 -42 24 -57.5t85 -17.5v-25h-522
z" />
    <glyph glyph-name="i" unicode="i" horiz-adv-x="636" 
d="M326 1108q-73 0 -117.5 42t-44.5 116t45 120t117 46t115.5 -44t43.5 -116q0 -75 -43.5 -119.5t-115.5 -44.5zM47 0v25q88 1 118 16.5t30 58.5v705q0 49 -32.5 75t-115.5 27v25l420 18v-850q0 -44 27 -59t116 -16v-25h-563z" />
    <glyph glyph-name="j" unicode="j" horiz-adv-x="622" 
d="M326 1108q-73 0 -117.5 42t-44.5 116t45 120t117 46t115.5 -44t43.5 -116q0 -75 -43.5 -119.5t-115.5 -44.5zM70 -410q-135 0 -210 49t-75 123q0 64 38.5 103t100.5 39q61 0 100 -39t39 -98q0 -43 -12 -69.5t-43 -51.5q34 -17 60 -17q131 0 131 226v950q0 52 -36 76.5
t-130 25.5v25l434 18v-911q0 -139 -24 -216.5t-85 -139.5q-44 -42 -123 -67.5t-165 -25.5z" />
    <glyph glyph-name="k" unicode="k" horiz-adv-x="1140" 
d="M438 383v-283q0 -42 23 -57.5t80 -17.5v-25h-516v25q85 1 113 16.5t28 58.5v1223q0 54 -30 76.5t-124 23.5v25l426 20v-1036l277 295q69 77 51.5 123.5t-117.5 71.5v24h455v-24q-97 -21 -175 -71t-179 -151l-70 -65l321 -475q57 -83 90 -105t105 -30v-25h-537v25
q71 4 83.5 28.5t-25.5 81.5l-207 322z" />
    <glyph glyph-name="l" unicode="l" horiz-adv-x="618" 
d="M37 0v25q85 1 112 16.5t27 58.5v1223q0 54 -29.5 76.5t-123.5 23.5v25l426 20v-1368q0 -44 26.5 -59t114.5 -16v-25h-553z" />
    <glyph glyph-name="m" unicode="m" horiz-adv-x="1792" 
d="M672 0v25q63 1 83.5 16.5t20.5 58.5v541q0 195 -147 195q-51 0 -89 -33t-83 -103v-600q0 -44 19 -59t79 -16v-25h-514v25q88 1 115.5 16.5t27.5 58.5v705q0 50 -29.5 75.5t-113.5 26.5v25l412 18v-205q142 211 340 211q214 0 249 -213q64 97 156 155t186 58
q258 0 258 -294v-562q0 -44 27 -59t115 -16v-25h-514v25q61 1 80.5 16.5t19.5 58.5v541q0 195 -141 195q-41 0 -90 -36t-92 -100q2 -14 2 -32v-568q0 -43 22 -58.5t86 -16.5v-25h-485z" />
    <glyph glyph-name="n" unicode="n" horiz-adv-x="1212" 
d="M41 0v25q88 1 115.5 16.5t27.5 58.5v705q0 50 -29.5 75.5t-113.5 26.5v25l412 18v-205q66 98 160 154.5t194 56.5q256 0 256 -294v-562q0 -44 26.5 -59t114.5 -16v-25h-526v25q63 2 88 17.5t25 57.5v543q0 193 -146 193q-100 0 -188 -136v-600q0 -42 23.5 -57.5
t84.5 -17.5v-25h-524z" />
    <glyph glyph-name="o" unicode="o" horiz-adv-x="1107" 
d="M555 -16q-228 0 -362 131t-134 356q0 222 138 357t358 135q225 0 359.5 -130.5t134.5 -353.5q0 -224 -137.5 -359.5t-356.5 -135.5zM563 23q104 0 149.5 112t45.5 340q0 449 -213 449q-105 0 -149 -109.5t-44 -339.5q0 -225 51 -338.5t160 -113.5z" />
    <glyph glyph-name="p" unicode="p" horiz-adv-x="1161" 
d="M10 -389v24q86 1 114 17.5t28 58.5v1094q0 50 -30 75.5t-114 26.5v25l412 18v-127q74 68 146.5 104t156.5 36q179 0 279 -130.5t100 -349.5q0 -140 -50.5 -252t-151 -179.5t-236.5 -67.5q-129 0 -240 49v-322q0 -42 37.5 -57.5t152.5 -18.5v-24h-604zM614 23
q95 0 146 113.5t51 336.5q0 112 -21 198t-70.5 140.5t-123.5 54.5q-85 0 -172 -75v-633q58 -135 190 -135z" />
    <glyph glyph-name="q" unicode="q" horiz-adv-x="1150" 
d="M555 -389v24q113 3 151.5 18.5t38.5 53.5v399q-139 -122 -303 -122q-121 0 -208.5 63t-129 165t-41.5 230q0 147 55 264.5t160 187t242 69.5q192 0 330 -93l135 115h37l-4 -194v-1084q0 -39 27.5 -55t111.5 -17v-24h-602zM578 74q45 0 82 16t85 53v637q-66 144 -182 144
q-104 0 -156.5 -128.5t-52.5 -342.5q0 -166 59.5 -272.5t164.5 -106.5z" />
    <glyph glyph-name="r" unicode="r" horiz-adv-x="921" 
d="M41 0v25q88 1 115.5 16.5t27.5 58.5v705q0 50 -29.5 75.5t-113.5 26.5v25l412 18v-196q51 97 125 150.5t157 53.5q87 0 135 -47.5t48 -122.5q0 -70 -41 -113.5t-105 -43.5q-70 0 -113 41.5t-43 101.5q0 35 15 82q-45 -6 -91 -44.5t-83 -100.5v-611q0 -43 35 -57.5
t147 -17.5v-25h-598z" />
    <glyph glyph-name="s" unicode="s" horiz-adv-x="894" 
d="M74 -16v352h28q103 -168 188 -240.5t191 -72.5q77 0 120.5 41t43.5 106q0 71 -54.5 112.5t-211.5 86.5q-167 47 -236 107.5t-69 172.5q0 142 101.5 228t270.5 86q152 0 256 -70l58 70h24v-316h-28q-49 77 -83 123.5t-73 84.5t-78.5 53.5t-87.5 15.5q-69 0 -111 -42
t-42 -112q0 -59 56 -95t171 -67q173 -42 253.5 -109.5t80.5 -189.5q0 -141 -104.5 -233t-276.5 -92q-58 0 -157.5 24.5t-141.5 50.5l-64 -75h-24z" />
    <glyph glyph-name="t" unicode="t" horiz-adv-x="768" 
d="M473 -18q-132 0 -207.5 69t-75.5 217v600h-182v33l187 39v260l268 82v-346h289v-66h-289v-620q0 -91 27 -130.5t92 -39.5q96 0 161 133l25 -12q-45 -113 -115 -166t-180 -53z" />
    <glyph glyph-name="u" unicode="u" horiz-adv-x="1191" 
d="M438 -16q-131 0 -204.5 76t-73.5 223v534q0 50 -30 75t-112 26v24l414 8v-643q0 -196 150 -196q101 0 182 129v577q0 49 -31 73.5t-112 27.5v24l415 8v-848q0 -43 28 -58.5t114 -18.5v-25h-410v195q-132 -211 -330 -211z" />
    <glyph glyph-name="v" unicode="v" horiz-adv-x="1052" 
d="M455 -14l-316 800q-29 71 -64 98t-108 38v24h559v-24q-67 -6 -93.5 -20t-26.5 -46q0 -22 10 -45l215 -590h8l192 492q25 64 25 98q0 47 -36.5 73.5t-114.5 37.5v24h393v-24q-131 -13 -191 -156l-315 -780h-137z" />
    <glyph glyph-name="w" unicode="w" horiz-adv-x="1603" 
d="M805 664l-43 122q-26 72 -58 98.5t-98 37.5v24h539v-24q-64 -6 -91.5 -22t-27.5 -48q0 -19 6 -43l187 -576h8l151 465q25 79 25 117q0 47 -33 71.5t-106 35.5v24h389v-24q-68 -6 -121 -45.5t-78 -110.5l-266 -780h-146l-217 618l-241 -618h-142l-303 800
q-28 70 -62.5 97.5t-107.5 38.5v24h549v-24q-62 -6 -89.5 -22t-27.5 -46q0 -16 11 -45l209 -582h8z" />
    <glyph glyph-name="x" unicode="x" horiz-adv-x="1060" 
d="M608 573l127 160q69 90 54 130.5t-117 58.5v24h397v-24q-82 -15 -136.5 -52t-127.5 -125l-168 -200l260 -369q59 -81 94.5 -109.5t104.5 -41.5v-25h-541v25q89 10 102.5 36.5t-26.5 81.5l-172 258l-156 -194q-47 -60 -52 -97t27 -56t105 -29v-25h-403v25
q80 15 132.5 49.5t118.5 113.5l201 242l-246 346q-64 87 -97 112t-103 34v24h540v-24q-81 -10 -96 -35.5t23 -79.5z" />
    <glyph glyph-name="y" unicode="y" horiz-adv-x="1034" 
d="M526 -39l-389 825q-34 74 -67.5 100t-108.5 36v24h563v-24q-86 -7 -108.5 -32t2.5 -79l235 -549l178 451q41 104 14 149t-140 60v24h395v-24q-134 -13 -191 -156l-358 -860q-71 -173 -151 -244.5t-175 -71.5q-88 0 -138 42.5t-50 115.5q0 55 37 96t98 41q54 0 91.5 -38
t37.5 -95q0 -72 -51 -119q77 8 140 74.5t124 224.5z" />
    <glyph glyph-name="z" unicode="z" horiz-adv-x="999" 
d="M57 0l-4 31l606 874h-188q-62 0 -110 -25t-104.5 -93.5t-127.5 -194.5l-33 4l27 350h829l4 -28l-608 -877h207q96 0 166.5 69t183.5 265l35 -4l-27 -371h-856z" />
    <glyph glyph-name="braceleft" unicode="{" horiz-adv-x="827" 
d="M879 -326q-263 0 -400 97.5t-137 287.5q0 55 19.5 160.5t19.5 136.5q0 65 -12.5 106.5t-47 76t-100.5 52.5t-170 25v33q105 7 170 24.5t100.5 50t47.5 73t12 104.5q0 31 -19.5 132t-19.5 155q0 187 134.5 277.5t402.5 99.5v-27q-48 -4 -86 -12t-66 -23t-48 -30.5
t-33 -40.5t-21 -46.5t-11.5 -56t-4.5 -61.5t-1 -70q0 -26 6.5 -105t6.5 -128q0 -107 -39 -170t-134.5 -101t-269.5 -57v-10q247 -21 345 -98t98 -236q0 -49 -6.5 -133.5t-6.5 -110.5q0 -49 1.5 -79.5t7 -69.5t16.5 -63t30.5 -50.5t48 -41.5t70.5 -26.5t97 -15.5v-29z" />
    <glyph glyph-name="bar" unicode="|" horiz-adv-x="626" 
d="M287 -440v1968h53v-1968h-53z" />
    <glyph glyph-name="braceright" unicode="}" horiz-adv-x="827" 
d="M-51 -326v29q43 3 78 10.5t61 17.5t46.5 27t34 33t23.5 40.5t15 45.5t8 53t3.5 56.5t0.5 62.5q0 26 -6 110.5t-6 133.5q0 159 97.5 236t344.5 98v10q-173 19 -268.5 57t-134.5 101t-39 170q0 49 6 128t6 105q0 38 -0.5 62.5t-3.5 56t-8 51.5t-15 44.5t-23.5 39.5
t-34 31.5t-46.5 26t-61 17.5t-78 11v27q268 -9 402 -99.5t134 -277.5q0 -54 -19.5 -155t-19.5 -132q0 -64 12.5 -104.5t48 -73t101 -50t170.5 -24.5v-33q-104 -7 -170 -25t-101.5 -52.5t-48 -76t-12.5 -106.5q0 -31 19.5 -136.5t19.5 -160.5q0 -190 -136.5 -287.5
t-399.5 -97.5z" />
    <glyph glyph-name="asciitilde" unicode="~" horiz-adv-x="823" 
d="M82 557q13 150 61.5 219.5t139.5 69.5q45 0 110 -29t124.5 -57.5t90.5 -28.5q36 0 58.5 27t42.5 96h34q-13 -151 -61 -220t-139 -69q-45 0 -110.5 28.5t-125 57.5t-90.5 29q-36 0 -58 -26t-42 -97h-35z" />
    <glyph glyph-name="uni00A0" unicode="&#xa0;" horiz-adv-x="391" 
 />
    <glyph glyph-name="exclamdown" unicode="&#xa1;" horiz-adv-x="585" 
d="M291 1163q-69 0 -116.5 47.5t-47.5 112.5q0 67 48 114.5t118 47.5t117 -46.5t47 -113.5q0 -65 -48.5 -113.5t-117.5 -48.5zM291 -35q-73 0 -114.5 51t-41.5 142q0 81 60.5 394.5t78.5 481.5h33q17 -171 77 -483.5t60 -392.5q0 -92 -39.5 -142.5t-113.5 -50.5z" />
    <glyph glyph-name="cent" unicode="&#xa2;" horiz-adv-x="1122" 
d="M602 -178v162q-222 7 -351.5 136.5t-129.5 340.5q0 213 136 350.5t345 149.5v141h53v-139q184 -3 288 -81t104 -167q0 -65 -37.5 -107.5t-100.5 -42.5q-72 0 -110.5 40.5t-38.5 101.5q0 44 22.5 79t53.5 50q-21 35 -69 62t-112 28v-852q30 -6 64 -6q172 0 309 178l23 -15
q-73 -112 -166 -175.5t-230 -69.5v-164h-53zM412 489q0 -327 190 -401v832q-190 -45 -190 -431z" />
    <glyph glyph-name="sterling" unicode="&#xa3;" horiz-adv-x="1255" 
d="M963 721l-2 -43h-295q16 -56 16 -111q0 -184 -201 -301q27 -4 89.5 -16.5t103 -19t105.5 -13t128 -6.5q121 0 180 44.5t80 168.5l33 -2q-2 -216 -84 -334.5t-239 -118.5q-94 0 -207 61t-230 175q-44 -119 -101.5 -177.5t-139.5 -58.5q-64 0 -98.5 35.5t-34.5 91.5
q0 79 77.5 132t198.5 53q31 0 78 -7q18 40 18 97q0 27 -5.5 56.5t-10.5 49t-20 54.5t-20.5 46t-27 53t-24.5 48h-221l2 43h198q-59 125 -59 235q0 199 144 317t378 118q164 0 278.5 -82.5t114.5 -206.5q0 -74 -42 -124t-111 -50q-77 0 -123.5 43t-46.5 123q0 57 33.5 100
t87.5 66q-79 92 -209 92q-98 0 -161 -65.5t-63 -199.5q0 -66 18.5 -126t54 -135t46.5 -105h314z" />
    <glyph glyph-name="yen" unicode="&#xa5;" horiz-adv-x="1417" 
d="M133 637v43h371l-273 491q-42 76 -89.5 110t-137.5 54v27h703v-27q-73 -4 -114.5 -17t-53.5 -36t-6 -50t28 -69l252 -485l201 364q33 61 47 104.5t13 73t-22.5 51t-52.5 35t-84 27.5v29h463v-27q-96 -19 -165.5 -83t-143.5 -205l-201 -367h375v-43h-397l-15 -27v-129h412
v-43h-412v-284q0 -39 14 -63.5t63 -42.5t139 -21v-27h-719v27q68 2 112.5 12t66 28t29 38t7.5 49v284h-410v43h410v129l-17 27h-393z" />
    <glyph glyph-name="brokenbar" unicode="&#xa6;" horiz-adv-x="626" 
d="M340 690h-53v838h53v-838zM287 397h53v-837h-53v837z" />
    <glyph glyph-name="section" unicode="&#xa7;" horiz-adv-x="1146" 
d="M117 483q0 102 71.5 181t198.5 112v4q-227 96 -227 269q0 157 123 249.5t313 92.5q100 0 187.5 -25t145.5 -77.5t58 -121.5q0 -63 -36.5 -104t-96.5 -41q-62 0 -98.5 39.5t-36.5 93.5q0 88 74 127q-23 28 -76 48t-123 20q-103 0 -166 -49t-63 -132q0 -31 13 -56.5t35 -46
t64 -42.5t86 -40t115 -44q98 -36 158.5 -64.5t108 -66t67.5 -82.5t20 -106q0 -205 -250 -297v-5q117 -53 164 -111.5t47 -154.5q0 -164 -118 -258t-322 -94q-123 0 -220.5 26.5t-157.5 83.5t-60 136q0 62 38 107.5t107 45.5q66 0 103.5 -41t37.5 -98q0 -90 -94 -139
q34 -37 104 -58.5t156 -21.5q115 0 176.5 55t61.5 133q0 74 -71.5 125.5t-260.5 118.5q-91 31 -148 56.5t-109 62t-75.5 83t-23.5 107.5zM729 344q62 26 95.5 65t33.5 83q0 70 -56.5 112t-207.5 98q-88 34 -156 56q-141 -43 -141 -154q0 -27 10 -49.5t33 -42.5t48 -35.5
t68 -33t78 -29.5t93 -31q74 -25 102 -39z" />
    <glyph glyph-name="dieresis" unicode="&#xa8;" horiz-adv-x="794" 
d="M606 1087q-65 0 -107 43.5t-42 108.5t42 109.5t107 44.5t107.5 -44.5t42.5 -109.5t-42.5 -108.5t-107.5 -43.5zM188 1087q-64 0 -106.5 43.5t-42.5 108.5t42.5 109.5t106.5 44.5q65 0 108.5 -44.5t43.5 -109.5t-43 -108.5t-109 -43.5z" />
    <glyph glyph-name="copyright" unicode="&#xa9;" horiz-adv-x="1708" 
d="M854 -70q-163 0 -308.5 60.5t-249.5 164.5t-165 250t-61 310q0 162 61 307t165 249t249.5 165t308.5 61t308.5 -61t249.5 -165t165 -249t61 -307q0 -164 -61 -310t-165 -250t-249.5 -164.5t-308.5 -60.5zM854 -35q156 0 294.5 59.5t236.5 160t155 239t57 291.5
q0 205 -96.5 376t-267.5 271t-379 100t-379 -100t-267.5 -271t-96.5 -376q0 -153 57 -291.5t155 -239t236.5 -160t294.5 -59.5zM860 305q-188 0 -293.5 104.5t-105.5 297.5q0 194 124.5 311t303.5 117q127 0 205 -56l47 60h24v-310h-30q-57 137 -121 206t-142 69
q-98 0 -155.5 -97t-57.5 -276q0 -177 71.5 -273t180.5 -96q173 0 252 187l33 -14q-19 -46 -46 -83.5t-66.5 -72.5t-97 -54.5t-126.5 -19.5z" />
    <glyph glyph-name="ordfeminine" unicode="&#xaa;" horiz-adv-x="917" 
d="M297 688q-106 0 -163.5 51t-57.5 131q0 54 25.5 98t72.5 70q49 26 123.5 39.5t141 20t83.5 12.5v137q0 77 -24 109.5t-86 32.5q-79 0 -121 -31q43 -37 43 -88q0 -50 -28.5 -78.5t-80.5 -28.5q-45 0 -76.5 31.5t-31.5 75.5q0 70 84 112.5t243 42.5q149 0 221 -57.5
t72 -183.5v-344q0 -115 115 -66l10 -20q-94 -64 -172 -64q-72 0 -107.5 28.5t-43.5 88.5h-9q-107 -119 -233 -119zM412 782q31 0 61.5 18t48.5 44v231q-128 -20 -172.5 -56.5t-44.5 -121.5q0 -55 28.5 -85t78.5 -30z" />
    <glyph glyph-name="guillemotleft" unicode="&#xab;" horiz-adv-x="1050" 
d="M940 55l-399 346q-31 25 -39 37t-8 23q0 8 2 13.5t12.5 17t32.5 30.5l399 346l25 -18l-246 -389l246 -389zM518 55l-401 346q-45 39 -45 60q0 12 7.5 23t37.5 38l401 346l25 -18l-246 -389l246 -389z" />
    <glyph glyph-name="registered" unicode="&#xae;" horiz-adv-x="788" 
d="M391 866q-134 0 -223.5 91t-89.5 227q0 137 89 225t224 88q139 0 228.5 -88t89.5 -225t-90 -227.5t-228 -90.5zM391 891q127 0 207 83.5t80 209.5t-79.5 207.5t-207.5 81.5q-127 0 -204.5 -81.5t-77.5 -207.5q0 -127 77.5 -210t204.5 -83zM360 1202h33q39 0 54.5 17
t15.5 57q0 36 -16.5 51.5t-57.5 15.5h-29v-141zM360 1186v-121q0 -27 46 -27v-14h-166v14q47 0 47 27v256q0 22 -47 22v17h155q148 0 148 -82q0 -34 -22 -53.5t-75 -26.5v-6q47 -4 65 -20t21 -50l5 -45q1 -21 13 -29t36 -8v-14q-21 -6 -54 -6q-41 0 -56 14t-17 49l-2 37
q-1 37 -16 51.5t-50 14.5h-31z" />
    <glyph glyph-name="macron" unicode="&#xaf;" horiz-adv-x="657" 
d="M25 1139v96h610v-96h-610z" />
    <glyph glyph-name="degree" unicode="&#xb0;" horiz-adv-x="798" 
d="M401 872q-148 0 -237.5 82t-89.5 217q0 131 92.5 216.5t232.5 85.5q146 0 236 -82.5t90 -214.5t-92 -218t-232 -86zM406 915q147 0 147 259q0 256 -158 256q-78 0 -112.5 -63t-34.5 -191q0 -261 158 -261z" />
    <glyph glyph-name="plusminus" unicode="&#xb1;" horiz-adv-x="1085" 
d="M121 643v45h397v395h53v-395h394v-45h-394v-401h-53v401h-397zM121 0v45h844v-45h-844z" />
    <glyph glyph-name="acute" unicode="&#xb4;" horiz-adv-x="487" 
d="M102 1077l72 256q29 120 57 164.5t82 44.5q50 0 84.5 -31t34.5 -77q0 -32 -25.5 -68t-99.5 -115l-170 -174h-35z" />
    <glyph glyph-name="paragraph" unicode="&#xb6;" horiz-adv-x="1384" 
d="M772 -205v570q-193 4 -340.5 63t-233 171.5t-85.5 264.5q0 223 172.5 360.5t482.5 137.5h541v-27q-107 -4 -156.5 -14t-66.5 -30t-17 -62v-1434h-53v1526h-189v-1526h-55z" />
    <glyph glyph-name="periodcentered" unicode="&#xb7;" horiz-adv-x="520" 
d="M258 498q-70 0 -116 46t-46 111q0 67 48 114.5t118 47.5t117 -46.5t47 -111.5q0 -66 -49 -113.5t-119 -47.5z" />
    <glyph glyph-name="cedilla" unicode="&#xb8;" horiz-adv-x="577" 
d="M229 -514q-121 0 -211 45l19 33q82 -33 158 -33q57 0 84.5 27t27.5 75t-44.5 77.5t-117.5 29.5q-27 0 -69 -10l-13 18l261 246h53l-139 -131l4 -6q121 -4 182 -59t61 -126q0 -82 -68.5 -134t-187.5 -52z" />
    <glyph glyph-name="ordmasculine" unicode="&#xba;" horiz-adv-x="933" 
d="M467 686q-178 0 -280.5 99t-102.5 268q0 168 106 269t277 101q177 0 280 -97.5t103 -266.5q0 -168 -106 -270.5t-277 -102.5zM473 721q83 0 115.5 81.5t32.5 254.5q0 168 -37.5 250t-122.5 82q-84 0 -116 -80t-32 -252q0 -170 37.5 -253t122.5 -83z" />
    <glyph glyph-name="guillemotright" unicode="&#xbb;" horiz-adv-x="1050" 
d="M535 53l-25 19l244 389l-244 389l25 16l399 -346q31 -25 39 -36.5t8 -22.5q0 -12 -8 -23.5t-39 -38.5zM111 53l-25 19l246 389l-246 389l25 16l401 -346q29 -25 37 -36.5t8 -22.5q0 -12 -7.5 -23.5t-37.5 -38.5z" />
    <glyph glyph-name="questiondown" unicode="&#xbf;" horiz-adv-x="1042" 
d="M584 1163q-70 0 -116 46.5t-46 113.5q0 65 48 113.5t118 48.5t117 -46.5t47 -113.5q0 -66 -48.5 -114t-119.5 -48zM553 -33q-240 0 -374 103.5t-134 265.5q0 315 514 422v276h55v-307q-161 -54 -220.5 -147.5t-59.5 -249.5q0 -167 68 -246.5t192 -79.5q74 0 136.5 30.5
t90.5 78.5q-67 20 -103 66t-36 106q0 68 43.5 119t118.5 51q77 0 126.5 -52.5t49.5 -128.5q0 -137 -134 -222t-333 -85z" />
    <glyph glyph-name="Agrave" unicode="&#xc0;" 
d="M948 188l-127 355h-471l-69 -189q-63 -166 -33.5 -235.5t172.5 -89.5v-29h-483v29q100 26 165.5 100.5t128.5 232.5l424 1098h140l462 -1257q24 -64 46.5 -94.5t64 -49t119.5 -30.5v-29h-733v29q145 6 184.5 40.5t9.5 118.5zM367 584h440l-209 592h-10zM809 1569
l-168 174q-75 79 -101 114.5t-26 67.5q0 46 34.5 77.5t84.5 31.5q54 0 82 -44.5t57 -164.5l72 -256h-35z" />
    <glyph glyph-name="Aacute" unicode="&#xc1;" 
d="M948 188l-127 355h-471l-69 -189q-63 -166 -33.5 -235.5t172.5 -89.5v-29h-483v29q100 26 165.5 100.5t128.5 232.5l424 1098h140l462 -1257q24 -64 46.5 -94.5t64 -49t119.5 -30.5v-29h-733v29q145 6 184.5 40.5t9.5 118.5zM367 584h440l-209 592h-10zM649 1569l72 256
q29 120 57 164.5t82 44.5q50 0 84.5 -31.5t34.5 -77.5q0 -32 -25.5 -67.5t-99.5 -114.5l-170 -174h-35z" />
    <glyph glyph-name="Acircumflex" unicode="&#xc2;" 
d="M948 188l-127 355h-471l-69 -189q-63 -166 -33.5 -235.5t172.5 -89.5v-29h-483v29q100 26 165.5 100.5t128.5 232.5l424 1098h140l462 -1257q24 -64 46.5 -94.5t64 -49t119.5 -30.5v-29h-733v29q145 6 184.5 40.5t9.5 118.5zM367 584h440l-209 592h-10zM420 1554l291 418
h26l277 -418h-33l-264 183l-264 -183h-33z" />
    <glyph glyph-name="Atilde" unicode="&#xc3;" 
d="M948 188l-127 355h-471l-69 -189q-63 -166 -33.5 -235.5t172.5 -89.5v-29h-483v29q100 26 165.5 100.5t128.5 232.5l424 1098h140l462 -1257q24 -64 46.5 -94.5t64 -49t119.5 -30.5v-29h-733v29q145 6 184.5 40.5t9.5 118.5zM367 584h440l-209 592h-10zM387 1567
q15 152 63 220t140 68q45 0 112 -27.5t128 -55t92 -27.5q36 0 59 26.5t43 96.5h33q-13 -151 -62.5 -220t-140.5 -69q-45 0 -112 27.5t-128 55.5t-92 28q-36 0 -59.5 -26.5t-42.5 -96.5h-33z" />
    <glyph glyph-name="Adieresis" unicode="&#xc4;" 
d="M948 188l-127 355h-471l-69 -189q-63 -166 -33.5 -235.5t172.5 -89.5v-29h-483v29q100 26 165.5 100.5t128.5 232.5l424 1098h140l462 -1257q24 -64 46.5 -94.5t64 -49t119.5 -30.5v-29h-733v29q145 6 184.5 40.5t9.5 118.5zM367 584h440l-209 592h-10zM926 1579
q-65 0 -107.5 43.5t-42.5 108.5t42.5 109t107.5 44t107 -44t42 -109t-42 -108.5t-107 -43.5zM508 1579q-64 0 -107 43.5t-43 108.5t43 109t107 44q65 0 108 -44t43 -109t-42.5 -108.5t-108.5 -43.5z" />
    <glyph glyph-name="Aring" unicode="&#xc5;" 
d="M723 1458q102 0 102 184q0 187 -108 187q-103 0 -103 -187q0 -87 28 -135.5t81 -48.5zM350 543l-69 -189q-63 -166 -33.5 -235.5t172.5 -89.5v-29h-483v29q100 26 165.5 100.5t128.5 232.5l414 1072q-83 17 -129.5 74t-46.5 137q0 96 68.5 158.5t181.5 62.5
q116 0 184 -61.5t68 -157.5q0 -76 -44.5 -132.5t-123.5 -76.5l454 -1235q24 -64 46.5 -94.5t64 -49t119.5 -30.5v-29h-733v29q145 6 184.5 40.5t9.5 118.5l-127 355h-471zM807 584l-209 592h-10l-221 -592h440z" />
    <glyph glyph-name="AE" unicode="&#xc6;" horiz-adv-x="2174" 
d="M489 571l-153 -245q-76 -120 -76 -185q0 -87 141 -112v-29h-479v29q194 50 379 333l557 877q31 45 31 72q0 38 -56.5 59.5t-181.5 30.5v26h1346l6 -487l-31 -2q-30 67 -51 111t-47.5 93t-48 79t-49 61.5t-55 49t-62 32.5t-74 21t-86.5 6h-213v-631h86q127 0 201.5 62.5
t114.5 215.5h26v-598h-26q-40 155 -115 219t-201 64h-86v-684h203q90 0 157 17t118 49t97 93.5t83 133t86 186.5l30 -4l-10 -514h-1276v29q124 4 168.5 30t44.5 86v426h-498zM987 612v740h-8l-463 -740h471z" />
    <glyph glyph-name="Ccedilla" unicode="&#xc7;" horiz-adv-x="1476" 
d="M791 -35q-328 0 -518.5 194.5t-190.5 530.5q0 172 61 318.5t165.5 245t243.5 153.5t294 55q212 0 379 -92l92 103h24v-531h-30q-53 120 -102 203.5t-108.5 149t-130 97t-155.5 31.5q-180 0 -290.5 -181.5t-110.5 -516.5q0 -168 38 -299.5t104 -213t150.5 -123.5
t182.5 -42q322 0 473 332l37 -19q-33 -75 -78.5 -138t-110 -119t-155 -91.5t-199.5 -44.5l-111 -104l5 -6q121 -4 182 -59t61 -126q0 -82 -68.5 -134t-187.5 -52q-121 0 -211 45l19 33q82 -33 157 -33q57 0 85 27t28 75t-44.5 77.5t-117.5 29.5q-27 0 -69 -10l-13 18
l230 217h-10z" />
    <glyph glyph-name="Egrave" unicode="&#xc8;" horiz-adv-x="1464" 
d="M63 0v29q124 4 168.5 30t44.5 86v1137q0 61 -45 88t-168 31v26h1223l6 -487l-30 -2q-41 90 -68 144.5t-62 112.5t-66.5 89.5t-74 58.5t-91.5 37.5t-112 10.5h-213v-631h87q126 0 199.5 62.5t113.5 215.5h26v-598h-26q-40 155 -113.5 219t-199.5 64h-87v-684h203
q90 0 157 17t118 49t97 93.5t83 133t86 186.5l31 -4l-11 -514h-1276zM815 1569l-168 174q-75 79 -101 114.5t-26 67.5q0 46 34.5 77.5t84.5 31.5q54 0 82 -44.5t57 -164.5l72 -256h-35z" />
    <glyph glyph-name="Eacute" unicode="&#xc9;" horiz-adv-x="1464" 
d="M690 1569l72 256q29 120 57 164.5t82 44.5q50 0 84.5 -31.5t34.5 -77.5q0 -32 -25.5 -67.5t-99.5 -114.5l-170 -174h-35zM63 0v29q124 4 168.5 30t44.5 86v1137q0 61 -45 88t-168 31v26h1223l6 -487l-30 -2q-41 90 -68 144.5t-62 112.5t-66.5 89.5t-74 58.5t-91.5 37.5
t-112 10.5h-213v-631h87q126 0 199.5 62.5t113.5 215.5h26v-598h-26q-40 155 -113.5 219t-199.5 64h-87v-684h203q90 0 157 17t118 49t97 93.5t83 133t86 186.5l31 -4l-11 -514h-1276z" />
    <glyph glyph-name="Ecircumflex" unicode="&#xca;" horiz-adv-x="1464" 
d="M418 1569l291 418h26l277 -418h-33l-264 182l-264 -182h-33zM63 0v29q124 4 168.5 30t44.5 86v1137q0 61 -45 88t-168 31v26h1223l6 -487l-30 -2q-41 90 -68 144.5t-62 112.5t-66.5 89.5t-74 58.5t-91.5 37.5t-112 10.5h-213v-631h87q126 0 199.5 62.5t113.5 215.5h26
v-598h-26q-40 155 -113.5 219t-199.5 64h-87v-684h203q90 0 157 17t118 49t97 93.5t83 133t86 186.5l31 -4l-11 -514h-1276z" />
    <glyph glyph-name="Edieresis" unicode="&#xcb;" horiz-adv-x="1464" 
d="M952 1579q-65 0 -107 43.5t-42 108.5t42 109t107 44t107.5 -44t42.5 -109t-42.5 -108.5t-107.5 -43.5zM535 1579q-64 0 -107 43.5t-43 108.5t43 109t107 44q65 0 108 -44t43 -109t-42.5 -108.5t-108.5 -43.5zM63 0v29q124 4 168.5 30t44.5 86v1137q0 61 -45 88t-168 31
v26h1223l6 -487l-30 -2q-41 90 -68 144.5t-62 112.5t-66.5 89.5t-74 58.5t-91.5 37.5t-112 10.5h-213v-631h87q126 0 199.5 62.5t113.5 215.5h26v-598h-26q-40 155 -113.5 219t-199.5 64h-87v-684h203q90 0 157 17t118 49t97 93.5t83 133t86 186.5l31 -4l-11 -514h-1276z
" />
    <glyph glyph-name="Igrave" unicode="&#xcc;" horiz-adv-x="890" 
d="M78 0v29q129 4 174 29.5t45 86.5v1137q0 61 -45 88t-174 31v26h735v-26q-129 -4 -174 -31t-45 -88v-1137q0 -61 45 -86.5t174 -29.5v-29h-735zM520 1569l-168 174q-75 79 -101 114.5t-26 67.5q0 46 34.5 77.5t84.5 31.5q54 0 82 -44.5t57 -164.5l72 -256h-35z" />
    <glyph glyph-name="Iacute" unicode="&#xcd;" horiz-adv-x="890" 
d="M78 0v29q129 4 174 29.5t45 86.5v1137q0 61 -45 88t-174 31v26h735v-26q-129 -4 -174 -31t-45 -88v-1137q0 -61 45 -86.5t174 -29.5v-29h-735zM383 1569l72 256q29 120 57 164.5t82 44.5q50 0 84.5 -31.5t34.5 -77.5q0 -32 -25.5 -67.5t-99.5 -114.5l-170 -174h-35z" />
    <glyph glyph-name="Icircumflex" unicode="&#xce;" horiz-adv-x="890" 
d="M78 0v29q129 4 174 29.5t45 86.5v1137q0 61 -45 88t-174 31v26h735v-26q-129 -4 -174 -31t-45 -88v-1137q0 -61 45 -86.5t174 -29.5v-29h-735zM147 1569l291 418h27l276 -418h-32l-265 182l-264 -182h-33z" />
    <glyph glyph-name="Idieresis" unicode="&#xcf;" horiz-adv-x="890" 
d="M78 0v29q129 4 174 29.5t45 86.5v1137q0 61 -45 88t-174 31v26h735v-26q-129 -4 -174 -31t-45 -88v-1137q0 -61 45 -86.5t174 -29.5v-29h-735zM655 1579q-65 0 -107 43.5t-42 108.5t42 109t107 44t107.5 -44t42.5 -109t-42.5 -108.5t-107.5 -43.5zM238 1579
q-64 0 -107 43.5t-43 108.5t43 109t107 44q65 0 108 -44t43 -109t-42.5 -108.5t-108.5 -43.5z" />
    <glyph glyph-name="Eth" unicode="&#xd0;" horiz-adv-x="1597" 
d="M63 0v29q124 4 168.5 30t44.5 86v572h-204v53h204v512q0 61 -45 88t-168 31v26h670q191 0 340.5 -51t244.5 -143t144 -217t49 -277q0 -118 -26 -224t-84 -201t-143 -164t-211.5 -109.5t-280.5 -40.5h-703zM575 39h127q137 0 226.5 32t148.5 111.5t84 208.5t25 328
q0 157 -20 272t-58 192t-99 123t-135.5 65.5t-175.5 19.5h-123v-621h279v-53h-279v-678z" />
    <glyph glyph-name="Ntilde" unicode="&#xd1;" horiz-adv-x="1656" 
d="M1288 -23l-921 1192h-2v-821q0 -158 60 -230t214 -89v-29h-578v29q143 18 197.5 89.5t54.5 229.5v815q0 100 -63 166t-189 72v26h484l788 -1026h2v680q0 154 -64 227.5t-218 92.5v26h581v-26q-142 -21 -195 -92.5t-53 -227.5v-1104h-98zM551 1567q15 152 63 220t140 68
q45 0 111.5 -27.5t127.5 -55t92 -27.5q37 0 60 26.5t43 96.5h33q-13 -151 -62.5 -220t-140.5 -69q-45 0 -112 27.5t-128 55.5t-92 28q-36 0 -59.5 -26.5t-42.5 -96.5h-33z" />
    <glyph glyph-name="Ograve" unicode="&#xd2;" horiz-adv-x="1587" 
d="M793 -35q-151 0 -281.5 53t-224.5 148.5t-147.5 236t-53.5 308.5q0 166 55 307.5t150 238.5t225 151t277 54q152 0 283 -52.5t225.5 -147.5t148 -235t53.5 -308t-55 -310t-150.5 -239t-226 -151t-278.5 -54zM803 4q188 0 278 167.5t90 543.5q0 370 -98 539t-289 169
q-188 0 -278 -167t-90 -541q0 -372 98 -541.5t289 -169.5zM854 1569l-168 174q-75 79 -101 114.5t-26 67.5q0 46 34.5 77.5t84.5 31.5q54 0 82 -44.5t57 -164.5l72 -256h-35z" />
    <glyph glyph-name="Oacute" unicode="&#xd3;" horiz-adv-x="1587" 
d="M729 1569l72 256q29 120 57 164.5t82 44.5q50 0 84.5 -31.5t34.5 -77.5q0 -32 -25.5 -67.5t-99.5 -114.5l-170 -174h-35zM793 -35q-151 0 -281.5 53t-224.5 148.5t-147.5 236t-53.5 308.5q0 166 55 307.5t150 238.5t225 151t277 54q152 0 283 -52.5t225.5 -147.5
t148 -235t53.5 -308t-55 -310t-150.5 -239t-226 -151t-278.5 -54zM803 4q188 0 278 167.5t90 543.5q0 370 -98 539t-289 169q-188 0 -278 -167t-90 -541q0 -372 98 -541.5t289 -169.5z" />
    <glyph glyph-name="Ocircumflex" unicode="&#xd4;" horiz-adv-x="1587" 
d="M496 1569l290 418h27l277 -418h-33l-264 182l-265 -182h-32zM793 -35q-151 0 -281.5 53t-224.5 148.5t-147.5 236t-53.5 308.5q0 166 55 307.5t150 238.5t225 151t277 54q152 0 283 -52.5t225.5 -147.5t148 -235t53.5 -308t-55 -310t-150.5 -239t-226 -151t-278.5 -54z
M803 4q188 0 278 167.5t90 543.5q0 370 -98 539t-289 169q-188 0 -278 -167t-90 -541q0 -372 98 -541.5t289 -169.5z" />
    <glyph glyph-name="Otilde" unicode="&#xd5;" horiz-adv-x="1587" 
d="M793 -35q-151 0 -281.5 53t-224.5 148.5t-147.5 236t-53.5 308.5q0 166 55 307.5t150 238.5t225 151t277 54q152 0 283 -52.5t225.5 -147.5t148 -235t53.5 -308t-55 -310t-150.5 -239t-226 -151t-278.5 -54zM803 4q188 0 278 167.5t90 543.5q0 370 -98 539t-289 169
q-188 0 -278 -167t-90 -541q0 -372 98 -541.5t289 -169.5zM469 1567q15 152 63 220t140 68q45 0 112 -27.5t128 -55t92 -27.5q36 0 59 26.5t43 96.5h33q-13 -151 -62.5 -220t-140.5 -69q-45 0 -112 27.5t-128 55.5t-92 28q-36 0 -59.5 -26.5t-42.5 -96.5h-33z" />
    <glyph glyph-name="Odieresis" unicode="&#xd6;" horiz-adv-x="1587" 
d="M1001 1579q-65 0 -107 43.5t-42 108.5t42 109t107 44t107.5 -44t42.5 -109t-42.5 -108.5t-107.5 -43.5zM584 1579q-64 0 -107 43.5t-43 108.5t43 109t107 44q65 0 108 -44t43 -109t-42.5 -108.5t-108.5 -43.5zM793 -35q-151 0 -281.5 53t-224.5 148.5t-147.5 236
t-53.5 308.5q0 166 55 307.5t150 238.5t225 151t277 54q152 0 283 -52.5t225.5 -147.5t148 -235t53.5 -308t-55 -310t-150.5 -239t-226 -151t-278.5 -54zM803 4q188 0 278 167.5t90 543.5q0 370 -98 539t-289 169q-188 0 -278 -167t-90 -541q0 -372 98 -541.5t289 -169.5z
" />
    <glyph glyph-name="multiply" unicode="&#xd7;" horiz-adv-x="1138" 
d="M934 1063l35 -35l-365 -364l365 -365l-35 -35l-365 365l-364 -365l-35 35l365 365l-365 364l35 35l364 -365z" />
    <glyph glyph-name="Oslash" unicode="&#xd8;" horiz-adv-x="1587" 
d="M793 -35q-265 0 -455 154l-160 -193h-67l188 228q-213 210 -213 557q0 166 55 307.5t150 238.5t225 151t277 54q268 0 456 -155l160 194h68l-189 -229q102 -99 158.5 -240.5t56.5 -312.5q0 -168 -55 -310t-150.5 -239t-226 -151t-278.5 -54zM784 1423q-188 0 -278 -167
t-90 -541q0 -226 35 -375l667 809q-89 274 -334 274zM803 4q188 0 278 167.5t90 543.5q0 229 -36 370l-666 -809q90 -272 334 -272z" />
    <glyph glyph-name="Ugrave" unicode="&#xd9;" horiz-adv-x="1654" 
d="M844 -35q-588 0 -588 484v833q0 61 -45 88t-168 31v26h709v-26q-109 -5 -153 -31.5t-44 -87.5v-844q0 -403 393 -403q76 0 143.5 23.5t112.5 68.5q117 117 117 340v614q0 153 -64.5 227t-218.5 93v26h584v-26q-142 -21 -195 -92.5t-53 -227.5v-620q0 -236 -129.5 -366
t-400.5 -130zM918 1569l-168 174q-75 79 -101 114.5t-26 67.5q0 46 34 77.5t84 31.5q54 0 82.5 -45t57.5 -164l71 -256h-34z" />
    <glyph glyph-name="Uacute" unicode="&#xda;" horiz-adv-x="1654" 
d="M813 1569l72 256q29 120 57 164.5t82 44.5q50 0 84.5 -31.5t34.5 -77.5q0 -32 -25.5 -67.5t-99.5 -114.5l-170 -174h-35zM844 -35q-588 0 -588 484v833q0 61 -45 88t-168 31v26h709v-26q-109 -5 -153 -31.5t-44 -87.5v-844q0 -403 393 -403q76 0 143.5 23.5t112.5 68.5
q117 117 117 340v614q0 153 -64.5 227t-218.5 93v26h584v-26q-142 -21 -195 -92.5t-53 -227.5v-620q0 -236 -129.5 -366t-400.5 -130z" />
    <glyph glyph-name="Ucircumflex" unicode="&#xdb;" horiz-adv-x="1654" 
d="M604 1569l291 418h27l276 -418h-33l-264 182l-264 -182h-33zM844 -35q-588 0 -588 484v833q0 61 -45 88t-168 31v26h709v-26q-109 -5 -153 -31.5t-44 -87.5v-844q0 -403 393 -403q76 0 143.5 23.5t112.5 68.5q117 117 117 340v614q0 153 -64.5 227t-218.5 93v26h584v-26
q-142 -21 -195 -92.5t-53 -227.5v-620q0 -236 -129.5 -366t-400.5 -130z" />
    <glyph glyph-name="Udieresis" unicode="&#xdc;" horiz-adv-x="1654" 
d="M1077 1579q-65 0 -107 43.5t-42 108.5t42 109t107 44t107.5 -44t42.5 -109t-42.5 -108.5t-107.5 -43.5zM659 1579q-64 0 -106.5 43.5t-42.5 108.5t42.5 109t106.5 44q66 0 109 -44t43 -109t-43 -108.5t-109 -43.5zM844 -35q-588 0 -588 484v833q0 61 -45 88t-168 31v26
h709v-26q-109 -5 -153 -31.5t-44 -87.5v-844q0 -403 393 -403q76 0 143.5 23.5t112.5 68.5q117 117 117 340v614q0 153 -64.5 227t-218.5 93v26h584v-26q-142 -21 -195 -92.5t-53 -227.5v-620q0 -236 -129.5 -366t-400.5 -130z" />
    <glyph glyph-name="Yacute" unicode="&#xdd;" horiz-adv-x="1415" 
d="M831 672l265 471q68 121 47.5 175t-148.5 83v26h473v-26q-72 -13 -123.5 -42t-106 -92.5t-118.5 -176.5l-260 -459v-486q0 -61 45 -86.5t174 -29.5v-29h-735v29q128 4 173.5 30t45.5 86v443l-360 645q-46 80 -94 114.5t-140 53.5v26h723v-26q-100 -6 -144.5 -27t-44 -58
t31.5 -91zM770 1569l72 256q29 120 57 164.5t82 44.5q50 0 84.5 -31.5t34.5 -77.5q0 -32 -25.5 -67.5t-99.5 -114.5l-170 -174h-35z" />
    <glyph glyph-name="Thorn" unicode="&#xde;" horiz-adv-x="1392" 
d="M63 0v29q124 4 168.5 30t44.5 86v1139q0 59 -45 86t-168 31v26h738v-24q-95 -3 -144.5 -16.5t-65.5 -36.5t-16 -66v-147h127q139 0 246 -19.5t176.5 -54.5t114.5 -86t63.5 -110t18.5 -132q0 -69 -20 -128t-66 -111.5t-117 -89.5t-179 -58.5t-245 -21.5h-119v-181
q0 -44 16 -67t65 -36.5t145 -16.5v-25h-738zM575 362h109q96 0 160 22.5t100 71.5t50 114.5t14 162.5q0 177 -71.5 272t-246.5 95h-115v-738z" />
    <glyph glyph-name="germandbls" unicode="&#xdf;" horiz-adv-x="1296" 
d="M901 -16q-128 0 -219.5 53t-91.5 145q0 49 33.5 86t87.5 37q51 0 80.5 -34.5t29.5 -82.5q0 -60 -69 -108q19 -26 61.5 -43t93.5 -17q82 0 127 44.5t45 117.5q0 72 -49.5 123t-163.5 113q-133 71 -189 129.5t-56 140.5q0 59 28.5 104t100.5 105q72 62 94 122.5t22 174.5
q0 248 -202 248q-66 0 -105.5 -24.5t-61.5 -92.5t-22 -188v-1137h-414v25q88 1 115 16t27 59v768h-176v33l176 39v78q0 241 116.5 352t356.5 111q212 0 326 -72t114 -190q0 -78 -46.5 -131t-162.5 -127q-75 -43 -100 -73.5t-25 -80.5q0 -26 15 -49.5t49 -48t61 -40.5t78 -44
q54 -30 87 -50.5t72.5 -52t61 -60.5t36.5 -69.5t15 -87.5q0 -133 -95.5 -227t-260.5 -94z" />
    <glyph glyph-name="agrave" unicode="&#xe0;" horiz-adv-x="1046" 
d="M348 -10q-137 0 -209.5 71t-72.5 168q0 64 33.5 121.5t95.5 91.5q64 35 160 54t180.5 27.5t107.5 17.5v166q0 110 -35 160.5t-116 50.5q-94 0 -150 -46q55 -55 55 -118q0 -64 -36.5 -102t-104.5 -38q-59 0 -99 40t-40 98q0 95 106 149.5t312 54.5q191 0 285.5 -76.5
t94.5 -242.5v-457q0 -77 33.5 -97t116.5 13l12 -22q-65 -42 -113.5 -62t-105.5 -20q-95 0 -141 37.5t-58 117.5h-8q-142 -157 -303 -157zM496 102q41 0 82 26.5t65 64.5v307q-172 -27 -230.5 -76.5t-58.5 -161.5q0 -73 37 -116.5t105 -43.5zM547 1077l-168 174
q-75 78 -101 114.5t-26 68.5q0 46 34.5 77t84.5 31q54 0 82 -44.5t57 -164.5l72 -256h-35z" />
    <glyph glyph-name="aacute" unicode="&#xe1;" horiz-adv-x="1046" 
d="M348 -10q-137 0 -209.5 71t-72.5 168q0 64 33.5 121.5t95.5 91.5q64 35 160 54t180.5 27.5t107.5 17.5v166q0 110 -35 160.5t-116 50.5q-94 0 -150 -46q55 -55 55 -118q0 -64 -36.5 -102t-104.5 -38q-59 0 -99 40t-40 98q0 95 106 149.5t312 54.5q191 0 285.5 -76.5
t94.5 -242.5v-457q0 -77 33.5 -97t116.5 13l12 -22q-65 -42 -113.5 -62t-105.5 -20q-95 0 -141 37.5t-58 117.5h-8q-142 -157 -303 -157zM496 102q41 0 82 26.5t65 64.5v307q-172 -27 -230.5 -76.5t-58.5 -161.5q0 -73 37 -116.5t105 -43.5zM477 1077l72 256
q29 120 57 164.5t82 44.5q50 0 84.5 -31t34.5 -77q0 -32 -25.5 -68t-99.5 -115l-170 -174h-35z" />
    <glyph glyph-name="acircumflex" unicode="&#xe2;" horiz-adv-x="1046" 
d="M348 -10q-137 0 -209.5 71t-72.5 168q0 64 33.5 121.5t95.5 91.5q64 35 160 54t180.5 27.5t107.5 17.5v166q0 110 -35 160.5t-116 50.5q-94 0 -150 -46q55 -55 55 -118q0 -64 -36.5 -102t-104.5 -38q-59 0 -99 40t-40 98q0 95 106 149.5t312 54.5q191 0 285.5 -76.5
t94.5 -242.5v-457q0 -77 33.5 -97t116.5 13l12 -22q-65 -42 -113.5 -62t-105.5 -20q-95 0 -141 37.5t-58 117.5h-8q-142 -157 -303 -157zM496 102q41 0 82 26.5t65 64.5v307q-172 -27 -230.5 -76.5t-58.5 -161.5q0 -73 37 -116.5t105 -43.5zM242 1077l290 418h27l277 -418
h-33l-264 183l-265 -183h-32z" />
    <glyph glyph-name="atilde" unicode="&#xe3;" horiz-adv-x="1046" 
d="M348 -10q-137 0 -209.5 71t-72.5 168q0 64 33.5 121.5t95.5 91.5q64 35 160 54t180.5 27.5t107.5 17.5v166q0 110 -35 160.5t-116 50.5q-94 0 -150 -46q55 -55 55 -118q0 -64 -36.5 -102t-104.5 -38q-59 0 -99 40t-40 98q0 95 106 149.5t312 54.5q191 0 285.5 -76.5
t94.5 -242.5v-457q0 -77 33.5 -97t116.5 13l12 -22q-65 -42 -113.5 -62t-105.5 -20q-95 0 -141 37.5t-58 117.5h-8q-142 -157 -303 -157zM496 102q41 0 82 26.5t65 64.5v307q-172 -27 -230.5 -76.5t-58.5 -161.5q0 -73 37 -116.5t105 -43.5zM209 1075q15 152 63 220.5
t140 68.5q45 0 111.5 -28t127.5 -55.5t92 -27.5q37 0 60 26.5t43 96.5h33q-13 -151 -62.5 -220t-140.5 -69q-45 0 -112 27.5t-128 55.5t-92 28q-36 0 -59.5 -26.5t-42.5 -96.5h-33z" />
    <glyph glyph-name="adieresis" unicode="&#xe4;" horiz-adv-x="1046" 
d="M348 -10q-137 0 -209.5 71t-72.5 168q0 64 33.5 121.5t95.5 91.5q64 35 160 54t180.5 27.5t107.5 17.5v166q0 110 -35 160.5t-116 50.5q-94 0 -150 -46q55 -55 55 -118q0 -64 -36.5 -102t-104.5 -38q-59 0 -99 40t-40 98q0 95 106 149.5t312 54.5q191 0 285.5 -76.5
t94.5 -242.5v-457q0 -77 33.5 -97t116.5 13l12 -22q-65 -42 -113.5 -62t-105.5 -20q-95 0 -141 37.5t-58 117.5h-8q-142 -157 -303 -157zM496 102q41 0 82 26.5t65 64.5v307q-172 -27 -230.5 -76.5t-58.5 -161.5q0 -73 37 -116.5t105 -43.5zM748 1087q-65 0 -107.5 43.5
t-42.5 108.5t42.5 109.5t107.5 44.5t107 -44.5t42 -109.5t-42 -108.5t-107 -43.5zM330 1087q-64 0 -107 43.5t-43 108.5t43 109.5t107 44.5q65 0 108 -44.5t43 -109.5t-42.5 -108.5t-108.5 -43.5z" />
    <glyph glyph-name="aring" unicode="&#xe5;" horiz-adv-x="1046" 
d="M348 -10q-137 0 -209.5 71t-72.5 168q0 64 33.5 121.5t95.5 91.5q64 35 160 54t180.5 27.5t107.5 17.5v166q0 110 -35 160.5t-116 50.5q-94 0 -150 -46q55 -55 55 -118q0 -64 -36.5 -102t-104.5 -38q-59 0 -99 40t-40 98q0 95 106 149.5t312 54.5q191 0 285.5 -76.5
t94.5 -242.5v-457q0 -77 33.5 -97t116.5 13l12 -22q-65 -42 -113.5 -62t-105.5 -20q-95 0 -141 37.5t-58 117.5h-8q-142 -157 -303 -157zM496 102q41 0 82 26.5t65 64.5v307q-172 -27 -230.5 -76.5t-58.5 -161.5q0 -73 37 -116.5t105 -43.5zM530 1087q-116 0 -182.5 61
t-66.5 159q0 97 67.5 159t181.5 62q116 0 184 -61.5t68 -157.5t-68.5 -159t-183.5 -63zM535 1122q102 0 102 185q0 186 -109 186q-53 0 -77.5 -46t-24.5 -140q0 -88 28 -136.5t81 -48.5z" />
    <glyph glyph-name="ae" unicode="&#xe6;" horiz-adv-x="1605" 
d="M1128 963q210 0 321.5 -126t100.5 -329h-616v-39v-2q0 -190 79 -293.5t230 -103.5q89 0 155 41.5t128 126.5l22 -15q-72 -115 -172.5 -177t-245.5 -62q-137 0 -243 56t-164 155h-8q-61 -89 -158 -147t-217 -58q-132 0 -203 71t-71 168q0 64 33.5 121.5t95.5 91.5
q64 35 165.5 54t191 27.5t112.5 17.5v166q0 211 -172 211q-94 0 -150 -46q55 -55 55 -118q0 -64 -36.5 -102t-104.5 -38q-59 0 -99 40t-40 98q0 95 106 149.5t312 54.5q207 0 296 -102q121 109 297 109zM1116 924q-167 0 -180 -379h336q19 178 -21 278.5t-135 100.5z
M496 102q44 0 94.5 28.5t73.5 68.5v301q-176 -28 -243 -78.5t-67 -159.5q0 -73 37 -116.5t105 -43.5z" />
    <glyph glyph-name="ccedilla" unicode="&#xe7;" horiz-adv-x="987" 
d="M492 -514q-121 0 -211 45l18 33q82 -33 158 -33q57 0 84.5 27t27.5 75t-44 77.5t-117 29.5q-28 0 -70 -10l-12 18l249 238q-6 0 -18 -1t-18 -1q-221 0 -350.5 128t-129.5 345q0 154 67 270t181.5 176t259.5 60q186 0 282.5 -70t96.5 -158q0 -67 -37.5 -108t-105.5 -41
q-72 0 -112 40.5t-40 100.5q0 45 22 79.5t52 49.5q-47 70 -150 70t-164 -120t-61 -321q0 -84 17.5 -157.5t52 -132.5t92 -93t131.5 -34q168 0 293 163l22 -14q-124 -191 -321 -225l-137 -129l4 -6q121 -4 182.5 -59t61.5 -126q0 -82 -68.5 -134t-187.5 -52z" />
    <glyph glyph-name="egrave" unicode="&#xe8;" horiz-adv-x="1019" 
d="M545 -16q-220 0 -353 127.5t-133 349.5q0 113 38.5 208.5t104.5 159t154 99t187 35.5q210 0 321.5 -126t100.5 -329h-617v-39v-2q0 -190 79 -293.5t230 -103.5q89 0 155 41.5t128 126.5l23 -15q-72 -115 -172.5 -177t-245.5 -62zM530 924q-167 0 -180 -379h336
q19 178 -21 278.5t-135 100.5zM569 1077l-168 174q-75 78 -101 114.5t-26 68.5q0 46 34.5 77t84.5 31q54 0 82 -44.5t57 -164.5l72 -256h-35z" />
    <glyph glyph-name="eacute" unicode="&#xe9;" horiz-adv-x="1019" 
d="M545 -16q-220 0 -353 127.5t-133 349.5q0 113 38.5 208.5t104.5 159t154 99t187 35.5q210 0 321.5 -126t100.5 -329h-617v-39v-2q0 -190 79 -293.5t230 -103.5q89 0 155 41.5t128 126.5l23 -15q-72 -115 -172.5 -177t-245.5 -62zM530 924q-167 0 -180 -379h336
q19 178 -21 278.5t-135 100.5zM471 1077l72 256q29 120 57 164.5t82 44.5q50 0 84.5 -31t34.5 -77q0 -32 -25.5 -68t-99.5 -115l-170 -174h-35z" />
    <glyph glyph-name="ecircumflex" unicode="&#xea;" horiz-adv-x="1019" 
d="M545 -16q-220 0 -353 127.5t-133 349.5q0 113 38.5 208.5t104.5 159t154 99t187 35.5q210 0 321.5 -126t100.5 -329h-617v-39v-2q0 -190 79 -293.5t230 -103.5q89 0 155 41.5t128 126.5l23 -15q-72 -115 -172.5 -177t-245.5 -62zM530 924q-167 0 -180 -379h336
q19 178 -21 278.5t-135 100.5zM242 1077l290 418h27l277 -418h-33l-264 183l-265 -183h-32z" />
    <glyph glyph-name="edieresis" unicode="&#xeb;" horiz-adv-x="1019" 
d="M545 -16q-220 0 -353 127.5t-133 349.5q0 113 38.5 208.5t104.5 159t154 99t187 35.5q210 0 321.5 -126t100.5 -329h-617v-39v-2q0 -190 79 -293.5t230 -103.5q89 0 155 41.5t128 126.5l23 -15q-72 -115 -172.5 -177t-245.5 -62zM530 924q-167 0 -180 -379h336
q19 178 -21 278.5t-135 100.5zM332 1087q-64 0 -107 43.5t-43 108.5t43 109.5t107 44.5q65 0 108 -44.5t43 -109.5t-42.5 -108.5t-108.5 -43.5zM750 1087q-65 0 -107.5 43.5t-42.5 108.5t42.5 109.5t107.5 44.5t107 -44.5t42 -109.5t-42 -108.5t-107 -43.5z" />
    <glyph glyph-name="igrave" unicode="&#xec;" horiz-adv-x="636" 
d="M41 0v25q87 1 117 16.5t30 58.5v705q0 50 -32 75.5t-115 26.5v25l420 18v-850q0 -44 26.5 -59t116.5 -16v-25h-563zM324 1077l-168 174q-75 78 -101 114.5t-26 68.5q0 46 34 77t84 31q54 0 82.5 -45t57.5 -164l71 -256h-34z" />
    <glyph glyph-name="iacute" unicode="&#xed;" horiz-adv-x="636" 
d="M221 1077l72 256q29 120 57 164.5t82 44.5q50 0 84.5 -31t34.5 -77q0 -32 -25.5 -68t-99.5 -115l-170 -174h-35zM41 0v25q87 1 117 16.5t30 58.5v705q0 50 -32 75.5t-115 26.5v25l420 18v-850q0 -44 26.5 -59t116.5 -16v-25h-563z" />
    <glyph glyph-name="icircumflex" unicode="&#xee;" horiz-adv-x="636" 
d="M-6 1077l291 418h26l277 -418h-33l-264 183l-264 -183h-33zM41 0v25q87 1 117 16.5t30 58.5v705q0 50 -32 75.5t-115 26.5v25l420 18v-850q0 -44 26.5 -59t116.5 -16v-25h-563z" />
    <glyph glyph-name="idieresis" unicode="&#xef;" horiz-adv-x="636" 
d="M506 1087q-65 0 -107.5 43.5t-42.5 108.5t42.5 109.5t107.5 44.5t107 -44.5t42 -109.5t-42 -108.5t-107 -43.5zM88 1087q-64 0 -106.5 43.5t-42.5 108.5t42.5 109.5t106.5 44.5q65 0 108.5 -44.5t43.5 -109.5t-43 -108.5t-109 -43.5zM41 0v25q87 1 117 16.5t30 58.5v705
q0 50 -32 75.5t-115 26.5v25l420 18v-850q0 -44 26.5 -59t116.5 -16v-25h-563z" />
    <glyph glyph-name="eth" unicode="&#xf0;" horiz-adv-x="1110" 
d="M930 1358l-180 -86q299 -234 299 -639q0 -649 -514 -649q-205 0 -338.5 133t-133.5 350q0 107 38 200.5t102 157.5t149.5 101t177.5 37q145 0 209 -111l9 4q-26 199 -142 346l-254 -123l-16 37l244 117q-114 125 -308 209l11 31q254 -53 430 -175l200 97zM567 23
q100 0 144.5 121t44.5 370q0 410 -195 410q-103 0 -155 -116.5t-52 -334.5q0 -450 213 -450z" />
    <glyph glyph-name="ntilde" unicode="&#xf1;" horiz-adv-x="1212" 
d="M41 0v25q88 1 115.5 16.5t27.5 58.5v705q0 50 -29.5 75.5t-113.5 26.5v25l412 18v-205q66 98 160 154.5t194 56.5q256 0 256 -294v-562q0 -44 26.5 -59t114.5 -16v-25h-526v25q63 2 88 17.5t25 57.5v543q0 193 -146 193q-100 0 -188 -136v-600q0 -42 23.5 -57.5
t84.5 -17.5v-25h-524zM270 1075q15 152 63 220.5t140 68.5q45 0 112 -28t128 -55.5t92 -27.5q36 0 59 26.5t43 96.5h33q-13 -151 -62.5 -220t-140.5 -69q-45 0 -111.5 27.5t-127.5 55.5t-92 28q-36 0 -60 -26.5t-43 -96.5h-33z" />
    <glyph glyph-name="ograve" unicode="&#xf2;" horiz-adv-x="1107" 
d="M555 -16q-228 0 -362 131t-134 356q0 222 138 357t358 135q225 0 359.5 -130.5t134.5 -353.5q0 -224 -137.5 -359.5t-356.5 -135.5zM563 23q104 0 149.5 112t45.5 340q0 449 -213 449q-105 0 -149 -109.5t-44 -339.5q0 -225 51 -338.5t160 -113.5zM573 1077l-167 174
q-75 78 -101 114.5t-26 68.5q0 46 34 77t84 31q54 0 82.5 -45t57.5 -164l71 -256h-35z" />
    <glyph glyph-name="oacute" unicode="&#xf3;" horiz-adv-x="1107" 
d="M494 1077l71 256q29 119 57.5 164t82.5 45q50 0 84 -31t34 -77q0 -32 -25.5 -68t-99.5 -115l-170 -174h-34zM555 -16q-228 0 -362 131t-134 356q0 222 138 357t358 135q225 0 359.5 -130.5t134.5 -353.5q0 -224 -137.5 -359.5t-356.5 -135.5zM563 23q104 0 149.5 112
t45.5 340q0 449 -213 449q-105 0 -149 -109.5t-44 -339.5q0 -225 51 -338.5t160 -113.5z" />
    <glyph glyph-name="ocircumflex" unicode="&#xf4;" horiz-adv-x="1107" 
d="M258 1077l291 418h26l277 -418h-33l-264 183l-264 -183h-33zM555 -16q-228 0 -362 131t-134 356q0 222 138 357t358 135q225 0 359.5 -130.5t134.5 -353.5q0 -224 -137.5 -359.5t-356.5 -135.5zM563 23q104 0 149.5 112t45.5 340q0 449 -213 449q-105 0 -149 -109.5
t-44 -339.5q0 -225 51 -338.5t160 -113.5z" />
    <glyph glyph-name="otilde" unicode="&#xf5;" horiz-adv-x="1107" 
d="M555 -16q-228 0 -362 131t-134 356q0 222 138 357t358 135q225 0 359.5 -130.5t134.5 -353.5q0 -224 -137.5 -359.5t-356.5 -135.5zM563 23q104 0 149.5 112t45.5 340q0 449 -213 449q-105 0 -149 -109.5t-44 -339.5q0 -225 51 -338.5t160 -113.5zM217 1075
q15 152 63 220.5t140 68.5q45 0 112 -28t128 -55.5t92 -27.5q36 0 59 26.5t43 96.5h33q-13 -151 -62.5 -220t-140.5 -69q-45 0 -112 27.5t-128 55.5t-92 28q-36 0 -59.5 -26.5t-42.5 -96.5h-33z" />
    <glyph glyph-name="odieresis" unicode="&#xf6;" horiz-adv-x="1107" 
d="M762 1087q-65 0 -107.5 43.5t-42.5 108.5t42.5 109.5t107.5 44.5t107 -44.5t42 -109.5t-42 -108.5t-107 -43.5zM344 1087q-64 0 -106.5 43.5t-42.5 108.5t42.5 109.5t106.5 44.5q65 0 108.5 -44.5t43.5 -109.5t-43 -108.5t-109 -43.5zM555 -16q-228 0 -362 131t-134 356
q0 222 138 357t358 135q225 0 359.5 -130.5t134.5 -353.5q0 -224 -137.5 -359.5t-356.5 -135.5zM563 23q104 0 149.5 112t45.5 340q0 449 -213 449q-105 0 -149 -109.5t-44 -339.5q0 -225 51 -338.5t160 -113.5z" />
    <glyph glyph-name="divide" unicode="&#xf7;" horiz-adv-x="1177" 
d="M111 647v45h956v-45h-956zM590 848q-51 0 -86 34.5t-35 84.5t35 84t86 34q50 0 84.5 -34.5t34.5 -83.5t-34.5 -84t-84.5 -35zM590 254q-51 0 -86 34.5t-35 84.5t35 84.5t86 34.5q50 0 84.5 -35t34.5 -84t-34.5 -84t-84.5 -35z" />
    <glyph glyph-name="oslash" unicode="&#xf8;" horiz-adv-x="1107" 
d="M145 -51h-57l123 147q-152 133 -152 375q0 222 138 357t358 135q180 0 305 -86l103 120h57l-125 -149q154 -132 154 -369q0 -224 -137.5 -359.5t-356.5 -135.5q-181 0 -309 86zM563 23q104 0 149.5 112t45.5 340q0 106 -13 195l-370 -449q44 -198 188 -198zM352 475
q0 -103 13 -196l370 444q-47 201 -190 201q-105 0 -149 -109.5t-44 -339.5z" />
    <glyph glyph-name="ugrave" unicode="&#xf9;" horiz-adv-x="1191" 
d="M438 -16q-131 0 -204.5 76t-73.5 223v534q0 50 -30 75t-112 26v24l414 8v-643q0 -196 150 -196q101 0 182 129v577q0 49 -31 73.5t-112 27.5v24l415 8v-848q0 -43 28 -58.5t114 -18.5v-25h-410v195q-132 -211 -330 -211zM618 1077l-167 174q-75 78 -101 114.5t-26 68.5
q0 46 34 77t84 31q54 0 82.5 -45t57.5 -164l71 -256h-35z" />
    <glyph glyph-name="uacute" unicode="&#xfa;" horiz-adv-x="1191" 
d="M475 1077l72 256q29 120 57 164.5t82 44.5q50 0 84.5 -31t34.5 -77q0 -32 -25.5 -68t-99.5 -115l-170 -174h-35zM438 -16q-131 0 -204.5 76t-73.5 223v534q0 50 -30 75t-112 26v24l414 8v-643q0 -196 150 -196q101 0 182 129v577q0 49 -31 73.5t-112 27.5v24l415 8v-848
q0 -43 28 -58.5t114 -18.5v-25h-410v195q-132 -211 -330 -211z" />
    <glyph glyph-name="ucircumflex" unicode="&#xfb;" horiz-adv-x="1191" 
d="M270 1077l291 418h27l276 -418h-33l-264 183l-264 -183h-33zM438 -16q-131 0 -204.5 76t-73.5 223v534q0 50 -30 75t-112 26v24l414 8v-643q0 -196 150 -196q101 0 182 129v577q0 49 -31 73.5t-112 27.5v24l415 8v-848q0 -43 28 -58.5t114 -18.5v-25h-410v195
q-132 -211 -330 -211z" />
    <glyph glyph-name="udieresis" unicode="&#xfc;" horiz-adv-x="1191" 
d="M774 1087q-65 0 -107 43.5t-42 108.5t42 109.5t107 44.5t107.5 -44.5t42.5 -109.5t-42.5 -108.5t-107.5 -43.5zM356 1087q-64 0 -106.5 43.5t-42.5 108.5t42.5 109.5t106.5 44.5q65 0 108.5 -44.5t43.5 -109.5t-43 -108.5t-109 -43.5zM438 -16q-131 0 -204.5 76
t-73.5 223v534q0 50 -30 75t-112 26v24l414 8v-643q0 -196 150 -196q101 0 182 129v577q0 49 -31 73.5t-112 27.5v24l415 8v-848q0 -43 28 -58.5t114 -18.5v-25h-410v195q-132 -211 -330 -211z" />
    <glyph glyph-name="yacute" unicode="&#xfd;" horiz-adv-x="1034" 
d="M526 -39l-389 825q-34 74 -67.5 100t-108.5 36v24h563v-24q-86 -7 -108.5 -32t2.5 -79l235 -549l178 451q41 104 14 149t-140 60v24h395v-24q-134 -13 -191 -156l-358 -860q-71 -173 -151 -244.5t-175 -71.5q-88 0 -138 42.5t-50 115.5q0 55 37 96t98 41q54 0 91.5 -38
t37.5 -95q0 -72 -51 -119q77 8 140 74.5t124 224.5zM575 1077l72 256q29 120 57 164.5t82 44.5q50 0 84.5 -31t34.5 -77q0 -32 -25.5 -68t-99.5 -115l-170 -174h-35z" />
    <glyph glyph-name="thorn" unicode="&#xfe;" horiz-adv-x="1148" 
d="M406 1468v-641q146 136 299 136q179 0 278.5 -130.5t99.5 -349.5q0 -140 -50.5 -252t-151 -179.5t-236.5 -67.5q-128 0 -239 49v-322q0 -42 37.5 -57.5t152.5 -18.5v-24h-604v24q85 1 113 17t28 59v1612q0 54 -29 76.5t-124 23.5v25zM596 23q95 0 146 113.5t51 336.5
q0 112 -21 198t-70.5 140.5t-123.5 54.5q-85 0 -172 -75v-633q58 -135 190 -135z" />
    <glyph glyph-name="ydieresis" unicode="&#xff;" horiz-adv-x="1034" 
d="M526 -39l-389 825q-34 74 -67.5 100t-108.5 36v24h563v-24q-86 -7 -108.5 -32t2.5 -79l235 -549l178 451q41 104 14 149t-140 60v24h395v-24q-134 -13 -191 -156l-358 -860q-71 -173 -151 -244.5t-175 -71.5q-88 0 -138 42.5t-50 115.5q0 55 37 96t98 41q54 0 91.5 -38
t37.5 -95q0 -72 -51 -119q77 8 140 74.5t124 224.5zM799 1087q-65 0 -107.5 43.5t-42.5 108.5t42.5 109.5t107.5 44.5t107 -44.5t42 -109.5t-42 -108.5t-107 -43.5zM381 1087q-64 0 -107 43.5t-43 108.5t43 109.5t107 44.5q65 0 108 -44.5t43 -109.5t-42.5 -108.5
t-108.5 -43.5z" />
    <glyph glyph-name="Amacron" unicode="&#x100;" 
d="M948 188l-127 355h-471l-69 -189q-63 -166 -33.5 -235.5t172.5 -89.5v-29h-483v29q100 26 165.5 100.5t128.5 232.5l424 1098h140l462 -1257q24 -64 46.5 -94.5t64 -49t119.5 -30.5v-29h-733v29q145 6 184.5 40.5t9.5 118.5zM367 584h440l-209 592h-10zM418 1630v96h610
v-96h-610z" />
    <glyph glyph-name="amacron" unicode="&#x101;" horiz-adv-x="1046" 
d="M348 -10q-137 0 -209.5 71t-72.5 168q0 64 33.5 121.5t95.5 91.5q64 35 160 54t180.5 27.5t107.5 17.5v166q0 110 -35 160.5t-116 50.5q-94 0 -150 -46q55 -55 55 -118q0 -64 -36.5 -102t-104.5 -38q-59 0 -99 40t-40 98q0 95 106 149.5t312 54.5q191 0 285.5 -76.5
t94.5 -242.5v-457q0 -77 33.5 -97t116.5 13l12 -22q-65 -42 -113.5 -62t-105.5 -20q-95 0 -141 37.5t-58 117.5h-8q-142 -157 -303 -157zM496 102q41 0 82 26.5t65 64.5v307q-172 -27 -230.5 -76.5t-58.5 -161.5q0 -73 37 -116.5t105 -43.5zM225 1139v96h611v-96h-611z" />
    <glyph glyph-name="Abreve" unicode="&#x102;" 
d="M948 188l-127 355h-471l-69 -189q-63 -166 -33.5 -235.5t172.5 -89.5v-29h-483v29q100 26 165.5 100.5t128.5 232.5l424 1098h140l462 -1257q24 -64 46.5 -94.5t64 -49t119.5 -30.5v-29h-733v29q145 6 184.5 40.5t9.5 118.5zM367 584h440l-209 592h-10zM723 1579
q-119 0 -198 90t-91 250h31q28 -86 96.5 -130t159.5 -44q93 0 161 44.5t95 129.5h31q-10 -160 -88 -250t-197 -90z" />
    <glyph glyph-name="abreve" unicode="&#x103;" horiz-adv-x="1046" 
d="M348 -10q-137 0 -209.5 71t-72.5 168q0 64 33.5 121.5t95.5 91.5q64 35 160 54t180.5 27.5t107.5 17.5v166q0 110 -35 160.5t-116 50.5q-94 0 -150 -46q55 -55 55 -118q0 -64 -36.5 -102t-104.5 -38q-59 0 -99 40t-40 98q0 95 106 149.5t312 54.5q191 0 285.5 -76.5
t94.5 -242.5v-457q0 -77 33.5 -97t116.5 13l12 -22q-65 -42 -113.5 -62t-105.5 -20q-95 0 -141 37.5t-58 117.5h-8q-142 -157 -303 -157zM496 102q41 0 82 26.5t65 64.5v307q-172 -27 -230.5 -76.5t-58.5 -161.5q0 -73 37 -116.5t105 -43.5zM526 1087q-119 0 -197.5 90
t-90.5 250h30q28 -86 96.5 -130t159.5 -44q93 0 161 44.5t95 129.5h31q-10 -160 -88 -250t-197 -90z" />
    <glyph glyph-name="Aogonek" unicode="&#x104;" 
d="M1102 -504q-90 0 -144.5 45.5t-54.5 124.5q0 81 53 144t160 137l78 53h-440v29q145 6 184.5 40.5t9.5 118.5l-127 355h-471l-69 -189q-63 -166 -33.5 -235.5t172.5 -89.5v-29h-483v29q100 26 165.5 100.5t128.5 232.5l424 1098h140l462 -1257q24 -64 46.5 -94.5t64 -49
t119.5 -30.5v-29h-240l-43 -49q-110 -119 -110 -250q0 -62 30.5 -97.5t85.5 -35.5q67 0 136 39l14 -27q-47 -38 -119 -61t-139 -23zM367 584h440l-209 592h-10z" />
    <glyph glyph-name="aogonek" unicode="&#x105;" horiz-adv-x="1046" 
d="M1077 74q-20 -13 -66 -54t-73 -71q-121 -121 -121 -250q0 -61 30 -96t85 -35q68 0 137 39l12 -27q-47 -38 -118.5 -61t-139.5 -23q-90 0 -144 45.5t-54 122.5q0 58 32.5 110.5t83.5 93.5t138 95l63 41q-40 -12 -84 -12q-95 0 -141 37.5t-58 117.5h-8q-142 -157 -303 -157
q-137 0 -209.5 71t-72.5 168q0 64 33.5 121.5t95.5 91.5q64 35 160 54t180.5 27.5t107.5 17.5v166q0 110 -35 160.5t-116 50.5q-94 0 -150 -46q55 -55 55 -118q0 -64 -36.5 -102t-104.5 -38q-59 0 -99 40t-40 98q0 95 106 149.5t312 54.5q191 0 285.5 -76.5t94.5 -242.5
v-457q0 -77 33.5 -97t116.5 13zM496 102q41 0 82 26.5t65 64.5v307q-172 -27 -230.5 -76.5t-58.5 -161.5q0 -73 37 -116.5t105 -43.5z" />
    <glyph glyph-name="Cacute" unicode="&#x106;" horiz-adv-x="1476" 
d="M694 1569l72 256q29 120 57 164.5t82 44.5q50 0 84.5 -31.5t34.5 -77.5q0 -32 -25.5 -67.5t-99.5 -114.5l-170 -174h-35zM791 -35q-328 0 -518.5 194.5t-190.5 530.5q0 172 61 318.5t165.5 245t243.5 153.5t294 55q212 0 379 -92l92 103h24v-531h-30q-53 120 -102 203.5
t-108.5 149t-130 97t-155.5 31.5q-180 0 -290.5 -181.5t-110.5 -516.5q0 -168 38 -299.5t104 -213t150.5 -123.5t182.5 -42q322 0 473 332l37 -19q-28 -64 -64 -118.5t-89.5 -107t-117 -89t-150.5 -58.5t-187 -22z" />
    <glyph glyph-name="cacute" unicode="&#x107;" horiz-adv-x="987" 
d="M418 1077l71 256q29 119 57.5 164t82.5 45q50 0 84.5 -31t34.5 -77q0 -32 -25.5 -68t-99.5 -115l-170 -174h-35zM539 -16q-221 0 -350.5 128t-129.5 345q0 154 67 270t181.5 176t259.5 60q186 0 282.5 -70t96.5 -158q0 -67 -37.5 -108t-105.5 -41q-72 0 -112 40.5
t-40 100.5q0 45 22 79.5t52 49.5q-47 70 -150 70t-164 -120t-61 -321q0 -84 17.5 -157.5t52 -132.5t92 -93t131.5 -34q168 0 293 163l22 -14q-72 -113 -173 -173t-246 -60z" />
    <glyph glyph-name="Cdotaccent" unicode="&#x10a;" horiz-adv-x="1476" 
d="M791 -35q-328 0 -518.5 194.5t-190.5 530.5q0 172 61 318.5t165.5 245t243.5 153.5t294 55q212 0 379 -92l92 103h24v-531h-30q-53 120 -102 203.5t-108.5 149t-130 97t-155.5 31.5q-180 0 -290.5 -181.5t-110.5 -516.5q0 -168 38 -299.5t104 -213t150.5 -123.5
t182.5 -42q322 0 473 332l37 -19q-28 -64 -64 -118.5t-89.5 -107t-117 -89t-150.5 -58.5t-187 -22zM793 1573q-73 0 -116.5 42t-43.5 116q0 73 44.5 119t115.5 46q73 0 117 -43.5t44 -115.5q0 -74 -44 -119t-117 -45z" />
    <glyph glyph-name="cdotaccent" unicode="&#x10b;" horiz-adv-x="987" 
d="M539 -16q-221 0 -350.5 128t-129.5 345q0 154 67 270t181.5 176t259.5 60q186 0 282.5 -70t96.5 -158q0 -67 -37.5 -108t-105.5 -41q-72 0 -112 40.5t-40 100.5q0 45 22 79.5t52 49.5q-47 70 -150 70t-164 -120t-61 -321q0 -84 17.5 -157.5t52 -132.5t92 -93t131.5 -34
q168 0 293 163l22 -14q-72 -113 -173 -173t-246 -60zM539 1087q-73 0 -116.5 42t-43.5 116q0 73 44.5 119.5t115.5 46.5q73 0 117 -44t44 -116q0 -74 -44 -119t-117 -45z" />
    <glyph glyph-name="Ccaron" unicode="&#x10c;" horiz-adv-x="1476" 
d="M780 1563l-276 417h33l264 -182l266 182h33l-293 -417h-27zM791 -35q-328 0 -518.5 194.5t-190.5 530.5q0 172 61 318.5t165.5 245t243.5 153.5t294 55q212 0 379 -92l92 103h24v-531h-30q-53 120 -102 203.5t-108.5 149t-130 97t-155.5 31.5q-180 0 -290.5 -181.5
t-110.5 -516.5q0 -168 38 -299.5t104 -213t150.5 -123.5t182.5 -42q322 0 473 332l37 -19q-28 -64 -64 -118.5t-89.5 -107t-117 -89t-150.5 -58.5t-187 -22z" />
    <glyph glyph-name="ccaron" unicode="&#x10d;" horiz-adv-x="987" 
d="M524 1077l-276 418h33l264 -182l266 182h33l-293 -418h-27zM539 -16q-221 0 -350.5 128t-129.5 345q0 154 67 270t181.5 176t259.5 60q186 0 282.5 -70t96.5 -158q0 -67 -37.5 -108t-105.5 -41q-72 0 -112 40.5t-40 100.5q0 45 22 79.5t52 49.5q-47 70 -150 70t-164 -120
t-61 -321q0 -84 17.5 -157.5t52 -132.5t92 -93t131.5 -34q168 0 293 163l22 -14q-72 -113 -173 -173t-246 -60z" />
    <glyph glyph-name="Dcaron" unicode="&#x10e;" horiz-adv-x="1597" 
d="M774 1569l-276 418h32l265 -183l266 183h33l-293 -418h-27zM63 0v29q124 4 168.5 30t44.5 86v1137q0 61 -45 88t-168 31v26h670q191 0 340.5 -51t244.5 -143t144 -217t49 -277q0 -118 -26 -224t-84 -201t-143 -164t-211.5 -109.5t-280.5 -40.5h-703zM575 39h127
q137 0 226.5 32t148.5 111.5t84 208.5t25 328q0 157 -20 272t-58 192t-99 123t-135.5 65.5t-175.5 19.5h-123v-1352z" />
    <glyph glyph-name="dcaron" unicode="&#x10f;" horiz-adv-x="1157" 
d="M1196 1085l-25 273q-4 78 -4 102q0 60 30.5 86.5t72.5 26.5q44 0 72 -23t28 -65q0 -40 -35 -127l-110 -273h-29zM469 -16q-190 0 -300 131.5t-110 341.5q0 102 33 193.5t93 161t151 110.5t201 41q108 0 200 -39v399q0 54 -29.5 76.5t-123.5 23.5v25l426 20v-1355
q0 -46 29.5 -70.5t111.5 -24.5v-18l-410 -8v119q-114 -127 -272 -127zM590 84q49 0 80.5 15t66.5 46v680q-67 99 -178 99q-97 0 -154 -122.5t-57 -322.5q0 -170 63.5 -282.5t178.5 -112.5z" />
    <glyph glyph-name="Dcroat" unicode="&#x110;" horiz-adv-x="1597" 
d="M63 0v29q124 4 168.5 30t44.5 86v572h-204v53h204v512q0 61 -45 88t-168 31v26h670q191 0 340.5 -51t244.5 -143t144 -217t49 -277q0 -118 -26 -224t-84 -201t-143 -164t-211.5 -109.5t-280.5 -40.5h-703zM575 39h127q137 0 226.5 32t148.5 111.5t84 208.5t25 328
q0 157 -20 272t-58 192t-99 123t-135.5 65.5t-175.5 19.5h-123v-621h279v-53h-279v-678z" />
    <glyph glyph-name="dcroat" unicode="&#x111;" horiz-adv-x="1157" 
d="M469 -16q-190 0 -300 131.5t-110 341.5q0 102 33 193.5t93 161t151 110.5t201 41q108 0 200 -39v247h-266v46h266v106q0 54 -29.5 76.5t-123.5 23.5v25l426 20v-251h135v-46h-135v-1058q0 -46 29.5 -70.5t111.5 -24.5v-18l-410 -8v119q-114 -127 -272 -127zM590 84
q49 0 80.5 15t66.5 46v680q-67 99 -178 99q-97 0 -154 -122.5t-57 -322.5q0 -170 63.5 -282.5t178.5 -112.5z" />
    <glyph glyph-name="Emacron" unicode="&#x112;" horiz-adv-x="1464" 
d="M63 0v29q124 4 168.5 30t44.5 86v1137q0 61 -45 88t-168 31v26h1223l6 -487l-30 -2q-41 90 -68 144.5t-62 112.5t-66.5 89.5t-74 58.5t-91.5 37.5t-112 10.5h-213v-631h87q126 0 199.5 62.5t113.5 215.5h26v-598h-26q-40 155 -113.5 219t-199.5 64h-87v-684h203
q90 0 157 17t118 49t97 93.5t83 133t86 186.5l31 -4l-11 -514h-1276zM444 1630v96h611v-96h-611z" />
    <glyph glyph-name="emacron" unicode="&#x113;" horiz-adv-x="1019" 
d="M545 -16q-220 0 -353 127.5t-133 349.5q0 113 38.5 208.5t104.5 159t154 99t187 35.5q210 0 321.5 -126t100.5 -329h-617v-39v-2q0 -190 79 -293.5t230 -103.5q89 0 155 41.5t128 126.5l23 -15q-72 -115 -172.5 -177t-245.5 -62zM530 924q-167 0 -180 -379h336
q19 178 -21 278.5t-135 100.5zM240 1139v96h610v-96h-610z" />
    <glyph glyph-name="Ebreve" unicode="&#x114;" horiz-adv-x="1464" 
d="M63 0v29q124 4 168.5 30t44.5 86v1137q0 61 -45 88t-168 31v26h1223l6 -487l-30 -2q-41 90 -68 144.5t-62 112.5t-66.5 89.5t-74 58.5t-91.5 37.5t-112 10.5h-213v-631h87q126 0 199.5 62.5t113.5 215.5h26v-598h-26q-40 155 -113.5 219t-199.5 64h-87v-684h203
q90 0 157 17t118 49t97 93.5t83 133t86 186.5l31 -4l-11 -514h-1276zM743 1579q-119 0 -197.5 90t-90.5 250h30q28 -86 96.5 -130t159.5 -44q93 0 161 44.5t95 129.5h31q-10 -160 -88 -250t-197 -90z" />
    <glyph glyph-name="ebreve" unicode="&#x115;" horiz-adv-x="1019" 
d="M545 -16q-220 0 -353 127.5t-133 349.5q0 113 38.5 208.5t104.5 159t154 99t187 35.5q210 0 321.5 -126t100.5 -329h-617v-39v-2q0 -190 79 -293.5t230 -103.5q89 0 155 41.5t128 126.5l23 -15q-72 -115 -172.5 -177t-245.5 -62zM530 924q-167 0 -180 -379h336
q19 178 -21 278.5t-135 100.5zM535 1087q-119 0 -198 90t-91 250h30q28 -86 96.5 -130t159.5 -44q93 0 161 44.5t95 129.5h31q-10 -160 -87.5 -250t-196.5 -90z" />
    <glyph glyph-name="Edotaccent" unicode="&#x116;" horiz-adv-x="1464" 
d="M63 0v29q124 4 168.5 30t44.5 86v1137q0 61 -45 88t-168 31v26h1223l6 -487l-30 -2q-41 90 -68 144.5t-62 112.5t-66.5 89.5t-74 58.5t-91.5 37.5t-112 10.5h-213v-631h87q126 0 199.5 62.5t113.5 215.5h26v-598h-26q-40 155 -113.5 219t-199.5 64h-87v-684h203
q90 0 157 17t118 49t97 93.5t83 133t86 186.5l31 -4l-11 -514h-1276zM741 1579q-73 0 -116 42t-43 116t44.5 120t114.5 46q73 0 117.5 -44t44.5 -116q0 -74 -44.5 -119t-117.5 -45z" />
    <glyph glyph-name="edotaccent" unicode="&#x117;" horiz-adv-x="1019" 
d="M545 -16q-220 0 -353 127.5t-133 349.5q0 113 38.5 208.5t104.5 159t154 99t187 35.5q210 0 321.5 -126t100.5 -329h-617v-39v-2q0 -190 79 -293.5t230 -103.5q89 0 155 41.5t128 126.5l23 -15q-72 -115 -172.5 -177t-245.5 -62zM530 924q-167 0 -180 -379h336
q19 178 -21 278.5t-135 100.5zM532 1087q-73 0 -116 42t-43 116t44.5 120t114.5 46q73 0 117.5 -44t44.5 -116q0 -74 -44.5 -119t-117.5 -45z" />
    <glyph glyph-name="Eogonek" unicode="&#x118;" horiz-adv-x="1464" 
d="M63 0v29q124 4 168.5 30t44.5 86v1137q0 61 -45 88t-168 31v26h1223l6 -487l-30 -2q-41 90 -68 144.5t-62 112.5t-66.5 89.5t-74 58.5t-91.5 37.5t-112 10.5h-213v-631h87q126 0 199.5 62.5t113.5 215.5h26v-598h-26q-40 155 -113.5 219t-199.5 64h-87v-684h203
q90 0 157 17t118 49t97 93.5t83 133t86 186.5l31 -4l-11 -514h-145l-43 -49q-111 -120 -111 -250q0 -62 31 -97.5t86 -35.5q66 0 135 39l15 -27q-47 -38 -119 -61t-139 -23q-90 0 -144.5 45.5t-54.5 124.5q0 81 53 144t160 137l78 53h-1078z" />
    <glyph glyph-name="eogonek" unicode="&#x119;" horiz-adv-x="1019" 
d="M940 238l23 -15q-36 -60 -105 -129q-27 -22 -76.5 -71t-70.5 -72q-109 -118 -109 -250q0 -62 31 -97.5t86 -35.5q66 0 135 39l12 -27q-47 -38 -118.5 -61t-139.5 -23q-90 0 -144 45.5t-54 124.5q0 81 53 144t160 137l94 65q-75 -28 -172 -28q-220 0 -353 127.5
t-133 349.5q0 113 38.5 208.5t104.5 159t154 99t187 35.5q210 0 321.5 -126t100.5 -329h-617v-39v-2q0 -190 79 -293.5t230 -103.5q89 0 155 41.5t128 126.5zM530 924q-167 0 -180 -379h336q19 178 -21 278.5t-135 100.5z" />
    <glyph glyph-name="Ecaron" unicode="&#x11a;" horiz-adv-x="1464" 
d="M725 1569l-276 418h32l264 -183l267 183h32l-292 -418h-27zM63 0v29q124 4 168.5 30t44.5 86v1137q0 61 -45 88t-168 31v26h1223l6 -487l-30 -2q-41 90 -68 144.5t-62 112.5t-66.5 89.5t-74 58.5t-91.5 37.5t-112 10.5h-213v-631h87q126 0 199.5 62.5t113.5 215.5h26
v-598h-26q-40 155 -113.5 219t-199.5 64h-87v-684h203q90 0 157 17t118 49t97 93.5t83 133t86 186.5l31 -4l-11 -514h-1276z" />
    <glyph glyph-name="ecaron" unicode="&#x11b;" horiz-adv-x="1019" 
d="M545 -16q-220 0 -353 127.5t-133 349.5q0 113 38.5 208.5t104.5 159t154 99t187 35.5q210 0 321.5 -126t100.5 -329h-617v-39v-2q0 -190 79 -293.5t230 -103.5q89 0 155 41.5t128 126.5l23 -15q-72 -115 -172.5 -177t-245.5 -62zM530 924q-167 0 -180 -379h336
q19 178 -21 278.5t-135 100.5zM520 1077l-276 418h32l265 -182l266 182h33l-293 -418h-27z" />
    <glyph glyph-name="Gbreve" unicode="&#x11e;" horiz-adv-x="1554" 
d="M825 -35q-156 0 -290.5 50t-234.5 143.5t-157 235.5t-57 317q0 221 103.5 394t275.5 265t379 92q216 0 379 -92l100 103h23v-498h-29q-105 225 -221 336.5t-269 111.5q-84 0 -156.5 -42t-130 -125t-91 -222t-33.5 -319t34.5 -319.5t94.5 -223t136 -126t163 -42.5
q157 0 241 72v432q0 61 -48.5 92t-172.5 35v27h664v-27q-92 -6 -124 -31.5t-32 -93.5v-404q-105 -62 -248.5 -101.5t-298.5 -39.5zM801 1579q-119 0 -198 90t-91 250h31q28 -86 96.5 -130t159.5 -44q93 0 161 44.5t95 129.5h30q-10 -160 -87.5 -250t-196.5 -90z" />
    <glyph glyph-name="gbreve" unicode="&#x11f;" horiz-adv-x="980" 
d="M514 -375q133 0 217 57t84 152q0 61 -55 94t-185 33h-260q-106 -54 -106 -145q0 -191 305 -191zM504 360q78 0 108.5 65.5t30.5 215.5q0 281 -158 281q-80 0 -109.5 -64t-29.5 -217q0 -147 37.5 -214t120.5 -67zM496 956q111 0 190 -32q37 84 94.5 136t130.5 52
q60 0 92.5 -32t32.5 -83q0 -42 -26.5 -71t-71.5 -29q-41 0 -72.5 32.5t-31.5 84.5q-31 -10 -61.5 -39t-51.5 -66q87 -38 136.5 -105t49.5 -159q0 -146 -118 -233.5t-293 -87.5q-74 0 -134 14q-62 -20 -88 -42t-26 -54q0 -33 41 -49.5t141 -16.5h205q354 0 354 -248
q0 -139 -145 -238.5t-383 -99.5q-191 0 -311.5 55t-120.5 144q0 141 231 174v6q-89 28 -130.5 79t-41.5 114q0 54 57.5 108t159.5 82q-104 35 -163.5 107t-59.5 178q0 144 118 231.5t296 87.5zM510 1087q-119 0 -198 90t-91 250h31q28 -86 96.5 -130t159.5 -44
q93 0 161 44.5t95 129.5h31q-10 -160 -88 -250t-197 -90z" />
    <glyph glyph-name="Gdotaccent" unicode="&#x120;" horiz-adv-x="1554" 
d="M825 -35q-156 0 -290.5 50t-234.5 143.5t-157 235.5t-57 317q0 221 103.5 394t275.5 265t379 92q216 0 379 -92l100 103h23v-498h-29q-105 225 -221 336.5t-269 111.5q-84 0 -156.5 -42t-130 -125t-91 -222t-33.5 -319t34.5 -319.5t94.5 -223t136 -126t163 -42.5
q157 0 241 72v432q0 61 -48.5 92t-172.5 35v27h664v-27q-92 -6 -124 -31.5t-32 -93.5v-404q-105 -62 -248.5 -101.5t-298.5 -39.5zM805 1579q-73 0 -116.5 42t-43.5 116q0 73 44.5 119.5t115.5 46.5q73 0 117.5 -44t44.5 -116q0 -74 -44.5 -119t-117.5 -45z" />
    <glyph glyph-name="gdotaccent" unicode="&#x121;" horiz-adv-x="980" 
d="M514 -375q133 0 217 57t84 152q0 61 -55 94t-185 33h-260q-106 -54 -106 -145q0 -191 305 -191zM504 360q78 0 108.5 65.5t30.5 215.5q0 281 -158 281q-80 0 -109.5 -64t-29.5 -217q0 -147 37.5 -214t120.5 -67zM496 956q111 0 190 -32q37 84 94.5 136t130.5 52
q60 0 92.5 -32t32.5 -83q0 -42 -26.5 -71t-71.5 -29q-41 0 -72.5 32.5t-31.5 84.5q-31 -10 -61.5 -39t-51.5 -66q87 -38 136.5 -105t49.5 -159q0 -146 -118 -233.5t-293 -87.5q-74 0 -134 14q-62 -20 -88 -42t-26 -54q0 -33 41 -49.5t141 -16.5h205q354 0 354 -248
q0 -139 -145 -238.5t-383 -99.5q-191 0 -311.5 55t-120.5 144q0 141 231 174v6q-89 28 -130.5 79t-41.5 114q0 54 57.5 108t159.5 82q-104 35 -163.5 107t-59.5 178q0 144 118 231.5t296 87.5zM508 1087q-73 0 -116.5 42t-43.5 116q0 73 44.5 119.5t115.5 46.5
q73 0 117.5 -44t44.5 -116q0 -74 -44.5 -119t-117.5 -45z" />
    <glyph glyph-name="Gcommaaccent" unicode="&#x122;" horiz-adv-x="1554" 
d="M653 -655l-16 22q175 108 184 244l-8 4q-22 -14 -53 -14q-50 0 -87.5 36.5t-37.5 96.5q0 59 38.5 101t98.5 42q75 0 119.5 -51t44.5 -135q0 -107 -74 -198.5t-209 -147.5zM825 -35q-156 0 -290.5 50t-234.5 143.5t-157 235.5t-57 317q0 221 103.5 394t275.5 265t379 92
q216 0 379 -92l100 103h23v-498h-29q-105 225 -221 336.5t-269 111.5q-84 0 -156.5 -42t-130 -125t-91 -222t-33.5 -319t34.5 -319.5t94.5 -223t136 -126t163 -42.5q157 0 241 72v432q0 61 -48.5 92t-172.5 35v27h664v-27q-92 -6 -124 -31.5t-32 -93.5v-404
q-105 -62 -248.5 -101.5t-298.5 -39.5z" />
    <glyph glyph-name="gcommaaccent" unicode="&#x123;" horiz-adv-x="980" 
d="M635 1632l16 -22q-175 -108 -184 -244l8 -4q22 14 53 14q50 0 87.5 -36.5t37.5 -96.5q0 -59 -38.5 -101t-98.5 -42q-75 0 -119.5 51t-44.5 135q0 107 74 198.5t209 147.5zM514 -375q133 0 217 57t84 152q0 61 -55 94t-185 33h-260q-106 -54 -106 -145q0 -191 305 -191z
M504 360q78 0 108.5 65.5t30.5 215.5q0 281 -158 281q-80 0 -109.5 -64t-29.5 -217q0 -147 37.5 -214t120.5 -67zM496 956q111 0 190 -32q37 84 94.5 136t130.5 52q60 0 92.5 -32t32.5 -83q0 -42 -26.5 -71t-71.5 -29q-41 0 -72.5 32.5t-31.5 84.5q-31 -10 -61.5 -39
t-51.5 -66q87 -38 136.5 -105t49.5 -159q0 -146 -118 -233.5t-293 -87.5q-74 0 -134 14q-62 -20 -88 -42t-26 -54q0 -33 41 -49.5t141 -16.5h205q354 0 354 -248q0 -139 -145 -238.5t-383 -99.5q-191 0 -311.5 55t-120.5 144q0 141 231 174v6q-89 28 -130.5 79t-41.5 114
q0 54 57.5 108t159.5 82q-104 35 -163.5 107t-59.5 178q0 144 118 231.5t296 87.5z" />
    <glyph glyph-name="Hbar" unicode="&#x126;" horiz-adv-x="1726" 
d="M63 0v29q125 4 169 29.5t44 86.5v902h-198v49h198v188q0 60 -44.5 86.5t-168.5 30.5v26h709v-26q-111 -5 -154 -30.5t-43 -86.5v-188h578v188q0 61 -44 86.5t-155 30.5v26h711v-26q-125 -4 -169 -30t-44 -87v-188h199v-49h-199v-902q0 -62 43.5 -87t169.5 -29v-29h-711
v29q112 5 155.5 29.5t43.5 86.5v576h-578v-576q0 -62 42.5 -86.5t154.5 -29.5v-29h-709zM575 762h578v285h-578v-285z" />
    <glyph glyph-name="hbar" unicode="&#x127;" horiz-adv-x="1198" 
d="M25 0v25q85 1 113 16.5t28 58.5v1071h-137v46h137v106q0 54 -30 76.5t-124 23.5v25l426 20v-251h264v-46h-264v-426q66 99 160 155t193 56q258 0 258 -294v-562q0 -44 26.5 -59t114.5 -16v-25h-524v25q61 2 85.5 17.5t24.5 57.5v541q0 195 -149 195q-104 0 -189 -136
v-600q0 -42 24 -57.5t85 -17.5v-25h-522z" />
    <glyph glyph-name="Imacron" unicode="&#x12a;" horiz-adv-x="890" 
d="M78 0v29q129 4 174 29.5t45 86.5v1137q0 61 -45 88t-174 31v26h735v-26q-129 -4 -174 -31t-45 -88v-1137q0 -61 45 -86.5t174 -29.5v-29h-735zM141 1630v96h611v-96h-611z" />
    <glyph glyph-name="imacron" unicode="&#x12b;" horiz-adv-x="636" 
d="M53 1149v96h529v-96h-529zM41 0v25q87 1 117 16.5t30 58.5v705q0 50 -32 75.5t-115 26.5v25l420 18v-850q0 -44 26.5 -59t116.5 -16v-25h-563z" />
    <glyph glyph-name="Ibreve" unicode="&#x12c;" horiz-adv-x="890" 
d="M78 0v29q129 4 174 29.5t45 86.5v1137q0 61 -45 88t-174 31v26h735v-26q-129 -4 -174 -31t-45 -88v-1137q0 -61 45 -86.5t174 -29.5v-29h-735zM446 1579q-119 0 -197.5 90t-90.5 250h30q28 -86 96.5 -130t159.5 -44q93 0 161 44.5t95 129.5h31q-10 -160 -88 -250
t-197 -90z" />
    <glyph glyph-name="ibreve" unicode="&#x12d;" horiz-adv-x="636" 
d="M41 0v25q87 1 117 16.5t30 58.5v705q0 50 -32 75.5t-115 26.5v25l420 18v-850q0 -44 26.5 -59t116.5 -16v-25h-563zM322 1087q-119 0 -198 90t-91 250h30q28 -86 96.5 -130t159.5 -44q93 0 161 44.5t95 129.5h31q-10 -160 -87.5 -250t-196.5 -90z" />
    <glyph glyph-name="Iogonek" unicode="&#x12e;" horiz-adv-x="890" 
d="M78 0v29q129 4 174 29.5t45 86.5v1137q0 61 -45 88t-174 31v26h735v-26q-129 -4 -174 -31t-45 -88v-1137q0 -61 45 -86.5t174 -29.5v-29h-291l-43 -49q-110 -119 -110 -250q0 -62 30.5 -97.5t85.5 -35.5q67 0 136 39l14 -27q-47 -38 -119 -61t-139 -23q-90 0 -144.5 45.5
t-54.5 124.5q0 81 53 144t160 137l78 53h-391z" />
    <glyph glyph-name="iogonek" unicode="&#x12f;" horiz-adv-x="636" 
d="M47 0v25q88 1 118 16.5t30 58.5v705q0 49 -32.5 75t-115.5 27v25l420 18v-850q0 -44 27 -59t116 -16v-25h-174l-43 -49q-110 -119 -110 -250q0 -62 30.5 -97.5t85.5 -35.5q67 0 136 39l14 -27q-47 -38 -119 -61t-139 -23q-90 0 -144.5 45.5t-54.5 124.5q0 81 53 144
t160 137l78 53h-336zM326 1108q-73 0 -117.5 42t-44.5 116t45 120t117 46t115.5 -44t43.5 -116q0 -75 -43.5 -119.5t-115.5 -44.5z" />
    <glyph glyph-name="Idotaccent" unicode="&#x130;" horiz-adv-x="890" 
d="M78 0v29q129 4 174 29.5t45 86.5v1137q0 61 -45 88t-174 31v26h735v-26q-129 -4 -174 -31t-45 -88v-1137q0 -61 45 -86.5t174 -29.5v-29h-735zM444 1579q-73 0 -116 42t-43 116t44.5 120t114.5 46q73 0 117.5 -44t44.5 -116q0 -74 -44.5 -119t-117.5 -45z" />
    <glyph glyph-name="dotlessi" unicode="&#x131;" horiz-adv-x="636" 
d="M41 0v25q87 1 117 16.5t30 58.5v705q0 50 -32 75.5t-115 26.5v25l420 18v-850q0 -44 26.5 -59t116.5 -16v-25h-563z" />
    <glyph glyph-name="Kcommaaccent" unicode="&#x136;" horiz-adv-x="1560" 
d="M666 -655l-17 22q176 109 185 244l-9 4q-22 -14 -53 -14q-50 0 -87.5 36.5t-37.5 96.5q0 59 38.5 101t98.5 42q75 0 119.5 -51t44.5 -135q0 -107 -73.5 -198.5t-208.5 -147.5zM561 641l459 489q48 51 72 95t23 81t-38 62t-110 33v26h561v-26q-130 -26 -242 -102
t-272 -242l-144 -150l453 -647q35 -50 51.5 -72.5t42.5 -54t42 -44t41 -28t50.5 -22t59.5 -10.5v-29h-682v29q109 9 126.5 48t-44.5 128l-338 493l-111 -116v-437q0 -62 42 -86.5t151 -29.5v-29h-705v29q125 4 169 29.5t44 86.5v1139q0 60 -44.5 86.5t-168.5 30.5v26h709
v-24q-111 -6 -154 -32t-43 -87v-643z" />
    <glyph glyph-name="kcommaaccent" unicode="&#x137;" horiz-adv-x="1140" 
d="M438 -655l-16 22q175 108 184 244l-8 4q-22 -14 -53 -14q-50 0 -87.5 36.5t-37.5 96.5q0 59 38.5 101t98.5 42q75 0 119.5 -51t44.5 -135q0 -107 -74 -198.5t-209 -147.5zM438 383v-283q0 -42 23 -57.5t80 -17.5v-25h-516v25q85 1 113 16.5t28 58.5v1223q0 54 -30 76.5
t-124 23.5v25l426 20v-1036l277 295q69 77 51.5 123.5t-117.5 71.5v24h455v-24q-97 -21 -175 -71t-179 -151l-70 -65l321 -475q57 -83 90 -105t105 -30v-25h-537v25q71 4 83.5 28.5t-25.5 81.5l-207 322z" />
    <glyph glyph-name="Lacute" unicode="&#x139;" horiz-adv-x="1347" 
d="M410 1569l71 256q29 119 57.5 164t82.5 45q50 0 84 -31.5t34 -77.5q0 -32 -25.5 -67.5t-99.5 -114.5l-170 -174h-34zM49 0v29q124 4 168.5 30t44.5 86v1137q0 61 -45 88t-168 31v26h719v-26q-128 -4 -167.5 -29.5t-39.5 -89.5v-1243h121q91 0 157 15t121.5 46t103.5 90.5
t91 137t96 196.5l31 -2l-18 -522h-1215z" />
    <glyph glyph-name="lacute" unicode="&#x13a;" horiz-adv-x="618" 
d="M225 1554l72 256q29 120 57 164.5t82 44.5q50 0 84.5 -31t34.5 -77q0 -32 -25.5 -67.5t-99.5 -114.5l-170 -175h-35zM37 0v25q85 1 112 16.5t27 58.5v1223q0 54 -29.5 76.5t-123.5 23.5v25l426 20v-1368q0 -44 26.5 -59t114.5 -16v-25h-553z" />
    <glyph glyph-name="Lcommaaccent" unicode="&#x13b;" horiz-adv-x="1347" 
d="M557 -655l-16 22q175 108 184 244l-8 4q-22 -14 -53 -14q-50 0 -87.5 36.5t-37.5 96.5q0 59 38.5 101t98.5 42q75 0 119.5 -51t44.5 -135q0 -107 -74 -198.5t-209 -147.5zM49 0v29q124 4 168.5 30t44.5 86v1137q0 61 -45 88t-168 31v26h719v-26q-128 -4 -167.5 -29.5
t-39.5 -89.5v-1243h121q91 0 157 15t121.5 46t103.5 90.5t91 137t96 196.5l31 -2l-18 -522h-1215z" />
    <glyph glyph-name="lcommaaccent" unicode="&#x13c;" horiz-adv-x="618" 
d="M176 -655l-16 22q175 108 184 244l-8 4q-22 -14 -53 -14q-50 0 -87.5 36.5t-37.5 96.5q0 59 38.5 101t98.5 42q75 0 119.5 -51t44.5 -135q0 -107 -74 -198.5t-209 -147.5zM37 0v25q85 1 112 16.5t27 58.5v1223q0 54 -29.5 76.5t-123.5 23.5v25l426 20v-1368
q0 -44 26.5 -59t114.5 -16v-25h-553z" />
    <glyph glyph-name="Lcaron" unicode="&#x13d;" horiz-adv-x="1347" 
d="M924 1044l-25 273q-4 78 -4 102q0 60 30 86.5t72 26.5q44 0 72.5 -23.5t28.5 -64.5q0 -40 -35 -127l-111 -273h-28zM49 0v29q124 4 168.5 30t44.5 86v1137q0 61 -45 88t-168 31v26h719v-26q-128 -4 -167.5 -29.5t-39.5 -89.5v-1243h121q91 0 157 15t121.5 46t103.5 90.5
t91 137t96 196.5l31 -2l-18 -522h-1215z" />
    <glyph glyph-name="lcaron" unicode="&#x13e;" horiz-adv-x="618" 
d="M637 1085l-25 273q-4 78 -4 102q0 60 30.5 86.5t72.5 26.5q44 0 72 -23t28 -65q0 -40 -35 -127l-110 -273h-29zM37 0v25q85 1 112 16.5t27 58.5v1223q0 54 -29.5 76.5t-123.5 23.5v25l426 20v-1368q0 -44 26.5 -59t114.5 -16v-25h-553z" />
    <glyph glyph-name="Ldot" unicode="&#x13f;" horiz-adv-x="1347" 
d="M49 0v29q124 4 168.5 30t44.5 86v1137q0 61 -45 88t-168 31v26h719v-26q-128 -4 -167.5 -29.5t-39.5 -89.5v-1243h121q113 0 189.5 20t142.5 76t118.5 138t118.5 223l31 -2l-18 -494h-1215zM1055 635q-73 0 -116.5 42t-43.5 116q0 73 44.5 119t115.5 46q73 0 117.5 -43.5
t44.5 -115.5q0 -74 -44.5 -119t-117.5 -45z" />
    <glyph glyph-name="ldot" unicode="&#x140;" horiz-adv-x="866" 
d="M745 512q-70 0 -112.5 41t-42.5 111q0 72 43 116.5t112 44.5q72 0 114 -42t42 -113t-43 -114.5t-113 -43.5zM37 0v25q85 1 112 16.5t27 58.5v1223q0 54 -29.5 76.5t-123.5 23.5v25l426 20v-1368q0 -44 26.5 -59t114.5 -16v-25h-553z" />
    <glyph glyph-name="Lslash" unicode="&#x141;" horiz-adv-x="1347" 
d="M49 0v29q124 4 168.5 30t44.5 86v494l-184 -49l-15 53l199 51v588q0 61 -45 88t-168 31v26h719v-26q-128 -4 -167.5 -29.5t-39.5 -89.5v-510l285 76l12 -49l-297 -80v-680h121q91 0 157 15t121.5 46t103.5 90.5t91 137t96 196.5l31 -2l-18 -522h-1215z" />
    <glyph glyph-name="lslash" unicode="&#x142;" horiz-adv-x="692" 
d="M80 0v25q85 1 112 16.5t27 58.5v557l-158 -41l-12 46l170 45v616q0 54 -29.5 76.5t-123.5 23.5v25l426 20v-690l172 47l12 -45l-184 -49v-631q0 -44 26.5 -59t114.5 -16v-25h-553z" />
    <glyph glyph-name="Nacute" unicode="&#x143;" horiz-adv-x="1656" 
d="M815 1548l72 256q29 120 57 164.5t82 44.5q50 0 84.5 -31t34.5 -77q0 -32 -25.5 -68t-99.5 -115l-170 -174h-35zM1288 -23l-921 1192h-2v-821q0 -158 60 -230t214 -89v-29h-578v29q143 18 197.5 89.5t54.5 229.5v815q0 100 -63 166t-189 72v26h484l788 -1026h2v680
q0 154 -64 227.5t-218 92.5v26h581v-26q-142 -21 -195 -92.5t-53 -227.5v-1104h-98z" />
    <glyph glyph-name="nacute" unicode="&#x144;" horiz-adv-x="1212" 
d="M549 1077l72 256q29 120 57 164.5t82 44.5q50 0 84.5 -31t34.5 -77q0 -32 -25.5 -68t-99.5 -115l-170 -174h-35zM41 0v25q88 1 115.5 16.5t27.5 58.5v705q0 50 -29.5 75.5t-113.5 26.5v25l412 18v-205q66 98 160 154.5t194 56.5q256 0 256 -294v-562q0 -44 26.5 -59
t114.5 -16v-25h-526v25q63 2 88 17.5t25 57.5v543q0 193 -146 193q-100 0 -188 -136v-600q0 -42 23.5 -57.5t84.5 -17.5v-25h-524z" />
    <glyph glyph-name="Ncommaaccent" unicode="&#x145;" horiz-adv-x="1656" 
d="M709 -655l-17 22q176 109 185 244l-9 4q-22 -14 -53 -14q-50 0 -87.5 36.5t-37.5 96.5q0 59 38.5 101t98.5 42q75 0 119.5 -51t44.5 -135q0 -107 -73.5 -198.5t-208.5 -147.5zM1288 -23l-921 1192h-2v-821q0 -158 60 -230t214 -89v-29h-578v29q143 18 197.5 89.5
t54.5 229.5v815q0 100 -63 166t-189 72v26h484l788 -1026h2v680q0 154 -64 227.5t-218 92.5v26h581v-26q-142 -21 -195 -92.5t-53 -227.5v-1104h-98z" />
    <glyph glyph-name="ncommaaccent" unicode="&#x146;" horiz-adv-x="1212" 
d="M479 -655l-16 22q175 108 184 244l-8 4q-22 -14 -53 -14q-50 0 -87.5 36.5t-37.5 96.5q0 59 38.5 101t98.5 42q75 0 119.5 -51t44.5 -135q0 -107 -74 -198.5t-209 -147.5zM41 0v25q88 1 115.5 16.5t27.5 58.5v705q0 50 -29.5 75.5t-113.5 26.5v25l412 18v-205
q66 98 160 154.5t194 56.5q256 0 256 -294v-562q0 -44 26.5 -59t114.5 -16v-25h-526v25q63 2 88 17.5t25 57.5v543q0 193 -146 193q-100 0 -188 -136v-600q0 -42 23.5 -57.5t84.5 -17.5v-25h-524z" />
    <glyph glyph-name="Ncaron" unicode="&#x147;" horiz-adv-x="1656" 
d="M838 1548l-277 418h33l264 -182l266 182h33l-293 -418h-26zM1288 -23l-921 1192h-2v-821q0 -158 60 -230t214 -89v-29h-578v29q143 18 197.5 89.5t54.5 229.5v815q0 100 -63 166t-189 72v26h484l788 -1026h2v680q0 154 -64 227.5t-218 92.5v26h581v-26
q-142 -21 -195 -92.5t-53 -227.5v-1104h-98z" />
    <glyph glyph-name="ncaron" unicode="&#x148;" horiz-adv-x="1212" 
d="M602 1077l-276 418h32l265 -182l266 182h33l-293 -418h-27zM41 0v25q88 1 115.5 16.5t27.5 58.5v705q0 50 -29.5 75.5t-113.5 26.5v25l412 18v-205q66 98 160 154.5t194 56.5q256 0 256 -294v-562q0 -44 26.5 -59t114.5 -16v-25h-526v25q63 2 88 17.5t25 57.5v543
q0 193 -146 193q-100 0 -188 -136v-600q0 -42 23.5 -57.5t84.5 -17.5v-25h-524z" />
    <glyph glyph-name="Omacron" unicode="&#x14c;" horiz-adv-x="1587" 
d="M489 1630v96h611v-96h-611zM793 -35q-151 0 -281.5 53t-224.5 148.5t-147.5 236t-53.5 308.5q0 166 55 307.5t150 238.5t225 151t277 54q152 0 283 -52.5t225.5 -147.5t148 -235t53.5 -308t-55 -310t-150.5 -239t-226 -151t-278.5 -54zM803 4q188 0 278 167.5t90 543.5
q0 370 -98 539t-289 169q-188 0 -278 -167t-90 -541q0 -372 98 -541.5t289 -169.5z" />
    <glyph glyph-name="omacron" unicode="&#x14d;" horiz-adv-x="1107" 
d="M250 1139v96h610v-96h-610zM555 -16q-228 0 -362 131t-134 356q0 222 138 357t358 135q225 0 359.5 -130.5t134.5 -353.5q0 -224 -137.5 -359.5t-356.5 -135.5zM563 23q104 0 149.5 112t45.5 340q0 449 -213 449q-105 0 -149 -109.5t-44 -339.5q0 -225 51 -338.5
t160 -113.5z" />
    <glyph glyph-name="Obreve" unicode="&#x14e;" horiz-adv-x="1587" 
d="M793 -35q-151 0 -281.5 53t-224.5 148.5t-147.5 236t-53.5 308.5q0 166 55 307.5t150 238.5t225 151t277 54q152 0 283 -52.5t225.5 -147.5t148 -235t53.5 -308t-55 -310t-150.5 -239t-226 -151t-278.5 -54zM803 4q188 0 278 167.5t90 543.5q0 370 -98 539t-289 169
q-188 0 -278 -167t-90 -541q0 -372 98 -541.5t289 -169.5zM795 1579q-119 0 -198 90t-91 250h31q28 -86 96.5 -130t159.5 -44q93 0 161 44.5t95 129.5h30q-10 -160 -87.5 -250t-196.5 -90z" />
    <glyph glyph-name="obreve" unicode="&#x14f;" horiz-adv-x="1107" 
d="M555 -16q-228 0 -362 131t-134 356q0 222 138 357t358 135q225 0 359.5 -130.5t134.5 -353.5q0 -224 -137.5 -359.5t-356.5 -135.5zM563 23q104 0 149.5 112t45.5 340q0 449 -213 449q-105 0 -149 -109.5t-44 -339.5q0 -225 51 -338.5t160 -113.5zM555 1087
q-119 0 -198 90t-91 250h31q28 -86 96.5 -130t159.5 -44q93 0 161 44.5t95 129.5h31q-10 -160 -88 -250t-197 -90z" />
    <glyph glyph-name="Ohungarumlaut" unicode="&#x150;" horiz-adv-x="1587" 
d="M924 1569l102 258q45 118 76.5 160.5t83.5 42.5q43 0 70.5 -27t27.5 -68q0 -35 -27.5 -73t-115.5 -117l-195 -176h-22zM592 1569l104 258q45 118 76.5 160.5t83.5 42.5q41 0 68.5 -27t27.5 -68q0 -35 -28.5 -74t-114.5 -116l-195 -176h-22zM793 -35q-151 0 -281.5 53
t-224.5 148.5t-147.5 236t-53.5 308.5q0 166 55 307.5t150 238.5t225 151t277 54q152 0 283 -52.5t225.5 -147.5t148 -235t53.5 -308t-55 -310t-150.5 -239t-226 -151t-278.5 -54zM803 4q188 0 278 167.5t90 543.5q0 370 -98 539t-289 169q-188 0 -278 -167t-90 -541
q0 -372 98 -541.5t289 -169.5z" />
    <glyph glyph-name="ohungarumlaut" unicode="&#x151;" horiz-adv-x="1107" 
d="M666 1077l102 258q45 118 76.5 160.5t83.5 42.5q43 0 70.5 -26.5t27.5 -67.5q0 -35 -28 -73.5t-115 -117.5l-195 -176h-22zM334 1077l104 258q45 118 76.5 160.5t83.5 42.5q41 0 68.5 -26.5t27.5 -67.5q0 -35 -28.5 -75t-114.5 -116l-195 -176h-22zM555 -16
q-228 0 -362 131t-134 356q0 222 138 357t358 135q225 0 359.5 -130.5t134.5 -353.5q0 -224 -137.5 -359.5t-356.5 -135.5zM563 23q104 0 149.5 112t45.5 340q0 449 -213 449q-105 0 -149 -109.5t-44 -339.5q0 -225 51 -338.5t160 -113.5z" />
    <glyph glyph-name="OE" unicode="&#x152;" horiz-adv-x="2213" 
d="M866 0q-191 0 -340.5 51t-244.5 143t-144 217t-49 277q0 118 26 224t84.5 201t144.5 164t213.5 109.5t283.5 40.5h1196l6 -487l-31 -2q-40 90 -67.5 145t-62.5 112.5t-67 89t-74 58.5t-91.5 37.5t-112.5 10.5h-213v-631h86q128 0 201.5 62.5t113.5 215.5h27v-598h-27
q-40 155 -114 219t-201 64h-86v-684h205q90 0 156.5 17t118 49t97 93.5t82 133.5t84.5 186l31 -4l-10 -514h-1221zM866 39q158 0 158 108v1133q0 109 -152 109q-98 0 -169.5 -20t-127.5 -67t-90 -125.5t-51.5 -193.5t-17.5 -274q0 -160 22.5 -279t60.5 -193t96.5 -119
t123 -62t147.5 -17z" />
    <glyph glyph-name="oe" unicode="&#x153;" horiz-adv-x="1714" 
d="M1237 -16q-206 0 -336 137q-134 -137 -346 -137q-228 0 -362 131t-134 356q0 222 138 357t358 135q215 0 348 -140q62 67 148.5 103.5t185.5 36.5q209 0 320 -126t100 -329h-617v-39v-2q0 -190 80 -293.5t232 -103.5q88 0 153 41.5t129 126.5l23 -15q-150 -239 -420 -239
zM758 475q0 449 -213 449q-105 0 -149 -109.5t-44 -339.5q0 -225 51 -338.5t160 -113.5q104 0 149.5 112t45.5 340zM1223 924q-165 0 -181 -379h336q19 179 -20 279t-135 100z" />
    <glyph glyph-name="Racute" unicode="&#x154;" horiz-adv-x="1505" 
d="M676 1569l72 256q29 120 57 164.5t82 44.5q50 0 84.5 -31.5t34.5 -77.5q0 -32 -25.5 -67.5t-99.5 -114.5l-170 -174h-35zM575 739h140q96 0 156.5 17.5t95 59t47 99t12.5 148.5q0 163 -75.5 245.5t-258.5 82.5h-117v-652zM575 705v-560q0 -61 45 -86t158 -30v-29h-715v29
q124 4 168.5 30t44.5 86v1137q0 61 -45 88t-168 31v26h699q155 0 269 -27t180 -76t97 -109.5t31 -133.5q0 -140 -101.5 -230t-332.5 -122v-6q110 -4 186.5 -29t121 -71.5t67 -102t33.5 -133.5l12 -158q10 -66 21 -100.5t36.5 -57.5t61.5 -29.5t104 -8.5v-25
q-114 -18 -217 -18q-64 0 -111 6.5t-81 21.5t-55.5 34.5t-35.5 50.5t-21 64.5t-11 82.5l-17 178q-8 82 -24 131.5t-51 84t-90.5 48t-143.5 13.5h-115z" />
    <glyph glyph-name="racute" unicode="&#x155;" horiz-adv-x="921" 
d="M354 1077l72 256q29 120 57 164.5t82 44.5q50 0 84.5 -31t34.5 -77q0 -32 -25.5 -68t-99.5 -115l-170 -174h-35zM41 0v25q88 1 115.5 16.5t27.5 58.5v705q0 50 -29.5 75.5t-113.5 26.5v25l412 18v-196q51 97 125 150.5t157 53.5q87 0 135 -47.5t48 -122.5
q0 -70 -41 -113.5t-105 -43.5q-70 0 -113 41.5t-43 101.5q0 35 15 82q-45 -6 -91 -44.5t-83 -100.5v-611q0 -43 35 -57.5t147 -17.5v-25h-598z" />
    <glyph glyph-name="Rcommaaccent" unicode="&#x156;" horiz-adv-x="1505" 
d="M649 -655l-16 22q175 108 184 244l-8 4q-22 -14 -53 -14q-50 0 -87.5 36.5t-37.5 96.5q0 59 38.5 101t98.5 42q75 0 119.5 -51t44.5 -135q0 -107 -74 -198.5t-209 -147.5zM575 739h140q96 0 156.5 17.5t95 59t47 99t12.5 148.5q0 163 -75.5 245.5t-258.5 82.5h-117v-652z
M575 705v-560q0 -61 45 -86t158 -30v-29h-715v29q124 4 168.5 30t44.5 86v1137q0 61 -45 88t-168 31v26h699q155 0 269 -27t180 -76t97 -109.5t31 -133.5q0 -140 -101.5 -230t-332.5 -122v-6q110 -4 186.5 -29t121 -71.5t67 -102t33.5 -133.5l12 -158q10 -66 21 -100.5
t36.5 -57.5t61.5 -29.5t104 -8.5v-25q-114 -18 -217 -18q-64 0 -111 6.5t-81 21.5t-55.5 34.5t-35.5 50.5t-21 64.5t-11 82.5l-17 178q-8 82 -24 131.5t-51 84t-90.5 48t-143.5 13.5h-115z" />
    <glyph glyph-name="rcommaaccent" unicode="&#x157;" horiz-adv-x="921" 
d="M193 -655l-17 22q175 108 184 244l-8 4q-22 -14 -53 -14q-50 0 -87.5 36.5t-37.5 96.5q0 59 38.5 101t98.5 42q75 0 119.5 -51t44.5 -135q0 -107 -73.5 -198.5t-208.5 -147.5zM41 0v25q88 1 115.5 16.5t27.5 58.5v705q0 50 -29.5 75.5t-113.5 26.5v25l412 18v-196
q51 97 125 150.5t157 53.5q87 0 135 -47.5t48 -122.5q0 -70 -41 -113.5t-105 -43.5q-70 0 -113 41.5t-43 101.5q0 35 15 82q-45 -6 -91 -44.5t-83 -100.5v-611q0 -43 35 -57.5t147 -17.5v-25h-598z" />
    <glyph glyph-name="Rcaron" unicode="&#x158;" horiz-adv-x="1505" 
d="M739 1569l-276 418h33l264 -183l266 183h33l-293 -418h-27zM575 739h140q96 0 156.5 17.5t95 59t47 99t12.5 148.5q0 163 -75.5 245.5t-258.5 82.5h-117v-652zM575 705v-560q0 -61 45 -86t158 -30v-29h-715v29q124 4 168.5 30t44.5 86v1137q0 61 -45 88t-168 31v26h699
q155 0 269 -27t180 -76t97 -109.5t31 -133.5q0 -140 -101.5 -230t-332.5 -122v-6q110 -4 186.5 -29t121 -71.5t67 -102t33.5 -133.5l12 -158q10 -66 21 -100.5t36.5 -57.5t61.5 -29.5t104 -8.5v-25q-114 -18 -217 -18q-64 0 -111 6.5t-81 21.5t-55.5 34.5t-35.5 50.5
t-21 64.5t-11 82.5l-17 178q-8 82 -24 131.5t-51 84t-90.5 48t-143.5 13.5h-115z" />
    <glyph glyph-name="rcaron" unicode="&#x159;" horiz-adv-x="921" 
d="M481 1077l-276 418h33l264 -182l266 182h33l-293 -418h-27zM41 0v25q88 1 115.5 16.5t27.5 58.5v705q0 50 -29.5 75.5t-113.5 26.5v25l412 18v-196q51 97 125 150.5t157 53.5q87 0 135 -47.5t48 -122.5q0 -70 -41 -113.5t-105 -43.5q-70 0 -113 41.5t-43 101.5
q0 35 15 82q-45 -6 -91 -44.5t-83 -100.5v-611q0 -43 35 -57.5t147 -17.5v-25h-598z" />
    <glyph glyph-name="Sacute" unicode="&#x15a;" horiz-adv-x="1204" 
d="M532 1569l72 256q29 120 57 164.5t82 44.5q50 0 84.5 -31.5t34.5 -77.5q0 -32 -25.5 -67.5t-99.5 -114.5l-170 -174h-35zM104 -35v518h33q223 -471 506 -471q133 0 208 74t75 178q0 119 -86.5 191t-282.5 137q-57 19 -92.5 32t-86.5 35.5t-82.5 43.5t-67.5 53t-56 67
t-33.5 82.5t-13.5 102.5q0 201 136 323.5t353 122.5q176 0 314 -78l90 90h24v-462h-32q-102 212 -204.5 311.5t-221.5 99.5q-103 0 -177.5 -63.5t-74.5 -173.5q0 -114 87 -182.5t279 -129.5q70 -22 119.5 -41t108.5 -54t95.5 -75.5t61.5 -103t25 -139.5q0 -93 -29 -176
t-86.5 -152.5t-155.5 -110.5t-225 -41q-86 0 -187 26.5t-175 68.5l-121 -103h-25z" />
    <glyph glyph-name="sacute" unicode="&#x15b;" horiz-adv-x="894" 
d="M365 1077l71 256q29 120 57 164.5t82 44.5q50 0 84.5 -31t34.5 -77q0 -32 -25.5 -68t-99.5 -115l-170 -174h-34zM74 -16v352h28q103 -168 188 -240.5t191 -72.5q77 0 120.5 41t43.5 106q0 71 -54.5 112.5t-211.5 86.5q-167 47 -236 107.5t-69 172.5q0 142 101.5 228
t270.5 86q152 0 256 -70l58 70h24v-316h-28q-49 77 -83 123.5t-73 84.5t-78.5 53.5t-87.5 15.5q-69 0 -111 -42t-42 -112q0 -59 56 -95t171 -67q173 -42 253.5 -109.5t80.5 -189.5q0 -141 -104.5 -233t-276.5 -92q-58 0 -157.5 24.5t-141.5 50.5l-64 -75h-24z" />
    <glyph glyph-name="Scedilla" unicode="&#x15e;" horiz-adv-x="1204" 
d="M541 -514q-121 0 -211 45l18 33q82 -33 158 -33q57 0 84.5 27t27.5 75t-44 77.5t-117 29.5q-28 0 -70 -10l-12 18l237 225q-86 0 -187 26.5t-175 68.5l-121 -103h-25v518h33q223 -471 506 -471q133 0 208 74t75 178q0 119 -86.5 191t-282.5 137q-57 19 -92.5 32
t-86.5 35.5t-82.5 43.5t-67.5 53t-56 67t-33.5 82.5t-13.5 102.5q0 201 136 323.5t353 122.5q176 0 314 -78l90 90h24v-462h-32q-102 212 -204.5 311.5t-221.5 99.5q-103 0 -177.5 -63.5t-74.5 -173.5q0 -114 87 -182.5t279 -129.5q70 -22 119.5 -41t108.5 -54t95.5 -75.5
t61.5 -103t25 -139.5q0 -87 -25.5 -166.5t-77 -147t-138.5 -111.5t-199 -53l-119 -112l4 -6q121 -4 182.5 -59t61.5 -126q0 -82 -68.5 -134t-187.5 -52z" />
    <glyph glyph-name="scedilla" unicode="&#x15f;" horiz-adv-x="894" 
d="M393 -514q-121 0 -211 45l19 33q82 -33 157 -33q57 0 85 27t28 75t-44.5 77.5t-117.5 29.5q-27 0 -69 -10l-13 18l248 236h-14q-58 0 -157.5 24.5t-141.5 50.5l-64 -75h-24v352h28q103 -168 188 -240.5t191 -72.5q77 0 120.5 41t43.5 106q0 71 -54.5 112.5t-211.5 86.5
q-167 47 -236 107.5t-69 172.5q0 142 101.5 228t270.5 86q152 0 256 -70l58 70h24v-316h-28q-49 77 -83 123.5t-73 84.5t-78.5 53.5t-87.5 15.5q-69 0 -111 -42t-42 -112q0 -59 56 -95t171 -67q173 -42 253.5 -109.5t80.5 -189.5q0 -125 -83 -212.5t-224 -106.5l-134 -127
l5 -6q121 -4 182 -59t61 -126q0 -82 -68.5 -134t-187.5 -52z" />
    <glyph glyph-name="Scaron" unicode="&#x160;" horiz-adv-x="1204" 
d="M608 1569l-276 418h33l264 -183l266 183h33l-293 -418h-27zM104 -35v518h33q223 -471 506 -471q133 0 208 74t75 178q0 119 -86.5 191t-282.5 137q-57 19 -92.5 32t-86.5 35.5t-82.5 43.5t-67.5 53t-56 67t-33.5 82.5t-13.5 102.5q0 201 136 323.5t353 122.5
q176 0 314 -78l90 90h24v-462h-32q-102 212 -204.5 311.5t-221.5 99.5q-103 0 -177.5 -63.5t-74.5 -173.5q0 -114 87 -182.5t279 -129.5q70 -22 119.5 -41t108.5 -54t95.5 -75.5t61.5 -103t25 -139.5q0 -93 -29 -176t-86.5 -152.5t-155.5 -110.5t-225 -41q-86 0 -187 26.5
t-175 68.5l-121 -103h-25z" />
    <glyph glyph-name="scaron" unicode="&#x161;" horiz-adv-x="894" 
d="M457 1077l-277 418h33l264 -182l266 182h33l-293 -418h-26zM74 -16v352h28q103 -168 188 -240.5t191 -72.5q77 0 120.5 41t43.5 106q0 71 -54.5 112.5t-211.5 86.5q-167 47 -236 107.5t-69 172.5q0 142 101.5 228t270.5 86q152 0 256 -70l58 70h24v-316h-28
q-49 77 -83 123.5t-73 84.5t-78.5 53.5t-87.5 15.5q-69 0 -111 -42t-42 -112q0 -59 56 -95t171 -67q173 -42 253.5 -109.5t80.5 -189.5q0 -141 -104.5 -233t-276.5 -92q-58 0 -157.5 24.5t-141.5 50.5l-64 -75h-24z" />
    <glyph glyph-name="Tcommaaccent" unicode="&#x162;" horiz-adv-x="1486" 
d="M612 -655l-16 22q175 108 184 244l-8 4q-22 -14 -53 -14q-50 0 -87.5 36.5t-37.5 96.5q0 59 38.5 101t98.5 42q75 0 119.5 -51t44.5 -135q0 -107 -74 -198.5t-209 -147.5zM358 0v29q133 3 185.5 29.5t52.5 86.5v1246h-51q-113 0 -212.5 -106.5t-213.5 -330.5l-31 4
l12 469h1289l10 -469l-31 -4q-114 223 -212.5 330t-211.5 107h-49v-1246q0 -60 52 -86.5t186 -29.5v-29h-775z" />
    <glyph glyph-name="tcommaaccent" unicode="&#x163;" horiz-adv-x="768" 
d="M272 -655l-16 22q175 108 184 244l-8 4q-22 -14 -53 -14q-50 0 -87.5 36.5t-37.5 96.5q0 59 38.5 101t98.5 42q75 0 119.5 -51t44.5 -135q0 -107 -74 -198.5t-209 -147.5zM473 -18q-132 0 -207.5 69t-75.5 217v600h-182v33l187 39v260l268 82v-346h289v-66h-289v-620
q0 -91 27 -130.5t92 -39.5q96 0 161 133l25 -12q-45 -113 -115 -166t-180 -53z" />
    <glyph glyph-name="Tcaron" unicode="&#x164;" horiz-adv-x="1486" 
d="M721 1569l-277 418h33l264 -183l267 183h32l-292 -418h-27zM358 0v29q133 3 185.5 29.5t52.5 86.5v1246h-51q-113 0 -212.5 -106.5t-213.5 -330.5l-31 4l12 469h1289l10 -469l-31 -4q-114 223 -212.5 330t-211.5 107h-49v-1246q0 -60 52 -86.5t186 -29.5v-29h-775z" />
    <glyph glyph-name="tcaron" unicode="&#x165;" horiz-adv-x="768" 
d="M633 1085l-25 273q-4 78 -4 102q0 60 30.5 86.5t72.5 26.5q44 0 72 -23t28 -65q0 -40 -35 -127l-110 -273h-29zM473 -18q-132 0 -207.5 69t-75.5 217v600h-182v33l187 39v260l268 82v-346h289v-66h-289v-620q0 -91 27 -130.5t92 -39.5q96 0 161 133l25 -12
q-45 -113 -115 -166t-180 -53z" />
    <glyph glyph-name="Umacron" unicode="&#x16a;" horiz-adv-x="1654" 
d="M844 -35q-588 0 -588 484v833q0 61 -45 88t-168 31v26h709v-26q-109 -5 -153 -31.5t-44 -87.5v-844q0 -403 393 -403q76 0 143.5 23.5t112.5 68.5q117 117 117 340v614q0 153 -64.5 227t-218.5 93v26h584v-26q-142 -21 -195 -92.5t-53 -227.5v-620q0 -236 -129.5 -366
t-400.5 -130zM547 1630v96h610v-96h-610z" />
    <glyph glyph-name="umacron" unicode="&#x16b;" horiz-adv-x="1191" 
d="M438 -16q-131 0 -204.5 76t-73.5 223v534q0 50 -30 75t-112 26v24l414 8v-643q0 -196 150 -196q101 0 182 129v577q0 49 -31 73.5t-112 27.5v24l415 8v-848q0 -43 28 -58.5t114 -18.5v-25h-410v195q-132 -211 -330 -211zM299 1139v96h610v-96h-610z" />
    <glyph glyph-name="Ubreve" unicode="&#x16c;" horiz-adv-x="1654" 
d="M844 -35q-588 0 -588 484v833q0 61 -45 88t-168 31v26h709v-26q-109 -5 -153 -31.5t-44 -87.5v-844q0 -403 393 -403q76 0 143.5 23.5t112.5 68.5q117 117 117 340v614q0 153 -64.5 227t-218.5 93v26h584v-26q-142 -21 -195 -92.5t-53 -227.5v-620q0 -236 -129.5 -366
t-400.5 -130zM868 1579q-119 0 -197.5 90t-90.5 250h30q28 -86 96.5 -130t159.5 -44q93 0 161 44.5t95 129.5h31q-10 -160 -88 -250t-197 -90z" />
    <glyph glyph-name="ubreve" unicode="&#x16d;" horiz-adv-x="1191" 
d="M438 -16q-131 0 -204.5 76t-73.5 223v534q0 50 -30 75t-112 26v24l414 8v-643q0 -196 150 -196q101 0 182 129v577q0 49 -31 73.5t-112 27.5v24l415 8v-848q0 -43 28 -58.5t114 -18.5v-25h-410v195q-132 -211 -330 -211zM596 1087q-119 0 -198 90t-91 250h31
q28 -86 96.5 -130t159.5 -44q93 0 161 44.5t95 129.5h31q-10 -160 -88 -250t-197 -90z" />
    <glyph glyph-name="Uring" unicode="&#x16e;" horiz-adv-x="1654" 
d="M870 1579q-116 0 -182.5 61t-66.5 158t67.5 159t181.5 62q116 0 184 -61.5t68 -157.5t-68.5 -158.5t-183.5 -62.5zM874 1614q103 0 103 184q0 187 -109 187q-102 0 -102 -187q0 -88 27.5 -136t80.5 -48zM844 -35q-588 0 -588 484v833q0 61 -45 88t-168 31v26h709v-26
q-109 -5 -153 -31.5t-44 -87.5v-844q0 -403 393 -403q76 0 143.5 23.5t112.5 68.5q117 117 117 340v614q0 153 -64.5 227t-218.5 93v26h584v-26q-142 -21 -195 -92.5t-53 -227.5v-620q0 -236 -129.5 -366t-400.5 -130z" />
    <glyph glyph-name="uring" unicode="&#x16f;" horiz-adv-x="1191" 
d="M596 1087q-116 0 -183 61.5t-67 158.5t68 159t182 62q116 0 184 -61.5t68 -157.5t-68.5 -159t-183.5 -63zM600 1122q102 0 102 185q0 186 -108 186q-53 0 -77.5 -46t-24.5 -140q0 -88 27.5 -136.5t80.5 -48.5zM438 -16q-131 0 -204.5 76t-73.5 223v534q0 50 -30 75
t-112 26v24l414 8v-643q0 -196 150 -196q101 0 182 129v577q0 49 -31 73.5t-112 27.5v24l415 8v-848q0 -43 28 -58.5t114 -18.5v-25h-410v195q-132 -211 -330 -211z" />
    <glyph glyph-name="Uhungarumlaut" unicode="&#x170;" horiz-adv-x="1654" 
d="M844 -35q-588 0 -588 484v833q0 61 -45 88t-168 31v26h709v-26q-109 -5 -153 -31.5t-44 -87.5v-844q0 -403 393 -403q76 0 143.5 23.5t112.5 68.5q117 117 117 340v614q0 153 -64.5 227t-218.5 93v26h584v-26q-142 -21 -195 -92.5t-53 -227.5v-620q0 -236 -129.5 -366
t-400.5 -130zM963 1569l102 258q45 118 76.5 160.5t83.5 42.5q43 0 70.5 -27t27.5 -68q0 -35 -27.5 -73t-115.5 -117l-195 -176h-22zM631 1569l104 258q45 118 76.5 160.5t83.5 42.5q41 0 68.5 -27t27.5 -68q0 -35 -28.5 -74t-114.5 -116l-195 -176h-22z" />
    <glyph glyph-name="uhungarumlaut" unicode="&#x171;" horiz-adv-x="1191" 
d="M438 -16q-131 0 -204.5 76t-73.5 223v534q0 50 -30 75t-112 26v24l414 8v-643q0 -196 150 -196q101 0 182 129v577q0 49 -31 73.5t-112 27.5v24l415 8v-848q0 -43 28 -58.5t114 -18.5v-25h-410v195q-132 -211 -330 -211zM698 1077l103 258q45 118 76.5 160.5t83.5 42.5
q43 0 70.5 -26.5t27.5 -67.5q0 -35 -28 -73.5t-116 -117.5l-194 -176h-23zM367 1077l104 258q45 118 76.5 160.5t83.5 42.5q41 0 68.5 -26.5t27.5 -67.5q0 -35 -28.5 -75t-114.5 -116l-195 -176h-22z" />
    <glyph glyph-name="Uogonek" unicode="&#x172;" horiz-adv-x="1654" 
d="M844 -35q-588 0 -588 484v833q0 61 -45 88t-168 31v26h709v-26q-109 -5 -153 -31.5t-44 -87.5v-844q0 -403 393 -403q76 0 143.5 23.5t112.5 68.5q117 117 117 340v614q0 153 -64.5 227t-218.5 93v26h584v-26q-142 -21 -195 -92.5t-53 -227.5v-620q0 -212 -105.5 -339
t-324.5 -151l-16 -20q-111 -120 -111 -250q0 -62 31 -97.5t86 -35.5q66 0 135 39l14 -27q-47 -38 -119 -61t-139 -23q-90 0 -144 45.5t-54 124.5q0 81 53 144t160 137l26 18h-22z" />
    <glyph glyph-name="uogonek" unicode="&#x173;" horiz-adv-x="1191" 
d="M438 -16q-131 0 -204.5 76t-73.5 223v534q0 50 -30 75t-112 26v24l414 8v-643q0 -196 150 -196q101 0 182 129v577q0 49 -31 73.5t-112 27.5v24l415 8v-848q0 -43 28 -58.5t114 -18.5v-25h-121l-41 -49q-111 -120 -111 -250q0 -62 31 -97.5t86 -35.5q66 0 135 39l12 -27
q-45 -38 -117 -61t-139 -23q-90 0 -144 45.5t-54 124.5q0 81 53 144t160 137l76 53h-236v195q-132 -211 -330 -211z" />
    <glyph glyph-name="Wcircumflex" unicode="&#x174;" horiz-adv-x="2142" 
d="M840 1569l290 418h27l277 -418h-33l-264 182l-265 -182h-32zM1071 1042l-55 156q-37 113 -79.5 155t-137.5 48v26h676v-26q-123 -6 -157 -43t-3 -127l287 -877h12l239 770q42 132 9 193t-158 84v26h477v-26q-116 -22 -175 -90t-118 -244l-346 -1094h-104l-344 1004
l-355 -1004h-108l-408 1225q-25 74 -49 111.5t-66.5 59.5t-117.5 32v26h682v-26q-116 -6 -145.5 -44t-2.5 -126l281 -883h12z" />
    <glyph glyph-name="wcircumflex" unicode="&#x175;" horiz-adv-x="1603" 
d="M578 1077l290 418h27l276 -418h-32l-265 183l-264 -183h-32zM805 664l-43 122q-26 72 -58 98.5t-98 37.5v24h539v-24q-64 -6 -91.5 -22t-27.5 -48q0 -19 6 -43l187 -576h8l151 465q25 79 25 117q0 47 -33 71.5t-106 35.5v24h389v-24q-68 -6 -121 -45.5t-78 -110.5
l-266 -780h-146l-217 618l-241 -618h-142l-303 800q-28 70 -62.5 97.5t-107.5 38.5v24h549v-24q-62 -6 -89.5 -22t-27.5 -46q0 -16 11 -45l209 -582h8z" />
    <glyph glyph-name="Ycircumflex" unicode="&#x176;" horiz-adv-x="1415" 
d="M831 672l265 471q68 121 47.5 175t-148.5 83v26h473v-26q-72 -13 -123.5 -42t-106 -92.5t-118.5 -176.5l-260 -459v-486q0 -61 45 -86.5t174 -29.5v-29h-735v29q128 4 173.5 30t45.5 86v443l-360 645q-46 80 -94 114.5t-140 53.5v26h723v-26q-100 -6 -144.5 -27t-44 -58
t31.5 -91zM434 1569l291 418h27l276 -418h-33l-264 182l-264 -182h-33z" />
    <glyph glyph-name="ycircumflex" unicode="&#x177;" horiz-adv-x="1034" 
d="M526 -39l-389 825q-34 74 -67.5 100t-108.5 36v24h563v-24q-86 -7 -108.5 -32t2.5 -79l235 -549l178 451q41 104 14 149t-140 60v24h395v-24q-134 -13 -191 -156l-358 -860q-71 -173 -151 -244.5t-175 -71.5q-88 0 -138 42.5t-50 115.5q0 55 37 96t98 41q54 0 91.5 -38
t37.5 -95q0 -72 -51 -119q77 8 140 74.5t124 224.5zM260 1077l291 418h27l276 -418h-33l-264 183l-264 -183h-33z" />
    <glyph glyph-name="Ydieresis" unicode="&#x178;" horiz-adv-x="1415" 
d="M831 672l265 471q68 121 47.5 175t-148.5 83v26h473v-26q-72 -13 -123.5 -42t-106 -92.5t-118.5 -176.5l-260 -459v-486q0 -61 45 -86.5t174 -29.5v-29h-735v29q128 4 173.5 30t45.5 86v443l-360 645q-46 80 -94 114.5t-140 53.5v26h723v-26q-100 -6 -144.5 -27t-44 -58
t31.5 -91zM1040 1579q-65 0 -107 43.5t-42 108.5t42 109t107 44t107.5 -44t42.5 -109t-42.5 -108.5t-107.5 -43.5zM623 1579q-64 0 -107 43.5t-43 108.5t43 109t107 44q65 0 108 -44t43 -109t-42.5 -108.5t-108.5 -43.5z" />
    <glyph glyph-name="Zacute" unicode="&#x179;" horiz-adv-x="1366" 
d="M584 1569l71 256q29 119 57.5 164t82.5 45q50 0 84 -31.5t34 -77.5q0 -32 -25.5 -67.5t-99.5 -114.5l-170 -174h-34zM66 0l-3 27l883 1359h-346q-113 0 -215.5 -102.5t-234.5 -337.5l-33 4l30 477h1143l2 -26l-882 -1360h401q59 0 111.5 27.5t108 90.5t107 142t124.5 207
l30 -4l-22 -504h-1204z" />
    <glyph glyph-name="zacute" unicode="&#x17a;" horiz-adv-x="999" 
d="M412 1077l71 256q29 119 57.5 164t82.5 45q50 0 84 -31t34 -77q0 -32 -25.5 -68t-99.5 -115l-170 -174h-34zM57 0l-4 31l606 874h-188q-62 0 -110 -25t-104.5 -93.5t-127.5 -194.5l-33 4l27 350h829l4 -28l-608 -877h207q96 0 166.5 69t183.5 265l35 -4l-27 -371h-856z
" />
    <glyph glyph-name="Zdotaccent" unicode="&#x17b;" horiz-adv-x="1366" 
d="M66 0l-3 27l883 1359h-346q-113 0 -215.5 -102.5t-234.5 -337.5l-33 4l30 477h1143l2 -26l-882 -1360h401q59 0 111.5 27.5t108 90.5t107 142t124.5 207l30 -4l-22 -504h-1204zM686 1579q-73 0 -116.5 42t-43.5 116q0 73 44.5 119.5t115.5 46.5q73 0 117.5 -44t44.5 -116
q0 -74 -44.5 -119t-117.5 -45z" />
    <glyph glyph-name="zdotaccent" unicode="&#x17c;" horiz-adv-x="999" 
d="M57 0l-4 31l606 874h-188q-62 0 -110 -25t-104.5 -93.5t-127.5 -194.5l-33 4l27 350h829l4 -28l-608 -877h207q96 0 166.5 69t183.5 265l35 -4l-27 -371h-856zM516 1087q-73 0 -116.5 42t-43.5 116q0 73 44.5 119.5t115.5 46.5q73 0 117.5 -44t44.5 -116
q0 -74 -44.5 -119t-117.5 -45z" />
    <glyph glyph-name="Zcaron" unicode="&#x17d;" horiz-adv-x="1366" 
d="M688 1569l-276 418h32l265 -183l266 183h33l-293 -418h-27zM66 0l-3 27l883 1359h-346q-113 0 -215.5 -102.5t-234.5 -337.5l-33 4l30 477h1143l2 -26l-882 -1360h401q59 0 111.5 27.5t108 90.5t107 142t124.5 207l30 -4l-22 -504h-1204z" />
    <glyph glyph-name="zcaron" unicode="&#x17e;" horiz-adv-x="999" 
d="M504 1077l-277 418h33l264 -182l267 182h32l-293 -418h-26zM57 0l-4 31l606 874h-188q-62 0 -110 -25t-104.5 -93.5t-127.5 -194.5l-33 4l27 350h829l4 -28l-608 -877h207q96 0 166.5 69t183.5 265l35 -4l-27 -371h-856z" />
    <glyph glyph-name="Aringacute" unicode="&#x1fa;" 
d="M616 1907l72 256q29 120 57 164.5t82 44.5q50 0 84.5 -31.5t34.5 -77.5q0 -32 -25.5 -67.5t-99.5 -114.5l-170 -174h-35zM723 1458q102 0 102 184q0 187 -108 187q-103 0 -103 -187q0 -87 28 -135.5t81 -48.5zM350 543l-69 -189q-63 -166 -33.5 -235.5t172.5 -89.5v-29
h-483v29q100 26 165.5 100.5t128.5 232.5l414 1072q-83 17 -129.5 74t-46.5 137q0 96 68.5 158.5t181.5 62.5q116 0 184 -61.5t68 -157.5q0 -76 -44.5 -132.5t-123.5 -76.5l454 -1235q24 -64 46.5 -94.5t64 -49t119.5 -30.5v-29h-733v29q145 6 184.5 40.5t9.5 118.5
l-127 355h-471zM807 584l-209 592h-10l-221 -592h440z" />
    <glyph glyph-name="aringacute" unicode="&#x1fb;" horiz-adv-x="1046" 
d="M348 -10q-137 0 -209.5 71t-72.5 168q0 64 33.5 121.5t95.5 91.5q64 35 160 54t180.5 27.5t107.5 17.5v166q0 110 -35 160.5t-116 50.5q-94 0 -150 -46q55 -55 55 -118q0 -64 -36.5 -102t-104.5 -38q-59 0 -99 40t-40 98q0 95 106 149.5t312 54.5q191 0 285.5 -76.5
t94.5 -242.5v-457q0 -77 33.5 -97t116.5 13l12 -22q-65 -42 -113.5 -62t-105.5 -20q-95 0 -141 37.5t-58 117.5h-8q-142 -157 -303 -157zM496 102q41 0 82 26.5t65 64.5v307q-172 -27 -230.5 -76.5t-58.5 -161.5q0 -73 37 -116.5t105 -43.5zM451 1593l71 256
q29 119 57.5 164t82.5 45q50 0 84 -31t34 -77q0 -32 -25.5 -68t-99.5 -115l-170 -174h-34zM530 1087q-116 0 -182.5 61t-66.5 159q0 97 67.5 159t181.5 62q116 0 184 -61.5t68 -157.5t-68.5 -159t-183.5 -63zM535 1122q102 0 102 185q0 186 -109 186q-53 0 -77.5 -46
t-24.5 -140q0 -88 28 -136.5t81 -48.5z" />
    <glyph glyph-name="AEacute" unicode="&#x1fc;" horiz-adv-x="2174" 
d="M1143 1569l71 256q29 119 57.5 164t82.5 45q50 0 84.5 -31.5t34.5 -77.5q0 -32 -25.5 -67.5t-99.5 -114.5l-170 -174h-35zM489 571l-153 -245q-76 -120 -76 -185q0 -87 141 -112v-29h-479v29q194 50 379 333l557 877q31 45 31 72q0 38 -56.5 59.5t-181.5 30.5v26h1346
l6 -487l-31 -2q-30 67 -51 111t-47.5 93t-48 79t-49 61.5t-55 49t-62 32.5t-74 21t-86.5 6h-213v-631h86q127 0 201.5 62.5t114.5 215.5h26v-598h-26q-40 155 -115 219t-201 64h-86v-684h203q90 0 157 17t118 49t97 93.5t83 133t86 186.5l30 -4l-10 -514h-1276v29
q124 4 168.5 30t44.5 86v426h-498zM987 612v740h-8l-463 -740h471z" />
    <glyph glyph-name="aeacute" unicode="&#x1fd;" horiz-adv-x="1605" 
d="M1128 963q210 0 321.5 -126t100.5 -329h-616v-39v-2q0 -190 79 -293.5t230 -103.5q89 0 155 41.5t128 126.5l22 -15q-72 -115 -172.5 -177t-245.5 -62q-137 0 -243 56t-164 155h-8q-61 -89 -158 -147t-217 -58q-132 0 -203 71t-71 168q0 64 33.5 121.5t95.5 91.5
q64 35 165.5 54t191 27.5t112.5 17.5v166q0 211 -172 211q-94 0 -150 -46q55 -55 55 -118q0 -64 -36.5 -102t-104.5 -38q-59 0 -99 40t-40 98q0 95 106 149.5t312 54.5q207 0 296 -102q121 109 297 109zM1116 924q-167 0 -180 -379h336q19 178 -21 278.5t-135 100.5z
M496 102q44 0 94.5 28.5t73.5 68.5v301q-176 -28 -243 -78.5t-67 -159.5q0 -73 37 -116.5t105 -43.5zM778 1077l72 256q29 120 57 164.5t82 44.5q50 0 84.5 -31t34.5 -77q0 -32 -25.5 -68t-99.5 -115l-170 -174h-35z" />
    <glyph glyph-name="Oslashacute" unicode="&#x1fe;" horiz-adv-x="1587" 
d="M793 -35q148 0 278.5 54t226 151t150.5 239t55 310q0 171 -56.5 312.5t-158.5 240.5l189 229h-68l-160 -194q-188 155 -456 155q-147 0 -277 -54t-225 -151t-150 -238.5t-55 -307.5q0 -347 213 -557l-188 -228h67l160 193q190 -154 455 -154zM784 1423q245 0 334 -274
l-667 -809q-35 149 -35 375q0 374 90 541t278 167zM803 4q-244 0 -334 272l666 809q36 -141 36 -370q0 -376 -90 -543.5t-278 -167.5zM729 1569l72 256q29 120 57 164.5t82 44.5q50 0 84.5 -31.5t34.5 -77.5q0 -32 -25.5 -67.5t-99.5 -114.5l-170 -174h-35z" />
    <glyph glyph-name="oslashacute" unicode="&#x1ff;" horiz-adv-x="1107" 
d="M145 -51h-57l123 147q-152 133 -152 375q0 222 138 357t358 135q180 0 305 -86l103 120h57l-125 -149q154 -132 154 -369q0 -224 -137.5 -359.5t-356.5 -135.5q-181 0 -309 86zM563 23q104 0 149.5 112t45.5 340q0 106 -13 195l-370 -449q44 -198 188 -198zM352 475
q0 -103 13 -196l370 444q-47 201 -190 201q-105 0 -149 -109.5t-44 -339.5zM494 1077l71 256q29 119 57.5 164t82.5 45q50 0 84 -31t34 -77q0 -32 -25.5 -68t-99.5 -115l-170 -174h-34z" />
    <glyph glyph-name="Scommaaccent" unicode="&#x218;" horiz-adv-x="1204" 
d="M473 -655l-16 22q175 108 184 244l-8 4q-22 -14 -53 -14q-50 0 -87.5 36.5t-37.5 96.5q0 59 38.5 101t98.5 42q75 0 119.5 -51t44.5 -135q0 -107 -74 -198.5t-209 -147.5zM104 -35v518h33q223 -471 506 -471q133 0 208 74t75 178q0 119 -86.5 191t-282.5 137
q-57 19 -92.5 32t-86.5 35.5t-82.5 43.5t-67.5 53t-56 67t-33.5 82.5t-13.5 102.5q0 201 136 323.5t353 122.5q176 0 314 -78l90 90h24v-462h-32q-102 212 -204.5 311.5t-221.5 99.5q-103 0 -177.5 -63.5t-74.5 -173.5q0 -114 87 -182.5t279 -129.5q70 -22 119.5 -41
t108.5 -54t95.5 -75.5t61.5 -103t25 -139.5q0 -93 -29 -176t-86.5 -152.5t-155.5 -110.5t-225 -41q-86 0 -187 26.5t-175 68.5l-121 -103h-25z" />
    <glyph glyph-name="scommaaccent" unicode="&#x219;" horiz-adv-x="894" 
d="M311 -655l-16 22q175 108 184 244l-8 4q-22 -14 -53 -14q-50 0 -87.5 36.5t-37.5 96.5q0 59 38.5 101t98.5 42q75 0 119.5 -51t44.5 -135q0 -107 -74 -198.5t-209 -147.5zM74 -16v352h28q103 -168 188 -240.5t191 -72.5q77 0 120.5 41t43.5 106q0 71 -54.5 112.5
t-211.5 86.5q-167 47 -236 107.5t-69 172.5q0 142 101.5 228t270.5 86q152 0 256 -70l58 70h24v-316h-28q-49 77 -83 123.5t-73 84.5t-78.5 53.5t-87.5 15.5q-69 0 -111 -42t-42 -112q0 -59 56 -95t171 -67q173 -42 253.5 -109.5t80.5 -189.5q0 -141 -104.5 -233t-276.5 -92
q-58 0 -157.5 24.5t-141.5 50.5l-64 -75h-24z" />
    <glyph glyph-name="schwa" unicode="&#x259;" horiz-adv-x="1019" 
d="M475 963q219 0 352.5 -128t133.5 -350q0 -150 -66 -265.5t-175.5 -175.5t-242.5 -60q-210 0 -321.5 125.5t-100.5 328.5h617v39v2q0 189 -79.5 293.5t-230.5 104.5q-89 0 -154 -41.5t-128 -126.5l-23 14q47 75 103 126.5t136.5 82.5t178.5 31zM489 23q165 0 181 378h-336
q-19 -178 20.5 -278t134.5 -100z" />
    <glyph glyph-name="circumflex" unicode="&#x2c6;" horiz-adv-x="655" 
d="M31 1077l291 418h26l277 -418h-33l-264 183l-265 -183h-32z" />
    <glyph glyph-name="caron" unicode="&#x2c7;" horiz-adv-x="655" 
d="M307 1077l-276 418h32l265 -182l266 182h33l-293 -418h-27z" />
    <glyph glyph-name="breve" unicode="&#x2d8;" horiz-adv-x="688" 
d="M346 1087q-119 0 -198 90t-91 250h31q28 -86 96.5 -130t159.5 -44q93 0 161 44.5t95 129.5h31q-10 -160 -88 -250t-197 -90z" />
    <glyph glyph-name="dotaccent" unicode="&#x2d9;" horiz-adv-x="477" 
d="M238 1087q-73 0 -116.5 42t-43.5 116q0 73 44.5 119.5t115.5 46.5q73 0 117 -44t44 -116q0 -74 -44 -119t-117 -45z" />
    <glyph glyph-name="ring" unicode="&#x2da;" horiz-adv-x="563" 
d="M281 1087q-116 0 -183 61.5t-67 158.5t68 159t182 62q116 0 183.5 -61.5t67.5 -157.5t-68.5 -159t-182.5 -63zM285 1122q102 0 102 185q0 186 -108 186q-103 0 -103 -186q0 -88 28 -136.5t81 -48.5z" />
    <glyph glyph-name="ogonek" unicode="&#x2db;" horiz-adv-x="550" 
d="M225 -504q-90 0 -144 45.5t-54 124.5q0 81 53 144t160 137l122 84h35l-69 -80q-111 -120 -111 -250q0 -62 31 -97.5t86 -35.5q66 0 135 39l14 -27q-47 -38 -119 -61t-139 -23z" />
    <glyph glyph-name="tilde" unicode="&#x2dc;" horiz-adv-x="727" 
d="M29 1075q15 153 62.5 221t139.5 68q45 0 112 -28t128 -55.5t92 -27.5q37 0 60 26.5t43 96.5h32q-13 -151 -62 -220t-140 -69q-45 0 -112 27.5t-128 55.5t-92 28q-36 0 -60 -26.5t-43 -96.5h-32z" />
    <glyph glyph-name="hungarumlaut" unicode="&#x2dd;" horiz-adv-x="649" 
d="M305 1077l103 258q45 119 76 161t83 42q43 0 71 -26.5t28 -67.5q0 -35 -28 -73.5t-116 -117.5l-194 -176h-23zM-27 1077l105 258q45 118 76.5 160.5t83.5 42.5q41 0 68.5 -26.5t27.5 -67.5q0 -35 -29 -74.5t-115 -116.5l-194 -176h-23z" />
    <glyph glyph-name="commaaccent" unicode="&#x326;" horiz-adv-x="520" 
d="M129 -655l-16 22q175 108 184 244l-8 4q-22 -14 -53 -14q-50 0 -87.5 36.5t-37.5 96.5q0 59 38.5 101t98.5 42q75 0 119.5 -51t44.5 -135q0 -107 -74 -198.5t-209 -147.5z" />
    <glyph glyph-name="Wgrave" unicode="&#x1e80;" horiz-adv-x="2142" 
d="M1071 1042l-55 156q-37 113 -79.5 155t-137.5 48v26h676v-26q-123 -6 -157 -43t-3 -127l287 -877h12l239 770q42 132 9 193t-158 84v26h477v-26q-116 -22 -175 -90t-118 -244l-346 -1094h-104l-344 1004l-355 -1004h-108l-408 1225q-25 74 -49 111.5t-66.5 59.5
t-117.5 32v26h682v-26q-116 -6 -145.5 -44t-2.5 -126l281 -883h12zM1145 1569l-168 174q-75 79 -101 114.5t-26 67.5q0 46 34.5 77.5t84.5 31.5q54 0 82 -44.5t57 -164.5l72 -256h-35z" />
    <glyph glyph-name="wgrave" unicode="&#x1e81;" horiz-adv-x="1603" 
d="M805 664l-43 122q-26 72 -58 98.5t-98 37.5v24h539v-24q-64 -6 -91.5 -22t-27.5 -48q0 -19 6 -43l187 -576h8l151 465q25 79 25 117q0 47 -33 71.5t-106 35.5v24h389v-24q-68 -6 -121 -45.5t-78 -110.5l-266 -780h-146l-217 618l-241 -618h-142l-303 800
q-28 70 -62.5 97.5t-107.5 38.5v24h549v-24q-62 -6 -89.5 -22t-27.5 -46q0 -16 11 -45l209 -582h8zM852 1077l-168 174q-75 78 -101 114.5t-26 68.5q0 46 34.5 77t84.5 31q54 0 82 -44.5t57 -164.5l72 -256h-35z" />
    <glyph glyph-name="Wacute" unicode="&#x1e82;" horiz-adv-x="2142" 
d="M1065 1569l72 256q29 120 57 164.5t82 44.5q50 0 84.5 -31.5t34.5 -77.5q0 -32 -25.5 -67.5t-99.5 -114.5l-170 -174h-35zM1071 1042l-55 156q-37 113 -79.5 155t-137.5 48v26h676v-26q-123 -6 -157 -43t-3 -127l287 -877h12l239 770q42 132 9 193t-158 84v26h477v-26
q-116 -22 -175 -90t-118 -244l-346 -1094h-104l-344 1004l-355 -1004h-108l-408 1225q-25 74 -49 111.5t-66.5 59.5t-117.5 32v26h682v-26q-116 -6 -145.5 -44t-2.5 -126l281 -883h12z" />
    <glyph glyph-name="wacute" unicode="&#x1e83;" horiz-adv-x="1603" 
d="M825 1077l72 256q29 120 57 164.5t82 44.5q50 0 84.5 -31t34.5 -77q0 -32 -25.5 -68t-99.5 -115l-170 -174h-35zM805 664l-43 122q-26 72 -58 98.5t-98 37.5v24h539v-24q-64 -6 -91.5 -22t-27.5 -48q0 -19 6 -43l187 -576h8l151 465q25 79 25 117q0 47 -33 71.5
t-106 35.5v24h389v-24q-68 -6 -121 -45.5t-78 -110.5l-266 -780h-146l-217 618l-241 -618h-142l-303 800q-28 70 -62.5 97.5t-107.5 38.5v24h549v-24q-62 -6 -89.5 -22t-27.5 -46q0 -16 11 -45l209 -582h8z" />
    <glyph glyph-name="Wdieresis" unicode="&#x1e84;" horiz-adv-x="2142" 
d="M1339 1579q-65 0 -107 43.5t-42 108.5t42 109t107 44t107.5 -44t42.5 -109t-42.5 -108.5t-107.5 -43.5zM922 1579q-64 0 -107 43.5t-43 108.5t43 109t107 44q65 0 108 -44t43 -109t-42.5 -108.5t-108.5 -43.5zM1071 1042l-55 156q-37 113 -79.5 155t-137.5 48v26h676v-26
q-123 -6 -157 -43t-3 -127l287 -877h12l239 770q42 132 9 193t-158 84v26h477v-26q-116 -22 -175 -90t-118 -244l-346 -1094h-104l-344 1004l-355 -1004h-108l-408 1225q-25 74 -49 111.5t-66.5 59.5t-117.5 32v26h682v-26q-116 -6 -145.5 -44t-2.5 -126l281 -883h12z" />
    <glyph glyph-name="wdieresis" unicode="&#x1e85;" horiz-adv-x="1603" 
d="M1079 1087q-65 0 -107 43.5t-42 108.5t42 109.5t107 44.5t107.5 -44.5t42.5 -109.5t-42.5 -108.5t-107.5 -43.5zM662 1087q-64 0 -107 43.5t-43 108.5t43 109.5t107 44.5q65 0 108 -44.5t43 -109.5t-42.5 -108.5t-108.5 -43.5zM805 664l-43 122q-26 72 -58 98.5t-98 37.5
v24h539v-24q-64 -6 -91.5 -22t-27.5 -48q0 -19 6 -43l187 -576h8l151 465q25 79 25 117q0 47 -33 71.5t-106 35.5v24h389v-24q-68 -6 -121 -45.5t-78 -110.5l-266 -780h-146l-217 618l-241 -618h-142l-303 800q-28 70 -62.5 97.5t-107.5 38.5v24h549v-24q-62 -6 -89.5 -22
t-27.5 -46q0 -16 11 -45l209 -582h8z" />
    <glyph glyph-name="Ygrave" unicode="&#x1ef2;" horiz-adv-x="1415" 
d="M831 672l265 471q68 121 47.5 175t-148.5 83v26h473v-26q-72 -13 -123.5 -42t-106 -92.5t-118.5 -176.5l-260 -459v-486q0 -61 45 -86.5t174 -29.5v-29h-735v29q128 4 173.5 30t45.5 86v443l-360 645q-46 80 -94 114.5t-140 53.5v26h723v-26q-100 -6 -144.5 -27t-44 -58
t31.5 -91zM774 1569l-168 174q-75 79 -101 114.5t-26 67.5q0 46 34.5 77.5t84.5 31.5q54 0 82 -44.5t57 -164.5l72 -256h-35z" />
    <glyph glyph-name="ygrave" unicode="&#x1ef3;" horiz-adv-x="1034" 
d="M526 -39l-389 825q-34 74 -67.5 100t-108.5 36v24h563v-24q-86 -7 -108.5 -32t2.5 -79l235 -549l178 451q41 104 14 149t-140 60v24h395v-24q-134 -13 -191 -156l-358 -860q-71 -173 -151 -244.5t-175 -71.5q-88 0 -138 42.5t-50 115.5q0 55 37 96t98 41q54 0 91.5 -38
t37.5 -95q0 -72 -51 -119q77 8 140 74.5t124 224.5zM580 1077l-168 174q-75 78 -101 114.5t-26 68.5q0 46 34 77t84 31q54 0 82.5 -45t57.5 -164l71 -256h-34z" />
    <glyph glyph-name="enspace" unicode="&#x2002;" horiz-adv-x="1024" 
 />
    <glyph glyph-name="emspace" unicode="&#x2003;" horiz-adv-x="2048" 
 />
    <glyph glyph-name="threeperemspace" unicode="&#x2004;" horiz-adv-x="681" 
 />
    <glyph glyph-name="fourperemspace" unicode="&#x2005;" horiz-adv-x="512" 
 />
    <glyph glyph-name="thinspace" unicode="&#x2009;" horiz-adv-x="272" 
 />
    <glyph glyph-name="hairspace" unicode="&#x200a;" horiz-adv-x="153" 
 />
    <glyph glyph-name="endash" unicode="&#x2013;" horiz-adv-x="1105" 
d="M113 516v45h880v-45h-880z" />
    <glyph glyph-name="emdash" unicode="&#x2014;" horiz-adv-x="1617" 
d="M113 516v45h1392v-45h-1392z" />
    <glyph glyph-name="quoteleft" unicode="&#x2018;" horiz-adv-x="520" 
d="M272 854q-84 0 -133 56.5t-49 148.5q0 134 95.5 243t265.5 162l12 -24q-111 -57 -175 -139.5t-71 -149.5l8 -4q25 14 62 14q56 0 97.5 -40.5t41.5 -106.5q0 -65 -44 -112.5t-110 -47.5z" />
    <glyph glyph-name="quoteright" unicode="&#x2019;" horiz-adv-x="520" 
d="M68 846l-13 24q76 39 133 94.5t83 104.5t30 90l-8 4q-27 -12 -60 -12q-57 0 -98 40.5t-41 106.5q0 65 43.5 112.5t110.5 47.5q83 0 132.5 -57t49.5 -148q0 -134 -96 -244t-266 -163z" />
    <glyph glyph-name="quotesinglbase" unicode="&#x201a;" horiz-adv-x="520" 
d="M68 -324l-13 25q76 39 133 94.5t83 104.5t30 90l-8 4q-27 -12 -60 -12q-57 0 -98 40.5t-41 106.5q0 65 43.5 112.5t110.5 47.5q83 0 132.5 -57t49.5 -148q0 -134 -96 -244.5t-266 -163.5z" />
    <glyph glyph-name="quotedblleft" unicode="&#x201c;" horiz-adv-x="946" 
d="M696 854q-83 0 -132.5 57t-49.5 148q0 133 96.5 242.5t266.5 162.5l12 -24q-111 -57 -175 -139.5t-71 -149.5l8 -4q25 14 62 14q56 0 97.5 -40.5t41.5 -106.5q0 -65 -44.5 -112.5t-111.5 -47.5zM272 854q-84 0 -133 56.5t-49 148.5q0 134 95.5 243t265.5 162l12 -24
q-111 -57 -175 -139.5t-71 -149.5l8 -4q25 14 62 14q56 0 97.5 -40.5t41.5 -106.5q0 -65 -44 -112.5t-110 -47.5z" />
    <glyph glyph-name="quotedblright" unicode="&#x201d;" horiz-adv-x="946" 
d="M494 846l-13 24q110 57 174.5 140t71.5 149l-8 4q-27 -12 -62 -12q-56 0 -97.5 40.5t-41.5 106.5q0 65 44 112.5t110 47.5q84 0 133 -56.5t49 -148.5q0 -134 -95.5 -244t-264.5 -163zM68 846l-13 24q76 39 133 94.5t83 104.5t30 90l-8 4q-27 -12 -60 -12q-57 0 -98 40.5
t-41 106.5q0 65 43.5 112.5t110.5 47.5q83 0 132.5 -57t49.5 -148q0 -134 -96 -244t-266 -163z" />
    <glyph glyph-name="quotedblbase" unicode="&#x201e;" horiz-adv-x="946" 
d="M494 -324l-13 25q110 57 174.5 140t71.5 149l-8 4q-27 -12 -62 -12q-56 0 -97.5 40.5t-41.5 106.5q0 65 44 112.5t110 47.5q84 0 133 -56.5t49 -148.5q0 -134 -95.5 -244.5t-264.5 -163.5zM68 -324l-13 25q76 39 133 94.5t83 104.5t30 90l-8 4q-27 -12 -60 -12
q-57 0 -98 40.5t-41 106.5q0 65 43.5 112.5t110.5 47.5q83 0 132.5 -57t49.5 -148q0 -134 -96 -244.5t-266 -163.5z" />
    <glyph glyph-name="dagger" unicode="&#x2020;" horiz-adv-x="1175" 
d="M575 -221q-19 256 -60.5 513.5t-72.5 348.5l97 127q28 42 28 82q0 44 -28 72t-76 28q-49 0 -103.5 -23.5t-102.5 -47t-79 -23.5q-51 0 -88 25.5t-37 74.5q0 51 49.5 87t122.5 36q75 0 157.5 -35t186.5 -98l6 6l-57 211q-45 160 -45 236q0 65 31 104t86 39q53 0 84 -39
t31 -104q0 -72 -46 -236l-57 -211l6 -6q104 63 186.5 98t157.5 35q73 0 122.5 -36t49.5 -87q0 -49 -37 -74.5t-88 -25.5q-31 0 -78.5 23.5t-102 47t-103.5 23.5q-48 0 -76.5 -28t-28.5 -72q0 -38 29 -82l96 -127q-31 -93 -73.5 -351t-59.5 -511h-27z" />
    <glyph glyph-name="daggerdbl" unicode="&#x2021;" horiz-adv-x="1204" 
d="M602 -225q-54 0 -84.5 36.5t-30.5 98.5q0 55 45 221l58 205l-6 6q-107 -62 -188 -96.5t-156 -34.5q-74 0 -123 34.5t-49 86.5q0 50 37 76t88 26q31 0 78.5 -23.5t102 -47t103.5 -23.5q48 0 76.5 22.5t28.5 61.5q0 43 -33 104l-76 131l76 132q33 61 33 98q0 42 -28.5 66
t-76.5 24q-49 0 -103.5 -23.5t-102 -47t-78.5 -23.5q-51 0 -88 25.5t-37 74.5q0 51 49.5 87t122.5 36q75 0 157.5 -35t186.5 -98l6 6l-58 207q-45 153 -45 219q0 62 31 98.5t86 36.5q54 0 84.5 -36.5t30.5 -98.5q0 -53 -45 -219l-58 -207l7 -6q104 63 186.5 98t157.5 35
q73 0 122.5 -36t49.5 -87q0 -49 -37 -74.5t-88 -25.5q-31 0 -79 23.5t-102.5 47t-103.5 23.5q-48 0 -76 -22.5t-28 -63.5q0 -43 32 -102l76 -132l-76 -131q-32 -59 -32 -100q0 -42 28 -65t76 -23q49 0 103.5 23.5t102.5 47t79 23.5q51 0 88 -26t37 -76q0 -51 -49.5 -86
t-122.5 -35q-75 0 -156 34.5t-188 96.5l-7 -6l58 -205q45 -166 45 -221q0 -62 -31 -98.5t-86 -36.5z" />
    <glyph glyph-name="bullet" unicode="&#x2022;" horiz-adv-x="976" 
d="M487 397q-119 0 -199.5 81.5t-80.5 197.5t80.5 197t199.5 81q121 0 202 -81t81 -197t-81 -197.5t-202 -81.5z" />
    <glyph glyph-name="ellipsis" unicode="&#x2026;" horiz-adv-x="1519" 
d="M1260 -35q-70 0 -117 46.5t-47 113.5q0 65 48 113.5t118 48.5t116.5 -46.5t46.5 -113.5q0 -66 -48 -114t-117 -48zM760 -35q-71 0 -117.5 46.5t-46.5 113.5q0 65 48 113.5t118 48.5t117 -46.5t47 -113.5q0 -65 -48 -113.5t-118 -48.5zM258 -35q-70 0 -116 46.5t-46 113.5
q0 65 48 113.5t118 48.5t117 -46.5t47 -113.5q0 -65 -49 -113.5t-119 -48.5z" />
    <glyph glyph-name="guilsinglleft" unicode="&#x2039;" horiz-adv-x="628" 
d="M518 55l-401 346q-45 39 -45 60q0 12 7.5 23t37.5 38l401 346l25 -18l-246 -389l246 -389z" />
    <glyph glyph-name="guilsinglright" unicode="&#x203a;" horiz-adv-x="628" 
d="M111 53l-25 19l246 389l-246 389l25 16l401 -346q29 -25 37 -36.5t8 -22.5q0 -12 -7.5 -23.5t-37.5 -38.5z" />
    <glyph glyph-name="fraction" unicode="&#x2044;" horiz-adv-x="1247" 
d="M88 -63l506 729l498 731h67l-504 -731l-499 -729h-68z" />
    <glyph glyph-name="Euro" unicode="&#x20ac;" horiz-adv-x="1433" 
d="M944 551h-420q36 -201 151 -320.5t279 -119.5q112 0 211.5 61.5t165.5 167.5l35 -21q-171 -354 -520 -354q-136 0 -248.5 45t-188.5 125t-123 185.5t-61 230.5h-172v43h168q-2 23 -2 68q0 65 8 120h-174v43h183q24 120 82.5 223.5t145 181.5t205 122.5t253.5 44.5
q182 0 301.5 -86t119.5 -205q0 -74 -46 -122t-115 -48q-74 0 -121 44t-47 124q0 60 34 102.5t82 61.5q-27 35 -88 62.5t-129 27.5q-169 0 -274 -137t-125 -396h430v-43h-432v-67q0 -63 6 -121h426v-43z" />
    <glyph glyph-name="published" unicode="&#x2117;" horiz-adv-x="1708" 
d="M854 -70q-163 0 -308.5 60.5t-249.5 164.5t-165 250t-61 310q0 162 61 307t165 249t249.5 165t308.5 61t308.5 -61t249.5 -165t165 -249t61 -307q0 -164 -61 -310t-165 -250t-249.5 -164.5t-308.5 -60.5zM854 -35q156 0 294.5 59.5t236.5 160t155 239t57 291.5
q0 205 -96.5 376t-267.5 271t-379 100t-379 -100t-267.5 -271t-96.5 -376q0 -153 57 -291.5t155 -239t236.5 -160t294.5 -59.5zM510 322v26q68 1 91.5 14t23.5 44v634q0 31 -23.5 44t-91.5 14v24h364q355 0 355 -231q0 -102 -88 -168t-271 -66h-63v-251q0 -34 21.5 -46.5
t99.5 -13.5v-24h-418zM807 688h55q101 0 139.5 47t38.5 156q0 100 -40 151.5t-134 51.5h-59v-406z" />
    <glyph glyph-name="servicemark" unicode="&#x2120;" horiz-adv-x="1241" 
d="M109 1126h22q79 -139 174 -139q43 0 67.5 21.5t24.5 50.5q0 34 -28.5 54t-96.5 40q-38 12 -59.5 21t-48 26t-39 41.5t-12.5 58.5q0 65 51 105.5t129 40.5q56 0 108 -23l29 27h16v-152h-22q-69 123 -143 123q-36 0 -60 -18.5t-24 -48.5q0 -32 26.5 -49t100.5 -41
q34 -11 53.5 -19.5t44.5 -25.5t37 -42t12 -59q0 -64 -46 -110.5t-134 -46.5q-68 0 -129 28l-37 -31h-16v168zM520 971v18q44 4 58 23.5t14 68.5v275q0 58 -72 61v21h213l117 -322h8l111 322h209v-21q-44 -3 -59 -9.5t-15 -23.5v-360q0 -17 15.5 -23t58.5 -8v-22h-258v22
q37 2 49 8t12 23v334h-8l-133 -387h-60l-147 389h-8v-279q0 -49 13.5 -67.5t57.5 -24.5v-18h-176z" />
    <glyph glyph-name="trademark" unicode="&#x2122;" horiz-adv-x="1316" 
d="M596 971v18q44 4 58 23.5t14 68.5v275q0 58 -72 61v21h213l117 -322h8l110 322h209v-21q-43 -3 -58 -9.5t-15 -23.5v-360q0 -17 15 -23t58 -8v-22h-258v22q37 2 49.5 8t12.5 23v334h-8l-134 -387h-59l-147 389h-9v-279q0 -49 13.5 -67.5t58.5 -24.5v-18h-176zM174 971v22
q45 0 61.5 6.5t16.5 24.5v389h-12q-67 0 -134 -151h-24l8 176h447l6 -176h-23q-63 151 -133 151h-12v-389q0 -18 16.5 -24.5t61.5 -6.5v-22h-279z" />
    <glyph glyph-name="minus" unicode="&#x2212;" horiz-adv-x="1097" 
d="M111 647v45h876v-45h-876z" />
    <glyph glyph-name="registered.alt" horiz-adv-x="1708" 
d="M854 -70q-163 0 -308.5 60.5t-249.5 164.5t-165 250t-61 310q0 162 61 307t165 249t249.5 165t308.5 61t308.5 -61t249.5 -165t165 -249t61 -307q0 -164 -61 -310t-165 -250t-249.5 -164.5t-308.5 -60.5zM854 -35q156 0 294.5 59.5t236.5 160t155 239t57 291.5
q0 205 -96.5 376t-267.5 271t-379 100t-379 -100t-267.5 -271t-96.5 -376q0 -153 57 -291.5t155 -239t236.5 -160t294.5 -59.5zM772 739h70q102 0 136 35.5t34 136.5q0 92 -39.5 137.5t-136.5 45.5h-64v-355zM772 711v-308q0 -32 23.5 -43.5t85.5 -13.5v-27h-406v27
q69 1 92 13.5t23 43.5v637q0 31 -23 44t-92 14v24h404q166 0 243.5 -56t77.5 -140q0 -77 -55 -126.5t-182 -68.5v-4q115 -3 163 -46.5t58 -125.5l10 -106q8 -64 28 -83t87 -20v-24q-43 -7 -105 -7q-59 0 -97 9t-59 29.5t-30 46t-12 65.5l-9 94q-8 89 -41 120.5t-127 31.5
h-57z" />
    <glyph glyph-name="percent.alt" horiz-adv-x="1767" 
d="M807 1030q0 -162 -101.5 -263t-261.5 -101q-167 0 -265.5 97.5t-98.5 262.5q0 162 101 262.5t261 100.5q166 0 265.5 -97.5t99.5 -261.5zM307 -18l565 720l521 676h73l-561 -714l-524 -682h-74zM436 1350q-151 0 -151 -320q0 -161 43 -243t123 -82q151 0 151 323
q0 160 -43 241t-123 81zM967 330q0 164 101 264t263 100q166 0 264.5 -97t98.5 -261q0 -162 -101.5 -263.5t-261.5 -101.5q-167 0 -265.5 98t-98.5 261zM1337 10q152 0 152 324q0 159 -43 240t-123 81q-152 0 -152 -321q0 -161 43 -242.5t123 -81.5z" />
    <glyph glyph-name="NUL" horiz-adv-x="0" 
 />
    <glyph glyph-name="hfjslug" horiz-adv-x="1421" 
d="M1319 -410h-426l-16 29h-334l-17 -29h-424v621q28 0 47 18.5t19 46.5q0 27 -19.5 46.5t-46.5 19.5v1135h205l62 161h684l59 -161h207v-1887zM819 1153v-352h31v160h78v28h-78v135h88v29h-119zM377 1153v-352h31v162h96v-162h31v352h-31v-162h-96v162h-31zM942 807
q20 -8 43 -8q64 0 64 73v281h-33v-281q0 -45 -33 -45q-13 0 -41 11v-31zM760 952l-27 6q-9 -39 -16 -61h-2l-33 64q47 44 47 86q0 25 -14.5 44t-40.5 19q-25 0 -41.5 -19t-16.5 -44q0 -9 1 -16.5t4.5 -16.5t6 -13.5t9 -16.5t8.5 -17q-47 -38 -47 -97q0 -34 16.5 -54.5
t42.5 -20.5q41 0 60 49h2l24 -49l25 12l-35 65q16 40 27 80zM1071 662v-95h16v25l17 16l31 -41h20l-41 54l37 41h-21l-40 -50h-3v50h-16zM999 598l21 -31h18l-24 35q20 8 20 29q0 13 -10 22t-25 9h-41v-95h17v31h24zM872 565q22 0 36 14.5t14 34.5q0 19 -14.5 34.5
t-35.5 15.5t-35 -15t-14 -35q0 -21 14 -35t35 -14zM758 616l-27 46h-18l37 -60v-35h16v35l37 60h-19zM395 662v-95h70v15h-53v26h47v15h-47v24h53v15h-70zM270 662v-95h17v66l51 -66h14v95h-16v-66l-51 66h-15zM494 662l28 -97h17l22 70h2l23 -70h16l29 97h-17l-20 -72h-2
l-23 72h-14l-23 -72h-2l-20 72h-16zM670 981q-25 48 -25 66q0 15 8.5 26.5t20.5 11.5t19 -11t7 -27q0 -31 -30 -66zM700 866q-16 -43 -41 -43q-14 0 -23 14t-9 37q0 40 32 72zM997 612h-22v35h22q21 0 21 -16q0 -8 -6 -13.5t-15 -5.5zM872 580q-14 0 -23 10t-9 24q0 13 9 24
t23 11t23.5 -11t9.5 -24q0 -14 -9 -24t-24 -10z" />
    <glyph glyph-name="i.dot" horiz-adv-x="636" 
d="M326 1108q-73 0 -117.5 42t-44.5 116t45 120t117 46t115.5 -44t43.5 -116q0 -75 -43.5 -119.5t-115.5 -44.5zM47 0v25q88 1 118 16.5t30 58.5v705q0 49 -32.5 75t-115.5 27v25l420 18v-850q0 -44 27 -59t116 -16v-25h-563z" />
    <glyph glyph-name="caron.alt" horiz-adv-x="292" 
d="M86 1085l-25 273q-4 78 -4 102q0 60 30.5 86.5t72.5 26.5q44 0 72 -23t28 -65q0 -40 -35 -127l-110 -273h-29z" />
    </font>
</defs>
</svg>
